<svg width="113" height="110" viewBox="0 0 113 110" fill="none" xmlns="http://www.w3.org/2000/svg">
<path d="M49.0307 103.696C49.4418 103.668 49.9352 103.593 50.1271 103.538C50.3121 103.477 50.6205 103.429 50.7987 103.429C50.9837 103.429 51.3195 103.353 51.5524 103.271C51.7854 103.182 52.1623 103.073 52.3816 103.032C52.6009 102.991 52.8339 102.908 52.8956 102.854C52.9572 102.799 53.1217 102.737 53.2656 102.71C53.4027 102.683 53.5945 102.6 53.6836 102.532C53.7727 102.457 53.9097 102.402 53.9783 102.402C54.0537 102.402 54.2113 102.327 54.3415 102.231C54.4717 102.135 54.6293 102.06 54.6909 102.06C54.7595 102.06 54.8965 101.984 55.0062 101.902C55.109 101.813 55.2803 101.717 55.3831 101.69C55.4859 101.669 55.7325 101.512 55.9313 101.355C56.13 101.19 56.3424 101.04 56.4041 101.019C56.6577 100.923 57.384 100.307 58.0693 99.616C58.8025 98.8699 59.0424 98.5755 59.2548 98.1785C59.3165 98.0553 59.3987 97.9526 59.4261 97.9526C59.4604 97.9526 59.5426 97.8363 59.6043 97.6994C59.6728 97.5556 59.7962 97.3297 59.8784 97.1997C59.9606 97.0696 60.0292 96.9122 60.0292 96.8506C60.0292 96.789 60.0908 96.6863 60.1662 96.6178C60.2416 96.5494 60.3033 96.433 60.3033 96.3577C60.3033 96.2824 60.3786 96.0565 60.4746 95.858C60.5705 95.6595 60.6665 95.3447 60.6939 95.1667C60.7144 94.9887 60.7761 94.7697 60.8309 94.6875C60.8857 94.6054 60.9543 94.3453 60.9885 94.1125C61.0228 93.8798 61.0982 93.6402 61.1598 93.5786C61.4339 93.298 66.4021 93.3185 66.9366 93.5992C67.0668 93.6676 67.3546 93.7498 67.5739 93.784C67.8 93.8182 68.1016 93.9072 68.2386 93.9825C68.3757 94.0578 68.5401 94.1194 68.595 94.1194C68.6498 94.1194 68.7937 94.181 68.917 94.2495C69.0335 94.3247 69.2939 94.4343 69.4926 94.489C69.6914 94.5506 69.8695 94.6259 69.8901 94.6533C69.9107 94.6807 70.0134 94.756 70.1162 94.8244C70.3492 94.975 70.3561 95.0914 70.1368 95.5021C70.0409 95.6801 69.9655 95.8786 69.9655 95.9402C69.9655 96.0018 69.9038 96.1524 69.8353 96.2687C69.7599 96.3851 69.664 96.6794 69.6228 96.9259C69.5817 97.1654 69.4995 97.4529 69.4378 97.5693C69.2734 97.891 69.3008 99.5133 69.4789 100.02C69.5612 100.239 69.6228 100.478 69.6228 100.561C69.6228 100.65 69.7188 100.917 69.8353 101.163C70.082 101.676 70.6028 102.217 70.9797 102.34C71.3292 102.457 72.0624 102.381 72.3022 102.203C72.405 102.121 72.5215 102.06 72.5558 102.06C72.7271 102.06 73.7276 100.855 73.7344 100.636C73.7344 100.588 73.8167 100.389 73.9195 100.198C74.1045 99.8419 74.1045 99.835 74.0976 98.4523C74.0908 97.097 74.0839 97.0491 73.9126 96.7205C73.8167 96.5357 73.7344 96.3098 73.7344 96.2208C73.7344 96.1318 73.6591 95.9607 73.5631 95.8307C73.4672 95.7006 73.3918 95.5637 73.3918 95.5226C73.3918 95.4747 73.1588 95.2009 72.8779 94.9134C72.1172 94.1262 72.1241 94.0578 72.9395 93.606C73.241 93.4349 73.5426 93.2638 73.5974 93.2295C73.9674 93.0037 74.6732 92.7983 75.3791 92.7093C76.0575 92.6272 76.2699 92.6272 76.9552 92.7093C77.9351 92.8325 78.2983 92.9763 79.2028 93.5923C79.7099 93.9346 80.5871 94.9203 80.5871 95.1462C80.5871 95.2078 80.6556 95.3515 80.7378 95.461C80.8886 95.6458 80.8954 95.7211 80.8954 96.6863C80.8954 97.7815 80.8817 97.8499 80.3952 98.7398C80.2787 98.9452 80.2307 99.7392 80.3267 99.835C80.4158 99.924 80.7241 99.6297 80.8338 99.3422C80.8954 99.1779 80.9845 99.0136 81.0393 98.9725C81.0873 98.9315 81.149 98.8014 81.1764 98.685C81.197 98.5618 81.2723 98.3907 81.3409 98.2949C81.4094 98.199 81.4916 97.9526 81.5327 97.7473C81.5739 97.5419 81.6492 97.2476 81.7109 97.097C81.8685 96.6726 81.8617 95.2557 81.6972 94.9408C81.6218 94.8107 81.5464 94.5506 81.519 94.3658C81.4985 94.1742 81.4162 93.962 81.3477 93.8867C81.2792 93.8045 81.2038 93.6608 81.1764 93.5581C81.1147 93.2843 80.3335 92.3328 79.9498 92.059C79.7648 91.929 79.5318 91.7579 79.429 91.6757C79.3262 91.5936 79.148 91.5046 79.0384 91.4772C78.9287 91.4498 78.7643 91.3745 78.6683 91.3061C78.5107 91.1897 77.9488 91.0939 76.8524 90.9912C76.6674 90.9707 76.311 90.9912 76.0643 91.0323C75.8176 91.0733 75.3996 91.1418 75.1255 91.1829C74.8514 91.2239 74.5979 91.2992 74.5567 91.354C74.5088 91.4019 74.3649 91.4635 74.221 91.4909C74.0839 91.5183 73.9126 91.5867 73.8372 91.6552C73.7618 91.7168 73.5974 91.8058 73.4809 91.8468C73.2753 91.9153 72.8779 92.1754 72.6517 92.3944C72.6037 92.4355 72.5352 92.4766 72.501 92.4766C72.4667 92.4766 72.2269 92.6751 71.9596 92.9215C71.6923 93.1679 71.4594 93.3664 71.4388 93.3664C71.336 93.3664 70.7124 92.9831 69.9449 92.4629C69.7393 92.3191 69.5475 92.2028 69.5064 92.2028C69.4721 92.2028 69.3419 92.1275 69.2185 92.0385C69.0883 91.9427 68.9033 91.8468 68.7937 91.8263C68.6909 91.7989 68.5675 91.7373 68.5264 91.6826C68.4785 91.6346 68.314 91.5525 68.1564 91.5114C68.0056 91.4704 67.8275 91.3951 67.7726 91.3403C67.711 91.2924 67.478 91.2034 67.2518 91.1555C67.0188 91.1007 66.7584 91.0049 66.6625 90.9433C66.5734 90.8817 66.2993 90.8132 66.0526 90.7927C65.8128 90.7653 65.4907 90.6969 65.3399 90.6353C65.1138 90.5463 64.7164 90.5257 63.154 90.5189C61.4751 90.5121 61.2284 90.4984 61.1598 90.4025C61.1119 90.3341 61.0639 89.9234 61.0365 89.4374C61.0091 88.8213 60.9611 88.4996 60.8583 88.2532C60.7898 88.0752 60.7076 87.7398 60.6802 87.5139C60.6596 87.288 60.5842 87.0074 60.5088 86.8842C60.4403 86.7678 60.3581 86.5214 60.3307 86.3366C60.3033 86.1586 60.2279 85.9259 60.1525 85.8232C60.084 85.7205 60.0017 85.4946 59.9675 85.3167C59.9332 85.1387 59.8578 84.9539 59.803 84.9128C59.7482 84.8717 59.6728 84.728 59.6317 84.5842C59.5906 84.4473 59.4946 84.2488 59.4193 84.153C59.337 84.0503 59.2754 83.9203 59.2754 83.8518C59.2754 83.7902 59.2137 83.6807 59.1315 83.6054C59.0561 83.5369 58.9464 83.3795 58.8985 83.2631C58.782 82.9756 58.6586 82.8319 57.9665 82.1474C57.2675 81.456 56.9455 81.1822 56.8358 81.1822C56.7947 81.1822 56.6782 81.1206 56.5754 81.0385C56.3219 80.84 55.7188 80.5251 55.4721 80.4704C55.3557 80.443 55.2186 80.3745 55.1569 80.3198C55.0884 80.2582 54.8623 80.1897 54.643 80.1555C54.4168 80.1281 54.0674 80.046 53.8618 79.9775C53.3067 79.7859 50.7987 79.7859 50.1956 79.9775C49.9695 80.046 49.5926 80.1281 49.3596 80.1555C49.0923 80.1897 48.8662 80.265 48.7497 80.354C48.6469 80.4361 48.5099 80.4977 48.4413 80.4977C48.0096 80.4977 46.7076 81.4492 45.9607 82.3048C45.4879 82.8456 44.9876 83.7834 44.9122 84.2694C44.8848 84.4336 44.8026 84.6938 44.7204 84.8443C44.5902 85.0976 44.5765 85.2277 44.5765 86.4529C44.5833 87.6508 44.597 87.8219 44.7204 88.13C44.8026 88.3216 44.8917 88.6502 44.9122 88.8624C44.9396 89.0814 45.0219 89.3279 45.0973 89.4237C45.1658 89.5127 45.2275 89.6359 45.2275 89.6906C45.2275 89.7454 45.3028 89.896 45.3919 90.0329C45.481 90.163 45.5769 90.3341 45.5975 90.4094C45.6797 90.6558 46.7213 91.6415 46.9954 91.7305C47.1325 91.7715 47.3038 91.8605 47.3792 91.9221C47.4751 92.0111 47.7013 92.0385 48.5167 92.0522L49.5241 92.0796L49.9969 91.8331C50.2778 91.6962 50.6136 91.443 50.8261 91.2239C51.2304 90.8064 51.2304 90.8064 51.1893 89.6701C51.1687 89.0404 51.107 88.7803 50.97 88.7803C50.8877 88.7803 50.504 89.1773 50.504 89.2663C50.504 89.2868 50.3532 89.4032 50.1614 89.5264C49.8941 89.6975 49.7091 89.7591 49.3253 89.8002C48.5921 89.8823 47.7972 89.7796 47.3107 89.5537C46.3924 89.1157 46.0361 88.8145 45.6934 88.1779C45.481 87.7946 45.481 87.7809 45.481 86.761C45.481 85.7821 45.4879 85.7137 45.6592 85.3783C45.762 85.1798 45.8442 84.9607 45.8442 84.8923C45.8442 84.817 45.9059 84.6801 45.9812 84.5842C46.0635 84.4884 46.2348 84.2351 46.3787 84.0298C46.5637 83.756 46.8036 83.5369 47.2353 83.2358C47.5642 83.0099 47.9205 82.8045 48.0233 82.784C48.1261 82.7566 48.2837 82.6813 48.3797 82.6197C48.4756 82.5581 48.7497 82.4623 48.9964 82.4212C49.2431 82.3733 49.5446 82.2911 49.6748 82.2364C50.271 81.99 53.9166 81.99 54.3963 82.2364C54.4991 82.2911 54.7663 82.3664 54.9925 82.4144C55.2186 82.4623 55.4516 82.5376 55.5133 82.5923C55.5681 82.6471 55.7257 82.7224 55.8559 82.7635C55.9861 82.8114 56.1711 82.914 56.2739 82.9893C56.3698 83.0715 56.5754 83.2084 56.7262 83.2974C57.0551 83.489 57.8706 84.2831 58.1104 84.6322C58.2064 84.7759 58.3571 84.9813 58.4462 85.0976C58.6244 85.3167 58.7888 85.5905 58.9738 85.9738C59.0355 86.1038 59.1452 86.2955 59.2137 86.3982C59.2891 86.494 59.3439 86.6104 59.3439 86.6514C59.3439 86.6925 59.433 86.9252 59.5495 87.158C59.6591 87.3976 59.755 87.6782 59.755 87.7809C59.755 87.8836 59.8167 88.0821 59.8921 88.2327C59.9675 88.3832 60.0634 88.7392 60.1045 89.0335C60.1388 89.3279 60.2142 89.7043 60.269 89.8755C60.4472 90.471 60.4472 90.6147 60.2827 90.7311C60.2005 90.7859 60.0771 90.8338 60.0017 90.8338C59.9332 90.8338 59.7756 90.8954 59.6591 90.9638C59.5426 91.0323 59.2685 91.1281 59.0561 91.176C58.8436 91.2171 58.6312 91.2992 58.5901 91.354C58.5421 91.4019 58.453 91.4498 58.3845 91.4498C58.3228 91.4498 58.1173 91.5251 57.9322 91.6209C57.7472 91.7168 57.5622 91.7921 57.5142 91.7921C57.4731 91.7921 57.3498 91.8674 57.2401 91.9564C57.1373 92.0453 56.9318 92.1549 56.7879 92.1959C56.6508 92.2439 56.5343 92.3123 56.5343 92.3465C56.5343 92.3808 56.4521 92.4492 56.3424 92.4903C56.0752 92.6135 55.6366 92.8873 55.4584 93.0516C55.3762 93.1337 55.198 93.2706 55.061 93.3664C54.4031 93.8114 53.2176 94.9271 52.7517 95.5226C52.6694 95.639 52.3748 96.0018 52.1007 96.3303C51.8265 96.6589 51.6004 96.9601 51.6004 96.9943C51.6004 97.0285 51.525 97.1723 51.4291 97.3092C51.3332 97.4461 51.2578 97.6583 51.2578 97.7747C51.2578 97.891 51.2235 98.1032 51.1824 98.247C51.107 98.5276 51.1481 98.774 51.2783 98.774C51.3263 98.7672 51.4565 98.685 51.573 98.5824C52.8065 97.5009 53.5534 96.9259 53.7179 96.9259C53.7521 96.9259 53.8207 96.878 53.8686 96.8163C54.0331 96.6178 55.8422 95.5226 56.5 95.2214C56.5754 95.1872 56.9592 95.0093 57.3566 94.8244C57.7541 94.6396 58.1858 94.4616 58.3091 94.4411C58.4393 94.4137 58.5764 94.3521 58.6175 94.2974C58.6929 94.2015 59.7345 93.9414 59.7962 94.003C59.8578 94.0646 59.6934 94.8244 59.5974 94.934C59.5426 94.9956 59.4398 95.1667 59.3644 95.3173C58.9876 96.0497 58.8916 96.214 58.7888 96.3098C58.7272 96.3646 58.4942 96.6452 58.2612 96.9259C57.802 97.5009 57.4731 97.8226 56.7742 98.3907C56.5069 98.6029 56.2465 98.8219 56.1848 98.8767C56.13 98.9315 55.897 99.0752 55.6709 99.1916C55.4516 99.3079 55.1912 99.4722 55.0953 99.5612C54.9993 99.6433 54.828 99.7392 54.7184 99.7597C54.6019 99.7871 54.4511 99.8692 54.3757 99.9308C54.3003 99.9993 54.1496 100.075 54.0399 100.102C53.9303 100.129 53.759 100.211 53.6699 100.287C53.574 100.355 53.4164 100.417 53.3136 100.417C53.2108 100.417 52.9915 100.492 52.827 100.581C52.6557 100.663 52.3816 100.759 52.2103 100.786C52.039 100.814 51.7923 100.889 51.6621 100.958C51.5319 101.026 51.2304 101.101 50.9837 101.129C50.7438 101.156 50.3601 101.245 50.1339 101.32C49.7433 101.457 49.572 101.464 47.4203 101.464C45.4056 101.464 45.0904 101.45 44.8506 101.348C44.6998 101.286 44.3777 101.19 44.131 101.136C43.8843 101.081 43.5623 100.978 43.4115 100.896C43.2676 100.821 43.0757 100.759 43.0003 100.759C42.9181 100.759 42.7537 100.684 42.6235 100.588C42.4933 100.492 42.3425 100.417 42.274 100.417C42.2123 100.417 42.0889 100.355 41.9999 100.287C41.9039 100.218 41.7258 100.109 41.5956 100.047C41.3626 99.9377 40.7253 99.5201 40.225 99.1505C39.7385 98.7877 39.2108 98.3086 38.3063 97.405C37.1688 96.2619 36.7713 95.8307 36.6342 95.5774C36.5726 95.4747 36.415 95.2488 36.2848 95.0777C36.1546 94.9066 36.0107 94.6944 35.9695 94.5985C35.9284 94.5027 35.853 94.3727 35.7914 94.3111C35.6749 94.181 35.5652 93.9893 35.1952 93.2501C34.7155 92.2712 34.551 91.8948 34.5099 91.662C34.4825 91.532 34.4208 91.3745 34.366 91.3061C34.3043 91.2445 34.229 91.0117 34.1947 90.7859C34.1536 90.5531 34.0714 90.2383 33.996 90.074C33.9275 89.9097 33.8452 89.5127 33.8247 89.191C33.7973 88.8692 33.7287 88.4106 33.6602 88.1642C33.5163 87.6097 33.4957 85.5905 33.6328 85.0429C33.7561 84.5705 33.763 84.5363 33.8178 83.7834C33.8452 83.4069 33.9206 83.0167 33.9891 82.8593C34.0577 82.7087 34.1467 82.3596 34.181 82.0789C34.2221 81.8051 34.3043 81.5245 34.3592 81.4629C34.4208 81.3944 34.5031 81.1617 34.5442 80.9358C34.5853 80.7168 34.6744 80.4498 34.7498 80.354C34.8183 80.2513 34.88 80.1144 34.88 80.0391C34.88 79.9707 34.9553 79.779 35.0444 79.6079C35.1335 79.4368 35.2432 79.1835 35.2843 79.0466C35.3322 78.9097 35.4076 78.7591 35.4624 78.718C35.5104 78.677 35.5789 78.5401 35.5995 78.4237C35.6269 78.3005 35.7023 78.143 35.7708 78.0677C35.8393 77.9925 35.9421 77.8213 36.0038 77.6913C36.0655 77.5612 36.2094 77.3148 36.319 77.1437C36.4287 76.9725 36.5726 76.7261 36.6342 76.5961C36.6959 76.466 36.785 76.3291 36.8398 76.288C36.8946 76.2538 37.0523 76.0279 37.203 75.7883C37.3469 75.5556 37.6073 75.1997 37.7786 75.0012C38.1076 74.6247 39.0601 73.4816 39.3205 73.1462C39.4438 72.9887 39.4712 72.8587 39.4712 72.4959C39.4712 72.0578 39.4575 72.0236 39.2245 71.7977C38.9984 71.5786 38.9641 71.5649 38.4845 71.5649H37.9911L37.203 72.2152C36.7713 72.578 36.2848 72.975 36.1203 73.1051C35.949 73.2351 35.7365 73.4063 35.6475 73.4884C35.2774 73.817 35.202 73.8717 35.0239 73.947C34.8457 74.0292 34.6196 74.1729 34.2769 74.4467C34.1741 74.5289 34.0165 74.6178 33.9206 74.6452C33.8247 74.6726 33.7013 74.7411 33.6396 74.7958C33.578 74.8506 33.297 75.008 33.0229 75.1518C32.7419 75.2955 32.4199 75.4598 32.3102 75.5214C31.8991 75.7404 31.1864 76.0485 31.0973 76.0485C31.0493 76.0485 30.9123 76.1032 30.8027 76.1717C30.6862 76.2401 30.4395 76.3359 30.2544 76.3839C30.0626 76.4318 29.8501 76.5071 29.7748 76.555C29.6994 76.6097 29.4938 76.6714 29.3293 76.6987C29.158 76.7261 28.8634 76.8083 28.6783 76.8767C28.4865 76.952 28.0547 77.041 27.7121 77.0752C27.3763 77.1094 26.972 77.1916 26.8213 77.26C26.5883 77.3695 26.3142 77.3832 24.4982 77.3832C22.7371 77.3832 22.4082 77.3627 22.1957 77.2669C22.0587 77.2053 21.6544 77.1231 21.3049 77.0752C20.9554 77.0273 20.558 76.9315 20.4278 76.863C20.2976 76.7946 20.0509 76.7193 19.8795 76.6919C19.7082 76.6645 19.4752 76.5892 19.3587 76.5208C19.2491 76.4455 19.1121 76.3907 19.0572 76.3907C18.8791 76.3907 16.6862 75.3092 16.5903 75.1791C16.5697 75.1449 16.3504 74.9943 16.1037 74.83C15.5966 74.5015 15.4253 74.3714 15.1512 74.1318C15.0484 74.036 14.6373 73.6801 14.2467 73.331C13.6162 72.7834 12.9789 72.1262 12.184 71.2227C11.9716 70.9831 11.5879 70.4492 11.2247 69.8948C11.1561 69.7989 11.0328 69.573 10.9369 69.4019C10.8478 69.2308 10.7176 69.0528 10.6628 69.0049C10.6011 68.9501 10.5531 68.8475 10.5531 68.7653C10.5531 68.6832 10.4777 68.5121 10.3886 68.3957C10.2996 68.2725 10.2105 68.0466 10.1831 67.8892C10.1557 67.7386 10.0803 67.5401 10.0117 67.4511C9.94322 67.3621 9.86099 67.1088 9.83358 66.8966C9.80617 66.6776 9.71709 66.349 9.64171 66.1574C9.4978 65.8288 9.49095 65.7193 9.49095 63.6247C9.49095 61.7286 9.50465 61.4 9.60744 61.181C9.66912 61.0441 9.7582 60.6266 9.80617 60.2569C9.85414 59.8668 9.94322 59.504 10.0117 59.3876C10.0803 59.2712 10.1557 59.0385 10.1831 58.8674C10.2036 58.6962 10.2996 58.4088 10.3886 58.2239C10.4777 58.0323 10.5531 57.7995 10.5531 57.7037C10.5531 57.601 10.6148 57.4641 10.6833 57.4025C10.7518 57.3341 10.8478 57.1493 10.8889 56.9781C10.93 56.807 11.0122 56.6564 11.0671 56.6359C11.115 56.6154 11.1835 56.499 11.2041 56.3826C11.2315 56.2594 11.3069 56.102 11.3754 56.0267C11.444 55.9514 11.5467 55.7803 11.6084 55.6502C11.6701 55.5201 11.814 55.2874 11.9236 55.1368C12.0401 54.9862 12.1909 54.7535 12.2594 54.6234C12.4376 54.288 14.5002 52.2277 14.6578 52.2277C14.6921 52.2277 14.9251 52.0839 15.1855 51.9128C15.4459 51.7348 15.7611 51.5637 15.8913 51.5295C16.0215 51.4884 16.2065 51.4063 16.3025 51.3378C16.3984 51.2694 16.652 51.1804 16.8575 51.1325C17.0631 51.0914 17.2755 51.0161 17.3372 50.9682C17.44 50.8792 18.509 50.7218 19.0367 50.7218C19.2491 50.7218 19.3176 50.756 19.3793 50.886C19.4341 51.0093 19.4273 51.0845 19.345 51.2009C19.2902 51.2831 19.2011 51.6322 19.1532 51.9812C19.1052 52.3372 19.0024 52.7274 18.9202 52.8848C18.8379 53.0285 18.7763 53.2476 18.7763 53.364C18.7763 53.4803 18.7009 53.7199 18.605 53.8979C18.509 54.0758 18.4336 54.2675 18.4336 54.3223C18.4336 54.3702 18.3583 54.5618 18.2692 54.7398C18.1732 54.9246 17.9814 55.3148 17.8375 55.616C17.7004 55.9172 17.4469 56.3826 17.2893 56.6564C17.1248 56.9234 16.9946 57.1698 16.9946 57.1903C16.9946 57.2177 16.9329 57.3204 16.8507 57.4162C16.7753 57.5189 16.5903 57.7859 16.4395 58.0117C16.2956 58.2376 16.0763 58.5457 15.9667 58.6962C15.8502 58.8468 15.6857 59.0796 15.5966 59.2096C15.5076 59.3397 15.2472 59.6546 15.0142 59.9078C14.6167 60.3391 14.4797 60.6471 14.6852 60.6471C14.9114 60.6471 15.8228 60.3733 16.0695 60.2295C16.3025 60.0995 16.6588 59.8257 17.303 59.2712C18.0979 58.5936 19.7356 56.8344 19.7356 56.6496C19.7356 56.6017 19.7836 56.5195 19.8453 56.4648C19.9823 56.3484 20.3935 55.7255 20.4483 55.5407C20.4757 55.4585 20.5511 55.3422 20.6265 55.2737C20.7019 55.2053 20.7635 55.0821 20.7635 54.9999C20.7635 54.9246 20.8389 54.7535 20.9349 54.6234C21.0308 54.4934 21.1062 54.3428 21.1062 54.2812C21.1062 54.2127 21.1815 54.0279 21.2706 53.8568C21.3597 53.6857 21.4557 53.4119 21.4831 53.2476C21.5105 53.0833 21.5927 52.8232 21.6681 52.6794C21.7435 52.522 21.8188 52.2071 21.8394 51.9265C21.8874 51.2283 21.9627 51.064 22.23 51.064C22.5589 51.0709 23.251 51.2351 23.4361 51.3515C23.532 51.4131 23.7102 51.4816 23.8335 51.5089C24.0597 51.5569 25.3 52.1661 25.4919 52.3303C25.5467 52.3783 25.7043 52.4672 25.8345 52.5357C26.1292 52.6863 26.1292 52.6863 26.9309 53.4735C27.6641 54.2059 27.7669 54.3223 27.9314 54.6371C27.9931 54.7603 28.1027 54.9383 28.1712 55.0273C28.2466 55.1163 28.3014 55.26 28.3014 55.3422C28.3014 55.4243 28.3631 55.5749 28.4385 55.6707C28.5276 55.7803 28.6304 56.1157 28.7126 56.5195C28.7811 56.8892 28.8771 57.2999 28.9182 57.4299C29.0278 57.8064 29.0073 60.3048 28.8908 60.6608C28.8359 60.8251 28.7537 61.2152 28.7057 61.5369C28.6646 61.8724 28.5755 62.1941 28.5002 62.3036C28.4316 62.4063 28.3426 62.6322 28.3014 62.817C28.2603 62.9949 28.1712 63.2071 28.1027 63.2824C28.0342 63.3577 27.8766 63.5905 27.7532 63.7958C27.623 64.0012 27.4243 64.2613 27.3078 64.3776C27.1022 64.5761 26.417 65.0279 26.3142 65.0279C26.2868 65.0279 26.184 65.0895 26.088 65.1648C25.9921 65.2401 25.6906 65.3428 25.4096 65.3976C25.1355 65.4523 24.8203 65.5276 24.7175 65.5687C24.416 65.685 23.8472 65.6577 23.4155 65.5071C23.2031 65.4318 22.9701 65.3702 22.8947 65.3702C22.5726 65.3702 21.6133 64.2544 21.4557 63.6931C21.4214 63.5494 21.3323 63.3783 21.2638 63.303C21.161 63.1866 21.1404 63.036 21.1404 62.2625C21.1404 61.4 21.1473 61.359 21.3255 61.1057C21.4282 60.962 21.531 60.7908 21.5516 60.7292C21.5722 60.6676 21.7092 60.5307 21.8531 60.428C22.1135 60.2432 22.2506 59.9968 22.1272 59.9284C22.093 59.9078 21.7914 59.8531 21.4488 59.812C20.743 59.7298 20.0783 59.812 19.8521 60.0105C19.393 60.4212 18.9956 61.1947 18.8311 61.9956C18.6872 62.6595 19.023 63.8095 19.5369 64.4324C19.9275 64.9047 20.51 65.4181 20.8321 65.5618C20.9623 65.6234 21.1473 65.7261 21.2432 65.7877C21.3392 65.8493 21.5242 65.9246 21.6544 65.952C21.7846 65.9794 21.9627 66.0478 22.045 66.1026C22.2094 66.2121 23.7924 66.4106 24.5668 66.4243C25.2178 66.4312 26.4375 66.2737 26.6911 66.1437C26.8007 66.0889 27.0406 65.9999 27.2119 65.9452C27.39 65.8904 27.5682 65.8014 27.6162 65.7467C27.6641 65.6919 27.7532 65.644 27.8218 65.644C27.9245 65.644 28.3974 65.3223 28.74 65.0142C28.8154 64.9458 28.8976 64.891 28.925 64.891C28.9593 64.891 29.1991 64.6241 29.4732 64.3023C30.0215 63.6452 30.6039 62.5979 30.6725 62.1462C30.6999 61.9819 30.7752 61.7491 30.8438 61.6328C31.1795 61.0783 31.1727 56.7865 30.8369 56.4032C30.7684 56.3279 30.6999 56.1157 30.6725 55.9377C30.6519 55.7529 30.556 55.5065 30.46 55.3764C30.3641 55.2463 30.2887 55.0889 30.2887 55.0136C30.2887 54.9383 30.2133 54.7946 30.1174 54.6782C30.0215 54.5687 29.9461 54.4386 29.9461 54.3907C29.9461 54.1032 27.9314 52.0702 27.5476 51.9744C27.4517 51.9539 27.3147 51.8854 27.2393 51.8238C27.0543 51.6664 26.3279 51.3036 26.0812 51.242C25.9715 51.2146 25.8002 51.1325 25.7111 51.0572C25.6152 50.9887 25.4645 50.9271 25.3617 50.9271C25.2657 50.9271 25.0944 50.8655 24.9779 50.7902C24.8683 50.7149 24.6353 50.6396 24.464 50.6122C24.2926 50.5849 24.0185 50.5096 23.8541 50.4343C23.6965 50.359 23.2922 50.2768 22.9701 50.2426C22.2094 50.1605 22.1546 50.1057 22.0655 49.3664C22.0313 49.0516 21.9833 48.7709 21.9627 48.7298C21.9353 48.6956 21.8942 48.3123 21.86 47.8811C21.8188 47.2924 21.7777 47.0528 21.6681 46.8748C21.5927 46.7516 21.5105 46.4847 21.4831 46.293C21.4557 46.0945 21.3803 45.8618 21.3117 45.7796C21.2501 45.6906 21.1678 45.5127 21.1404 45.3826C21.113 45.2526 21.0376 45.0677 20.9691 44.9719C20.9006 44.8761 20.8252 44.7255 20.7978 44.6297C20.7704 44.5338 20.695 44.3969 20.6265 44.3216C20.558 44.2463 20.4826 44.1026 20.4552 43.9999C20.4278 43.9041 20.3318 43.7535 20.2427 43.6645C20.1537 43.5824 20.0783 43.4797 20.0783 43.4455C20.0783 43.3565 19.6534 42.761 19.5095 42.6583C19.393 42.5693 19.345 42.2339 19.4547 42.2339C19.4889 42.2339 19.7151 41.9806 19.9618 41.6658C20.2085 41.3577 20.4894 41.0155 20.5785 40.8991C20.6676 40.7896 20.7704 40.6185 20.7978 40.5226C20.8252 40.4268 20.9074 40.2762 20.976 40.1872C21.0513 40.0982 21.1062 39.9613 21.1062 39.8792C21.1062 39.8039 21.1884 39.5643 21.2912 39.359C21.4762 38.9893 21.4762 38.962 21.4831 37.6135C21.4831 36.2582 21.4831 36.2376 21.2912 35.8612C21.1884 35.649 21.1062 35.4436 21.1062 35.4025C21.1062 35.2862 20.5168 34.5743 20.0646 34.1567C19.6603 33.7803 19.3108 33.5681 18.5296 33.2395C18.139 33.0752 18.0362 33.0615 17.0563 33.0615C16.2819 33.0684 15.9256 33.0957 15.7269 33.171C15.5761 33.2258 15.3431 33.3079 15.2129 33.3422C14.884 33.438 13.9178 33.9172 13.7053 34.0814C13.6094 34.1567 13.5614 34.2389 13.5888 34.2731C13.6231 34.3005 13.8766 34.321 14.1576 34.321C14.5756 34.3142 14.6921 34.2868 14.8223 34.1704C14.9045 34.0951 15.1238 33.9925 15.3157 33.9445C15.5007 33.9035 15.7406 33.8213 15.8433 33.7734C16.0832 33.6502 16.6725 33.6502 16.9124 33.7734C17.0151 33.8213 17.2481 33.9035 17.44 33.9445C17.625 33.9925 17.9403 34.1294 18.1253 34.2594C18.5227 34.5195 19.3725 35.3957 19.4821 35.6558C19.5232 35.7516 19.6054 35.9091 19.674 36.0049C19.7356 36.1007 19.8042 36.2924 19.8316 36.4361C19.859 36.5799 19.9412 36.84 20.0166 37.018C20.1331 37.2849 20.1537 37.456 20.1331 38.0926C20.0988 39.181 19.7699 40.1941 19.1737 41.0565C18.8722 41.4878 18.7489 41.5289 18.4542 41.2961C17.8375 40.8101 17.7415 40.7485 17.0357 40.3378C16.9603 40.2899 16.837 40.2488 16.7684 40.2488C16.6999 40.2488 16.5149 40.1804 16.3573 40.0982C16.09 39.9545 15.9873 39.9408 14.836 39.9408C13.7122 39.9408 13.5751 39.9545 13.3284 40.0845C13.1777 40.1667 12.9652 40.2488 12.8556 40.2762C12.6158 40.3378 12.0127 40.7759 11.7523 41.0839C11.4645 41.4262 11.3549 41.7411 11.348 42.2681C11.3412 42.98 11.581 43.3291 12.3691 43.7261C13.2325 44.1642 14.9731 44.3696 15.6583 44.1094C15.8091 44.0547 16.1106 43.9794 16.323 43.9452C16.5423 43.9109 16.8027 43.8219 16.8987 43.7467C17.0014 43.6645 17.1522 43.6029 17.2344 43.6029C17.3167 43.6029 17.4674 43.5413 17.5634 43.466C17.6593 43.3907 17.7895 43.3291 17.8649 43.3291C17.9951 43.3291 18.3651 43.7398 18.3651 43.8904C18.3651 43.9452 18.4542 44.1642 18.5707 44.3901C18.6803 44.616 18.7763 44.8487 18.7763 44.9103C18.7763 44.9719 18.8517 45.1567 18.9339 45.321C19.023 45.4853 19.1189 45.8139 19.1463 46.0466C19.1737 46.2862 19.2491 46.6079 19.3245 46.7653C19.4204 46.9981 19.4615 47.3198 19.4958 48.3328C19.5575 49.9893 19.626 49.9004 18.3103 49.9004C17.392 49.9004 17.2139 49.9277 16.5834 50.1262C16.4121 50.181 16.1174 50.2563 15.9324 50.2974C15.4733 50.3932 14.7332 50.6602 14.5071 50.8107C14.4111 50.8724 14.2672 50.9271 14.1987 50.9271C14.1233 50.9271 13.9931 50.9819 13.904 51.0503C13.815 51.1188 13.5409 51.2899 13.2942 51.4405C12.1772 52.1113 10.649 53.5693 9.84043 54.7398C9.70338 54.9383 9.59374 55.1231 9.59374 55.1574C9.59374 55.1916 9.53207 55.2737 9.45669 55.3422C9.38131 55.4106 9.28537 55.5886 9.2374 55.7392C9.19629 55.8829 9.1209 56.0198 9.07294 56.0404C9.02497 56.0609 8.94959 56.1841 8.90162 56.321C8.85365 56.4648 8.76457 56.6427 8.69604 56.7317C8.62752 56.8207 8.55899 56.9713 8.53158 57.074C8.51102 57.1835 8.41508 57.4162 8.326 57.601C8.23006 57.779 8.15469 57.9912 8.15469 58.0597C8.15469 58.1281 8.09301 58.3061 8.02448 58.443C7.9491 58.5867 7.87373 58.8537 7.84631 59.0385C7.81891 59.2302 7.73667 59.5108 7.66129 59.6751C7.58591 59.8462 7.50368 60.2501 7.46942 60.6676C7.43516 61.0509 7.35978 61.5849 7.2981 61.845C7.18846 62.3789 7.16791 63.8985 7.26384 64.4461C7.30495 64.6378 7.38033 65.1443 7.43516 65.5755C7.48997 66.0068 7.58591 66.4654 7.64074 66.5817C7.69556 66.705 7.78465 67.0061 7.84631 67.2594C7.90114 67.5058 7.99707 67.7728 8.0519 67.8549C8.10671 67.9371 8.15469 68.0671 8.15469 68.1424C8.16154 68.2177 8.25062 68.4504 8.36026 68.6558C8.47676 68.8611 8.56584 69.0802 8.56584 69.1418C8.56584 69.2034 8.61381 69.2992 8.68233 69.3471C8.74401 69.4019 8.8331 69.5457 8.88792 69.6689C9.04552 70.0385 9.65541 70.9694 10.0871 71.4828C10.1831 71.606 10.4503 71.9209 10.6696 72.181C11.0671 72.667 11.8688 73.4336 12.3279 73.7759C12.465 73.8786 12.8282 74.1592 13.1297 74.4056C13.4381 74.6521 13.7876 74.9122 13.9178 74.9875C14.1645 75.1312 14.2467 75.1928 14.5482 75.3913C14.7949 75.5556 15.1101 75.7336 15.4185 75.8773C15.5487 75.9458 15.7063 76.0348 15.7611 76.0827C15.8845 76.1854 17.5359 76.9383 17.6387 76.9383C17.6799 76.9383 17.8306 76.9999 17.9745 77.0752C18.1184 77.1505 18.3925 77.2463 18.5844 77.2874C18.7763 77.3285 19.0572 77.4243 19.2148 77.4928C19.3725 77.5612 19.5986 77.6228 19.7219 77.6228C19.8453 77.6228 20.1194 77.6844 20.3387 77.7597C20.558 77.8419 21.0788 77.9308 21.5447 77.9719C21.997 78.0061 22.4698 78.0883 22.6069 78.1499C22.9838 78.3142 26.2045 78.3142 26.6774 78.1499C26.8624 78.0814 27.3763 77.9993 27.8286 77.9651C28.2809 77.9308 28.7606 77.8487 28.8976 77.7939C29.0278 77.7392 29.3156 77.6707 29.5281 77.6502C29.7405 77.6228 30.09 77.5338 30.3024 77.4448C30.5217 77.3559 30.7821 77.2806 30.8849 77.2806C30.9877 77.2806 31.2275 77.1984 31.4194 77.1094C31.6044 77.0136 31.8237 76.9383 31.9059 76.9383C31.9882 76.9383 32.1869 76.863 32.3582 76.774C32.5295 76.685 32.7625 76.5892 32.879 76.5687C32.9955 76.5413 33.1257 76.4728 33.1668 76.4249C33.2148 76.3702 33.3518 76.3086 33.4752 76.2812C33.6054 76.2607 33.8041 76.1648 33.9275 76.0758C34.0508 75.9869 34.2084 75.9116 34.2701 75.9116C34.3386 75.9116 34.4825 75.8363 34.5922 75.7404C34.7087 75.6446 34.8457 75.5693 34.9005 75.5693C34.9553 75.5693 35.0787 75.5009 35.1815 75.4256C35.4145 75.2407 35.8668 75.1244 35.8119 75.2613C35.7914 75.316 35.7434 75.4803 35.7023 75.6378C35.6612 75.7952 35.5858 75.9321 35.5378 75.9526C35.435 75.9937 34.8046 77.219 34.6333 77.705C34.5785 77.8624 34.4894 78.0404 34.4414 78.102C34.3934 78.1567 34.3318 78.3142 34.3043 78.4442C34.2838 78.5743 34.1879 78.8344 34.0919 79.0192C33.996 79.204 33.9206 79.4231 33.9206 79.5052C33.9206 79.5873 33.8589 79.7722 33.7904 79.9228C33.715 80.0665 33.6259 80.3745 33.5848 80.5936C33.5437 80.8126 33.4752 81.0385 33.4341 81.0864C33.3998 81.1343 33.3176 81.4629 33.2696 81.812C33.2148 82.1679 33.1188 82.5923 33.0572 82.7566C32.7694 83.5369 32.7694 89.0335 33.0572 89.807C33.1188 89.9781 33.2079 90.3615 33.249 90.6626C33.2833 90.9638 33.3724 91.3335 33.4341 91.4841C33.5026 91.6415 33.578 91.8879 33.6054 92.0317C33.6328 92.1822 33.715 92.4355 33.7904 92.5929C33.8589 92.7504 33.9206 92.9215 33.9206 92.9763C33.9206 93.031 33.996 93.2158 34.0919 93.3938C34.1879 93.5718 34.2632 93.7566 34.2632 93.8114C34.2632 93.8593 34.4688 94.2974 34.7155 94.7834C34.9691 95.2625 35.2363 95.7827 35.3117 95.9333C35.3939 96.0839 35.483 96.2208 35.5173 96.2345C35.5515 96.2482 35.6338 96.3851 35.7091 96.5425C35.7777 96.6931 35.949 96.9601 36.0792 97.1312C36.2094 97.3023 36.3601 97.5145 36.4013 97.6104C36.4492 97.7062 36.552 97.8499 36.6274 97.9321C36.8056 98.1306 36.9084 98.247 37.6142 99.0752C38.2172 99.7734 38.8682 100.403 39.1903 100.609C39.2931 100.67 39.5398 100.862 39.7453 101.033C40.1771 101.389 40.6499 101.717 40.739 101.717C40.7732 101.717 40.8623 101.779 40.9377 101.847C41.1227 102.012 42.5412 102.744 42.6851 102.744C42.7468 102.744 42.8976 102.806 43.0209 102.881C43.1374 102.956 43.3704 103.038 43.5349 103.059C43.6925 103.086 43.9392 103.169 44.0899 103.237C44.2338 103.312 44.5902 103.394 44.878 103.429C45.1658 103.456 45.4879 103.518 45.6044 103.559C45.8168 103.648 47.2764 103.771 47.9 103.757C48.1056 103.757 48.6127 103.73 49.0307 103.696ZM71.1304 100.513C70.7124 100.348 70.6439 100.294 70.4383 99.9445L70.2053 99.5681L70.2122 98.6303C70.2122 97.8226 70.2327 97.6651 70.3561 97.4598C70.4315 97.3297 70.5137 97.1175 70.5411 96.9806C70.5617 96.8506 70.7124 96.4809 70.8769 96.1661C71.1304 95.6732 71.1921 95.5911 71.3292 95.6116C71.5347 95.6322 71.8637 95.9128 72.1583 96.3372C72.2885 96.5152 72.4804 96.7616 72.5763 96.8848C72.6791 97.0012 72.7819 97.1928 72.8025 97.3092C72.8299 97.4324 72.9121 97.583 72.9875 97.6514C73.056 97.7131 73.1177 97.8226 73.1177 97.891C73.1177 97.9595 73.1931 98.2538 73.289 98.5413C73.5083 99.219 73.5083 99.5201 73.2685 99.9924C73.0834 100.355 72.8573 100.54 72.3639 100.697C72.1035 100.78 71.6512 100.711 71.1304 100.513ZM13.3079 43.1032C13.0886 42.891 13.0201 42.7541 12.9241 42.3366C12.7528 41.6178 12.8487 41.1798 13.2393 40.8375C13.5683 40.5432 13.7259 40.4953 14.2056 40.5363C14.7195 40.5774 15.6789 40.9676 16.5149 41.4672C17.022 41.7753 17.4057 42.1997 17.4057 42.4666C17.4057 42.583 16.837 42.9868 16.6657 42.9868C16.604 42.9868 16.4121 43.0553 16.2408 43.1374C15.768 43.3565 15.5281 43.3907 14.5139 43.377L13.5751 43.3633L13.3079 43.1032Z" fill="#E59D47"/>
<path d="M12.6774 103.545C12.6979 103.525 13.02 103.477 13.3969 103.442C14.2329 103.353 15.0621 103.073 15.1101 102.854C15.1854 102.539 15.4184 100.335 15.4595 99.5955C15.487 99.0479 15.5418 98.7262 15.6309 98.5346C15.6994 98.384 15.7885 98.0486 15.8227 97.7885C15.857 97.5352 15.9324 97.2751 15.9872 97.2066C16.042 97.145 16.138 96.9465 16.2065 96.7549C16.2682 96.57 16.4121 96.2757 16.5217 96.1046C16.6313 95.9334 16.7684 95.687 16.8369 95.557C16.8986 95.4269 17.0151 95.2489 17.0905 95.16C17.2001 95.0367 17.2344 94.9067 17.2344 94.5576C17.2344 93.9689 17.1042 93.8457 16.4874 93.8457C16.0489 93.8457 15.624 93.9347 15.5623 94.0442C15.4801 94.1743 13.9931 94.9409 13.8149 94.9409C13.7601 94.9409 13.5682 95.0025 13.39 95.0778C13.2119 95.1531 12.835 95.2489 12.5472 95.29C12.2594 95.3242 11.9167 95.3995 11.7865 95.4474C11.533 95.5433 10.9985 95.598 9.62795 95.6596C8.65487 95.7076 8.4767 95.7349 8.14092 95.9061C7.93534 96.0087 7.87367 96.0909 7.812 96.3305C7.77088 96.4879 7.6818 96.7275 7.62012 96.8575C7.52419 97.0629 7.50363 97.3298 7.50363 98.5688C7.50363 99.9652 7.51048 100.054 7.65439 100.328C7.74347 100.485 7.812 100.657 7.812 100.711C7.812 100.759 7.93534 100.985 8.07925 101.218C8.33965 101.608 8.37391 101.635 8.75081 101.724L9.14826 101.82L9.23049 102.19C9.29217 102.477 9.36069 102.601 9.56627 102.765C9.98428 103.114 10.601 103.374 11.1698 103.436C12.1497 103.545 12.6431 103.579 12.6774 103.545Z" fill="#E59D47"/>
<path d="M20.9828 103.442C21.2706 103.319 21.5173 102.696 21.3186 102.573C21.2843 102.552 21.2158 102.422 21.1678 102.279C21.1199 102.135 20.8663 101.786 20.5785 101.478C20.3044 101.177 20.0783 100.896 20.0783 100.862C20.0783 100.821 20.0029 100.684 19.9138 100.567C19.8247 100.444 19.7356 100.218 19.7082 100.068C19.6877 99.9171 19.6054 99.6843 19.5301 99.5406C19.4067 99.3215 19.393 99.1573 19.393 98.1784C19.393 97.227 19.4136 97.0148 19.5301 96.7067C19.6054 96.5082 19.6877 96.1728 19.7151 95.9675C19.7356 95.7621 19.8316 95.4404 19.9207 95.2487C20.0029 95.0639 20.0783 94.838 20.0783 94.7627C20.0783 94.6806 20.1399 94.5437 20.2085 94.4479C20.2838 94.3589 20.3729 94.1467 20.4209 93.9824C20.4689 93.8113 20.5442 93.6265 20.5991 93.5648C20.647 93.5101 20.7293 93.3527 20.7704 93.2226C20.8183 93.0925 20.8869 92.9419 20.9348 92.8872C20.9828 92.8324 21.1541 92.5449 21.3186 92.2506C22.0381 90.9774 22.2231 90.7173 23.2442 89.4784C23.7787 88.8349 23.9157 88.6227 23.9569 88.39C24.0254 87.9382 23.9294 87.5617 23.6759 87.2811C23.4498 87.0415 23.4429 87.0347 22.9084 87.0347H22.367L21.9216 87.3975C21.6818 87.596 21.4214 87.815 21.346 87.8766C21.2706 87.9382 21.0719 88.0957 20.9006 88.2257C20.7293 88.3489 20.5442 88.4995 20.4894 88.5474C20.1399 88.8691 17.6387 90.3477 17.2687 90.4572C17.1727 90.4846 17.0014 90.5599 16.8918 90.6283C16.7753 90.6968 16.5766 90.7721 16.4464 90.7994C16.3162 90.8268 16.1106 90.9021 16.0009 90.9706C15.8844 91.039 15.6103 91.128 15.3842 91.1759C15.1581 91.217 14.8771 91.2991 14.7675 91.3471C14.651 91.4018 14.1576 91.4771 13.6642 91.5182C12.513 91.614 11.4508 91.5182 10.93 91.2718C10.7313 91.1828 10.5462 91.1075 10.5188 91.1075C10.416 91.1075 9.75819 90.6352 9.29221 90.2245C8.69603 89.6974 8.27117 89.5673 7.75037 89.7453C7.50367 89.8343 7.43515 90.0123 7.48312 90.4435C7.52423 90.7858 7.81204 91.2238 8.31914 91.7304C8.79882 92.2027 9.03181 92.3738 9.28536 92.4354C9.395 92.4628 9.53891 92.5312 9.59373 92.5792C9.64855 92.6271 9.80616 92.7024 9.93636 92.7434C10.0666 92.7777 10.3612 92.8803 10.5874 92.9625C10.9643 93.0925 11.1013 93.1062 12.1635 93.0788C13.3627 93.0446 13.7738 92.9762 15.0758 92.5792C15.3568 92.4902 15.6994 92.4012 15.8296 92.3738C15.9598 92.3464 16.1448 92.2643 16.2339 92.1958C16.323 92.1205 16.4601 92.0658 16.5423 92.0658C16.6177 92.0658 16.837 91.9905 17.0288 91.8947C17.2139 91.8057 17.4126 91.7235 17.4674 91.7235C17.5222 91.7235 17.6935 91.6482 17.8443 91.5592C18.0019 91.4703 18.2143 91.3813 18.3308 91.3539C18.4405 91.3265 18.5707 91.2718 18.6187 91.2307C18.694 91.1759 19.4273 90.7789 20.1811 90.3956C20.3318 90.3203 20.4963 90.2176 20.5442 90.1697C20.6265 90.0876 20.9006 90.0396 20.9006 90.1081C20.9006 90.2039 20.4072 91.1691 20.3181 91.2444C20.2633 91.2923 20.2153 91.3676 20.2153 91.4155C20.2153 91.4566 20.0646 91.7851 19.8864 92.1411C19.7014 92.497 19.5095 92.9077 19.4615 93.0583C19.4136 93.2089 19.3313 93.38 19.2834 93.4416C19.2285 93.4964 19.1669 93.6538 19.1463 93.7839C19.1189 93.9139 19.023 94.1535 18.9407 94.3246C18.8516 94.4958 18.7763 94.6874 18.7763 94.7559C18.7763 94.8243 18.7009 95.0502 18.6118 95.2693C18.5227 95.4815 18.4268 95.7826 18.3994 95.9332C18.372 96.077 18.3103 96.2823 18.2623 96.385C18.2075 96.4808 18.1321 96.8368 18.0979 97.1722C18.0567 97.5076 17.9882 98.0347 17.9402 98.3495C17.8786 98.7876 17.8854 99.0683 17.9471 99.6159C18.0636 100.519 18.1458 100.903 18.2623 101.033C18.3103 101.088 18.3857 101.266 18.4268 101.423C18.4747 101.58 18.5364 101.731 18.5707 101.752C18.6118 101.779 18.6872 101.909 18.742 102.039C18.8516 102.292 19.3793 102.854 19.8042 103.162C20.2016 103.456 20.6744 103.565 20.9828 103.442Z" fill="#E59D47"/>
<path d="M104.297 103.381C104.455 103.326 104.708 103.073 104.708 102.977C104.708 102.833 104.414 102.819 101.316 102.785C99.6922 102.765 97.7392 102.717 96.9648 102.683C95.6012 102.614 94.4088 102.587 89.8724 102.498C88.3716 102.47 87.5493 102.429 87.2683 102.361C87.0422 102.313 86.3981 102.224 85.843 102.169C85.2811 102.114 84.7808 102.032 84.7329 101.991C84.6849 101.95 84.3423 101.875 83.9654 101.827C83.5953 101.779 83.191 101.69 83.0745 101.628C82.9512 101.56 82.7045 101.491 82.5263 101.471C82.3413 101.444 82.0466 101.355 81.8616 101.266C81.6697 101.177 81.471 101.101 81.4025 101.101C81.3408 101.101 81.2517 101.06 81.2106 101.005C81.1695 100.958 80.9639 100.862 80.7583 100.793C80.5528 100.732 80.3061 100.615 80.2101 100.54C79.9566 100.341 79.7304 100.424 79.5523 100.773C79.47 100.93 79.3604 101.101 79.3124 101.156C79.2576 101.211 79.1617 101.348 79.1069 101.464C79.0452 101.58 78.8944 101.82 78.7642 101.998C78.6409 102.176 78.4901 102.429 78.4284 102.552C78.3736 102.676 78.2434 102.888 78.1475 103.018C77.9899 103.237 77.983 103.257 78.0927 103.34C78.1886 103.408 80.7789 103.429 91.2018 103.422C98.3491 103.422 104.242 103.401 104.297 103.381Z" fill="#E59D47"/>
<path d="M30.5697 102.854C30.5902 102.833 30.8301 102.785 31.1042 102.744C31.3783 102.71 31.7346 102.614 31.8991 102.539C32.0635 102.463 32.228 102.402 32.2691 102.402C32.4062 102.402 33.064 101.567 33.1737 101.252C33.2422 101.074 33.345 100.793 33.4066 100.622C33.578 100.164 33.53 98.8698 33.3244 98.6166C33.249 98.5139 33.16 98.3291 33.1394 98.199C33.0914 97.9594 32.5706 97.405 32.3925 97.405C32.3376 97.405 32.2006 97.5966 32.0841 97.8225C31.8922 98.1922 31.8648 98.3154 31.8648 98.7945V99.3353L32.1389 99.5886C32.2897 99.7255 32.413 99.8829 32.413 99.9445C32.413 100.15 32.0498 100.396 31.6935 100.444C31.5016 100.465 31.2275 100.533 31.0768 100.588C30.6724 100.732 29.905 100.718 29.3979 100.554C29.1649 100.478 28.8702 100.417 28.7537 100.417C28.6372 100.417 28.4316 100.362 28.3014 100.287C28.1712 100.218 27.9862 100.136 27.8903 100.109C27.6093 100.027 27.0543 99.6296 26.7185 99.2737C26.136 98.6508 25.7865 98.1922 25.7385 97.98C25.7111 97.8568 25.6289 97.7062 25.5604 97.6446C25.485 97.5761 25.4165 97.3845 25.3891 97.1791C25.3617 96.9806 25.2794 96.7342 25.204 96.6315C25.1013 96.4946 25.0533 96.255 25.0053 95.7211C24.9711 95.3241 24.8957 94.708 24.8409 94.3521C24.7449 93.7634 24.7449 93.6334 24.834 93.0926C24.8957 92.7572 24.9642 92.2164 24.9848 91.881C25.0122 91.4703 25.0807 91.1623 25.1903 90.909C25.2794 90.7105 25.3548 90.4778 25.3548 90.3957C25.3548 90.3204 25.4302 90.0945 25.5193 89.9028C25.6083 89.7111 25.7043 89.451 25.7317 89.321C25.7591 89.1909 25.8208 89.0403 25.8756 88.9856C25.9236 88.924 26.0127 88.7392 26.0743 88.5749C26.136 88.4106 26.2251 88.2258 26.2731 88.1642C26.321 88.1094 26.4033 87.9451 26.4444 87.8082C26.4923 87.6645 26.5609 87.5344 26.5883 87.5139C26.6225 87.4934 26.7185 87.3428 26.7939 87.1853C27.0748 86.624 27.2393 86.3365 27.3421 86.227C27.3969 86.1723 27.5339 85.9669 27.6504 85.7684C27.7601 85.5767 27.9931 85.2413 28.1644 85.0223C28.3357 84.8032 28.5276 84.5363 28.5892 84.4268C28.7194 84.2146 29.5623 83.1057 29.8227 82.8182C29.9118 82.7223 30.1037 82.5033 30.2544 82.339C30.412 82.1747 30.7478 81.7777 31.0082 81.456C31.2686 81.1343 31.5359 80.8263 31.5976 80.7715C31.6592 80.7167 31.8648 80.484 32.0635 80.2513L32.413 79.8337V79.2451C32.413 78.5606 32.3719 78.5126 31.8168 78.5195C31.3029 78.5195 30.9671 78.7043 30.3093 79.3272C29.9803 79.6421 29.5966 79.9775 29.4664 80.0802C29.2608 80.2308 28.9456 80.4909 28.2672 81.059C28.1918 81.1275 27.9931 81.3054 27.8218 81.456C27.6504 81.6135 27.3421 81.853 27.1365 81.9899C26.9309 82.1268 26.6637 82.3116 26.5472 82.4075C26.0538 82.8045 25.4919 83.1878 24.6695 83.6807C24.416 83.8312 24.1282 84.0229 24.0185 84.1119C23.9157 84.194 23.7787 84.2625 23.7102 84.2625C23.6416 84.2625 23.5114 84.3241 23.4155 84.3994C23.3196 84.4815 23.1345 84.5774 23.0112 84.6184C22.8879 84.6595 22.7371 84.7348 22.6823 84.7827C22.6206 84.8306 22.4424 84.9196 22.2848 84.9744C22.1204 85.036 21.9216 85.125 21.8394 85.1866C21.7572 85.2413 21.6338 85.2892 21.5721 85.2892C21.5036 85.2892 21.298 85.3645 21.1199 85.4535C20.9417 85.5425 20.6607 85.6383 20.4894 85.6657C20.3181 85.6931 20.0851 85.7616 19.9755 85.8232C19.7356 85.9464 18.0636 86.1723 17.3715 86.1723C16.604 86.1723 14.6921 85.9395 14.5139 85.8232C14.4248 85.7616 14.2124 85.6931 14.0479 85.6657C13.8766 85.6383 13.5066 85.4878 13.2256 85.3372C12.9447 85.1866 12.6295 85.0223 12.5267 84.9675C12.1635 84.7827 10.8957 83.4342 10.8957 83.2426C10.8957 83.1947 10.8204 83.0167 10.7244 82.8387C10.6285 82.6607 10.5531 82.4417 10.5531 82.3459C10.5531 82.25 10.5051 82.0036 10.4503 81.7983C10.1831 80.8194 10.1762 80.7715 10.3749 79.9022C10.4777 79.4573 10.5805 79.026 10.5942 78.9439C10.6079 78.8549 10.7176 78.7385 10.8341 78.6838C11.0602 78.5674 11.0808 78.5742 11.4097 78.896C11.6016 79.0876 12.1018 79.1424 12.7391 79.0397C13.1571 78.9713 13.2667 78.9233 13.3832 78.7728C13.4997 78.6153 13.5066 78.5606 13.4381 78.3894C13.2325 77.9034 12.0538 77.4448 11.163 77.4996C10.7107 77.5338 9.84043 77.7255 9.66226 77.835C9.60744 77.8692 9.43612 77.9582 9.28537 78.0403C8.91532 78.2388 8.64122 78.5879 8.39452 79.1629C8.1958 79.6352 8.1958 79.6626 8.18894 80.9426C8.18894 82.1337 8.20265 82.2637 8.33285 82.517C8.41508 82.6676 8.49731 82.8866 8.52472 82.9962C8.59325 83.2836 9.24425 84.2283 9.71708 84.7211C10.0871 85.1044 10.7176 85.5973 11.1698 85.8437C11.2795 85.9053 11.4371 86.0011 11.5262 86.0559C11.7455 86.1996 12.7322 86.5898 12.8761 86.5898C12.9378 86.5898 13.0543 86.6377 13.1297 86.6856C13.2119 86.7404 13.486 86.8225 13.7464 86.8636C14.0068 86.9115 14.4523 86.9937 14.7332 87.0484C15.5487 87.2127 16.9124 87.2401 17.6798 87.1032C18.0362 87.0416 18.605 86.9594 18.9407 86.9252C19.2765 86.891 19.6808 86.802 19.8316 86.7336C19.9892 86.6651 20.2496 86.5898 20.4209 86.5624C20.5854 86.535 20.8595 86.4529 21.0239 86.3845C21.1953 86.3092 21.3734 86.2476 21.4351 86.2476C21.4899 86.2476 21.7092 86.1723 21.9216 86.0764C22.1341 85.9874 22.4356 85.8779 22.5932 85.8368C22.7577 85.7958 22.8879 85.7342 22.8879 85.6999C22.8879 85.6657 23.0181 85.6041 23.1757 85.5562C23.3401 85.5151 23.5183 85.4398 23.58 85.3851C23.6348 85.3372 23.7924 85.255 23.9226 85.2139C24.0528 85.166 24.2036 85.0907 24.2584 85.0428C24.3201 84.9949 24.4982 84.9059 24.6558 84.8512C24.8134 84.7964 24.9779 84.7143 25.0259 84.6732C25.0738 84.6321 25.3411 84.4678 25.6152 84.3104C26.8007 83.6327 27.068 83.4685 27.1502 83.3316C27.2187 83.2289 28.1027 82.8113 28.1507 82.8593C28.1918 82.9003 27.9314 83.4069 27.7601 83.6122C27.623 83.7696 27.3763 84.153 27.0954 84.639C26.9857 84.8306 26.8555 85.0428 26.8144 85.1181C26.7664 85.1934 26.5883 85.5151 26.417 85.8368C26.2456 86.1586 26.0743 86.4666 26.0332 86.5214C25.9989 86.5761 25.9236 86.7336 25.8619 86.8636C25.7454 87.1237 25.6015 87.4523 25.3342 88.0273C25.2383 88.2326 25.1355 88.4996 25.1081 88.6091C25.0807 88.7255 25.0053 88.924 24.9368 89.054C24.7929 89.3415 24.6284 89.8207 24.4845 90.3888C24.4297 90.6147 24.3269 90.9843 24.2584 91.2102C24.183 91.4361 24.0939 91.8947 24.0528 92.2301C24.0117 92.5655 23.9363 93.0242 23.8815 93.2569C23.7513 93.8113 23.7513 95.2214 23.8815 95.7416C23.9363 95.9607 24.0117 96.3919 24.0459 96.7068C24.1213 97.2955 24.3817 98.2195 24.601 98.6371C24.6627 98.7672 24.7449 98.9725 24.7655 99.0957C24.7929 99.2121 24.8614 99.349 24.9162 99.3969C24.9779 99.4448 25.0738 99.6023 25.1287 99.746C25.1835 99.8897 25.252 100.006 25.2794 100.006C25.3137 100.006 25.3685 100.088 25.4165 100.184C25.6289 100.656 26.7596 101.82 27.1845 102.005C27.2872 102.053 27.4723 102.162 27.5888 102.244C27.7053 102.333 27.8218 102.402 27.8492 102.402C27.8766 102.402 28.0342 102.463 28.2055 102.539C28.6235 102.73 30.4463 102.977 30.5697 102.854Z" fill="#E59D47"/>
<path d="M104.619 101.06C104.708 100.999 104.777 100.923 104.777 100.889C104.777 100.745 104.414 100.608 103.941 100.581C103.667 100.561 103.043 100.519 102.557 100.478C102.063 100.444 101.412 100.417 101.104 100.417C100.741 100.417 100.405 100.369 100.124 100.28C99.8978 100.211 99.4661 100.129 99.1782 100.102C98.8836 100.075 98.5204 99.9993 98.3696 99.9308C98.2189 99.8692 97.89 99.7871 97.6501 99.7597C97.4034 99.7323 97.0608 99.6433 96.8826 99.5543C96.7044 99.4654 96.4578 99.3901 96.3344 99.3901C96.2111 99.3901 95.9507 99.3079 95.7656 99.2189C95.5738 99.1231 95.3476 99.0478 95.2585 99.0478C95.1626 99.0478 95.0393 98.9999 94.9776 98.9451C94.9228 98.8904 94.6966 98.8014 94.4773 98.7466C94.2581 98.6919 94.0045 98.5823 93.9017 98.5002C93.8058 98.4249 93.655 98.3633 93.5659 98.3633C93.4769 98.3633 93.2918 98.288 93.1548 98.1922C93.0177 98.0964 92.8533 98.0211 92.7916 98.0211C92.7231 98.0211 92.5723 97.9458 92.4421 97.8499C92.3119 97.7541 92.1543 97.6788 92.0858 97.6788C92.0172 97.6788 91.8939 97.6035 91.8117 97.5077C91.7294 97.4118 91.6129 97.3366 91.5581 97.3366C91.4964 97.3366 91.2155 97.186 90.9345 96.9943C90.6536 96.8095 90.3795 96.652 90.3315 96.652C90.2904 96.652 90.1944 96.5973 90.1259 96.5357C90.0094 96.4125 89.8381 96.2893 89.3584 95.9675C88.8034 95.5911 88.6937 95.5089 88.3648 95.2146C87.6316 94.5575 85.9527 92.8325 85.658 92.4423C85.3702 92.059 84.8288 91.3814 84.5479 91.0733C84.4862 90.998 84.2326 90.7037 83.9997 90.423C83.0471 89.2799 81.7109 88.1847 80.7584 87.7603C80.1348 87.4797 79.7579 87.3428 79.6345 87.3428C79.5523 87.3428 79.2919 87.2743 79.0589 87.1922C78.6889 87.069 78.4764 87.0484 77.3526 87.0416C76.6536 87.0347 76.0506 87.0621 76.0163 87.0895C75.9889 87.1237 75.9615 87.4523 75.9615 87.8219C75.9615 88.7392 75.9615 88.7323 77.0031 88.746C78.0379 88.7597 79.5112 88.9856 79.8333 89.1841C79.9635 89.2594 80.1211 89.3278 80.1827 89.3278C80.2992 89.3278 81.1215 89.7249 81.2723 89.8618C81.3271 89.9097 81.5259 90.0466 81.7177 90.1629C82.5058 90.6626 84.1299 92.2301 84.959 93.2911C85.5072 93.9962 87.3643 95.9333 88.0838 96.5494C88.3031 96.741 88.5704 96.9669 88.6732 97.0627C89.0226 97.3708 90.4343 98.2949 90.5645 98.2949C90.6056 98.2949 90.6878 98.3428 90.7358 98.4044C90.7906 98.466 90.9551 98.5755 91.1058 98.644C91.2566 98.7124 91.4279 98.8014 91.4827 98.8356C91.6815 98.9588 92.5038 99.3216 92.586 99.3216C92.6271 99.3216 92.7642 99.3832 92.8807 99.4517C92.9972 99.5201 93.2027 99.6023 93.3329 99.6296C93.4631 99.657 93.6687 99.7323 93.7852 99.8008C93.9017 99.8692 94.1347 99.9445 94.2992 99.9719C94.4636 99.9993 94.7446 100.075 94.9159 100.143C95.0872 100.211 95.375 100.287 95.5669 100.314C95.7519 100.342 96.0946 100.417 96.3276 100.485C96.5605 100.561 97.0197 100.636 97.3554 100.663C97.6844 100.684 98.1298 100.766 98.3354 100.834C98.6369 100.93 99.1234 100.971 100.597 101.033C104.105 101.183 104.448 101.183 104.619 101.06Z" fill="#E59D47"/>
<path d="M48.1672 79.4367C48.5236 79.3409 48.921 79.1972 49.0581 79.1082C49.5309 78.7933 50.1408 78.1293 50.3669 77.6844C50.4834 77.4448 50.6205 77.1779 50.6753 77.0889C50.874 76.733 50.8534 74.1934 50.6479 74.0702C50.6068 74.0428 50.5314 73.9128 50.4766 73.7759C50.4149 73.639 50.2915 73.4063 50.1956 73.2625C49.99 72.9613 49.2773 72.2837 49.1608 72.2837C49.1197 72.2837 48.9347 72.2015 48.7497 72.0989C48.4345 71.9209 48.3659 71.9072 47.5231 71.9072C46.735 71.9072 46.6048 71.9209 46.3924 72.0509C46.2622 72.1331 46.0566 72.2221 45.947 72.2426C45.8305 72.27 45.5975 72.4479 45.3919 72.6601C44.9396 73.1325 44.8574 73.4199 44.8985 74.3509C44.9259 74.9738 44.9602 75.1038 45.1521 75.4803C45.4193 76.0005 45.9607 76.5413 46.4403 76.774C46.7556 76.9315 46.8652 76.952 47.3655 76.9246C48.0987 76.8972 48.503 76.7056 48.7908 76.2538C49.0444 75.8568 49.0786 75.2955 48.8662 75.1107C48.6195 74.8985 48.0165 74.6794 47.7972 74.7205C47.3586 74.8026 46.8858 75.0833 46.687 75.3776C46.5774 75.5419 46.4472 75.672 46.3992 75.672C46.3513 75.672 46.2142 75.5351 46.0909 75.3776C45.8168 74.9943 45.7893 74.4809 46.0292 74.1729C46.1183 74.0634 46.1868 73.9196 46.1868 73.8512C46.1868 73.7348 46.3101 73.5979 46.9063 73.0435C47.1188 72.8518 47.6944 72.7423 48.1741 72.8039C49.0855 72.9271 50.0928 74.1866 50.0928 75.1997C50.0928 75.5145 49.8667 76.2333 49.6542 76.5824C49.3185 77.1437 48.1124 78.102 47.7492 78.102C47.6944 78.102 47.5299 78.1704 47.386 78.2526C47.1393 78.3895 47.016 78.4031 46.0429 78.41C45.1452 78.41 44.9465 78.3895 44.8437 78.3005C44.7683 78.2389 44.6038 78.1499 44.4736 78.1088C44.1653 78.013 43.5348 77.4106 43.2813 76.9794C43.1716 76.7946 43.0483 76.4865 43.0003 76.2949C42.9455 76.1032 42.8633 75.8226 42.8016 75.672C42.6577 75.2886 42.6645 74.8848 42.829 74.5015C42.9112 74.3235 42.9935 74.036 43.014 73.8649C43.0346 73.6937 43.1237 73.4268 43.2128 73.2694C43.3018 73.1188 43.3772 72.9271 43.3772 72.845C43.3772 72.7628 43.4389 72.6328 43.5211 72.5506C43.5965 72.4753 43.6924 72.311 43.7336 72.1947C43.7747 72.0715 43.8706 71.9072 43.946 71.825C44.1036 71.6471 44.2132 71.4691 44.3983 71.0721C44.4736 70.9078 44.5696 70.7778 44.6107 70.7778C44.6518 70.7778 44.7409 70.6409 44.8163 70.4697C44.8917 70.2986 44.9807 70.1617 45.015 70.1617C45.0493 70.1617 45.1041 70.0933 45.1315 70.0111C45.1589 69.9221 45.248 69.7647 45.3371 69.662C45.4262 69.5525 45.5015 69.4224 45.5015 69.3745C45.5015 69.3266 45.5632 69.2102 45.6386 69.1213C45.9675 68.7379 46.1868 68.4231 46.1868 68.3409C46.1868 68.293 46.2759 68.1493 46.3855 68.026C46.4883 67.9028 46.6802 67.6222 46.8035 67.41C46.92 67.1909 47.0434 67.013 47.0708 67.013C47.1188 67.013 47.5436 66.3969 47.619 66.2258C47.6327 66.1916 47.7766 66.0068 47.9342 65.8151C48.0987 65.6303 48.2769 65.3565 48.3317 65.2196C48.3934 65.0758 48.4687 64.9595 48.5098 64.9595C48.6195 64.9595 48.9964 64.2339 48.9964 64.0217C48.9964 63.7684 48.8456 63.6315 48.64 63.6863C48.3522 63.7547 47.1941 64.9458 46.4952 65.8767C46.2964 66.1437 45.9744 66.5338 45.7825 66.7392C45.5838 66.9445 45.3782 67.2115 45.3165 67.321C45.2617 67.4374 45.063 67.7043 44.8779 67.9165C44.6929 68.1287 44.5422 68.3204 44.5422 68.3478C44.5422 68.3683 44.4668 68.4915 44.3709 68.6147C44.2749 68.7379 44.1995 68.868 44.1995 68.9091C44.1995 68.9433 44.1242 69.046 44.0282 69.1349C43.9323 69.2239 43.8569 69.3334 43.8569 69.3745C43.8569 69.4224 43.7884 69.5456 43.7061 69.6483C43.528 69.8811 43.4252 70.059 43.0346 70.8462C42.5138 71.8867 42.4178 72.1057 42.4178 72.2289C42.4178 72.3042 42.3562 72.4822 42.2739 72.6396C42.0821 73.0092 41.9861 74.0155 42.041 75.0217C42.0821 75.672 42.1163 75.8636 42.2534 76.1101C42.3425 76.2743 42.4178 76.4455 42.4178 76.4934C42.4178 76.6577 42.8838 77.2669 43.4183 77.7939C44.0693 78.4374 44.2132 78.5469 44.8505 78.8891C45.1178 79.026 45.3576 79.1629 45.3987 79.1972C45.4604 79.2451 45.6797 79.2998 46.8378 79.5463C47.249 79.6284 47.4614 79.6147 48.1672 79.4367Z" fill="#E59D47"/>
<path d="M36.97 68.8544C37.0797 68.8201 37.4223 68.7585 37.7238 68.7175C38.0596 68.6695 38.3337 68.5874 38.4365 68.5121C38.5256 68.4368 38.6626 68.3821 38.738 68.3821C38.9093 68.3821 40.5197 67.6017 40.6293 67.4648C40.6773 67.4101 40.8006 67.3416 40.9103 67.3211C41.0131 67.3005 41.157 67.2184 41.2255 67.1431C41.2872 67.0746 41.3694 67.013 41.4105 67.013C41.4448 67.013 41.5613 66.9377 41.6778 66.8419C41.7874 66.7461 41.9245 66.6708 41.9724 66.6708C42.0204 66.6708 42.2466 66.527 42.4658 66.3422C42.6851 66.1643 43.014 65.911 43.2059 65.7878C43.5211 65.5687 44.1379 65.069 44.5216 64.7199C44.7478 64.5214 44.878 64.4119 45.3302 64.0697C46.5706 63.1251 47.2969 62.331 47.1873 62.0367C47.1325 61.8929 46.4267 61.9203 46.2759 62.0709C46.2074 62.1394 46.0772 62.2283 45.9812 62.2694C45.8305 62.331 45.1658 62.8239 44.8163 63.1251C44.7615 63.173 44.6381 63.2483 44.5422 63.2893C44.4462 63.3304 44.1858 63.5084 43.9734 63.6863C43.761 63.8575 43.5623 64.0012 43.5417 64.0012C43.4663 64.0012 42.7948 64.4598 42.6988 64.5762C42.644 64.6378 42.5823 64.6857 42.5481 64.6857C42.4727 64.6857 41.7737 65.117 41.7463 65.1854C41.7326 65.2128 41.6024 65.2949 41.4585 65.3702C41.3146 65.4455 41.0542 65.603 40.876 65.7262C40.6979 65.8494 40.5197 65.9726 40.4717 66C40.4306 66.0274 40.2045 66.1574 39.9646 66.3012C39.7316 66.4381 39.5398 66.575 39.5398 66.6023C39.5398 66.6297 39.4233 66.6982 39.2794 66.7598C39.1423 66.8214 38.9025 66.9514 38.7517 67.0473C38.5119 67.1979 38.3131 67.2937 37.5182 67.6565C37.4017 67.7112 37.0591 67.8344 36.7576 67.9303C35.9627 68.1835 35.4008 68.1699 34.5647 67.8892C33.9823 67.6975 33.8658 67.6223 33.4066 67.1979C33.0298 66.8488 32.8379 66.6092 32.6734 66.2738C32.4473 65.8152 32.4473 65.8152 32.4473 64.7542C32.4473 63.7343 32.4541 63.6795 32.6323 63.3236C32.7419 63.1182 32.8242 62.8923 32.8242 62.8307C32.8242 62.7623 32.8584 62.687 32.8927 62.6664C32.9338 62.6391 33.0503 62.4953 33.1462 62.3379C33.4546 61.845 34.0988 61.2837 34.6607 61.0168C35.1472 60.784 35.2157 60.7704 35.7434 60.7977C36.134 60.8114 36.3396 60.8525 36.4287 60.9278C36.504 60.9894 36.6685 61.0784 36.7987 61.1195C37.1619 61.2358 37.7444 61.8587 37.9362 62.331C38.1007 62.7349 38.1555 63.2072 38.039 63.2756C38.0048 63.2962 37.9568 63.4194 37.9362 63.5494C37.8609 63.9328 37.4086 64.4325 36.8878 64.7063C36.6274 64.8363 36.319 64.9664 36.2025 64.9938C35.8942 65.0554 35.5378 64.9253 35.3185 64.6652L35.1404 64.453L35.2911 64.3435C35.4899 64.2066 35.764 63.9328 35.8873 63.748C36.0244 63.5494 36.0381 62.5364 35.9147 62.2352C35.7982 61.9545 35.4282 61.8313 34.9691 61.9203C34.7018 61.9751 34.599 62.0435 34.3043 62.3858L33.9549 62.7828V63.5152C33.9549 64.2408 33.9549 64.2476 34.2084 64.6241C34.4825 65.0417 35.017 65.514 35.4967 65.7809C35.7777 65.9315 35.8805 65.9452 36.6617 65.9521C37.4771 65.9521 37.5388 65.9452 37.7444 65.7809C38.2378 65.4045 38.4433 65.2128 38.4433 65.1443C38.4433 65.1033 38.505 65.0006 38.5872 64.9185C38.6695 64.8295 38.7449 64.6241 38.7791 64.4051C38.8065 64.1997 38.8819 63.9396 38.9436 63.8164C39.0875 63.5426 39.0943 63.1319 38.9504 62.8444C38.8888 62.7212 38.8271 62.4953 38.8065 62.3379C38.786 62.1804 38.69 61.9135 38.5872 61.7424C38.3543 61.3385 37.6005 60.6061 37.3606 60.5445C37.2578 60.5239 37.1139 60.4418 37.0385 60.3733C36.9632 60.3117 36.7781 60.2296 36.6274 60.2022C36.4835 60.1748 36.2642 60.1064 36.1477 60.0448C35.8873 59.9079 34.5442 59.8873 34.3797 60.0174C34.3249 60.0653 34.0988 60.1475 33.8863 60.2022C33.4546 60.3186 33.16 60.4623 32.8927 60.6882C32.7968 60.7704 32.6392 60.8799 32.5432 60.9278C32.3582 61.0305 31.8648 61.5507 31.8648 61.6465C31.8648 61.6739 31.7826 61.8176 31.6866 61.9545C31.5907 62.0914 31.4879 62.3721 31.4536 62.5774C31.4194 62.776 31.3577 63.0908 31.3166 63.2688C31.2549 63.5221 31.2549 63.7 31.3166 64.0218C31.3646 64.2545 31.4262 64.6104 31.4605 64.8158C31.4948 65.0143 31.6044 65.3223 31.6935 65.4934C31.7894 65.6714 31.8648 65.8425 31.8648 65.8836C31.8717 66.1026 32.9475 67.4853 33.3587 67.7865C33.4957 67.8892 33.7287 68.0672 33.8795 68.1767C34.0234 68.2931 34.181 68.3821 34.229 68.3821C34.2769 68.3821 34.3934 68.4437 34.4825 68.519C34.5785 68.5874 34.7909 68.6695 34.9553 68.6969C35.1198 68.7175 35.4076 68.7791 35.5926 68.8338C35.9764 68.9433 36.6548 68.9502 36.97 68.8544Z" fill="#E59D47"/>
<path d="M23.7238 35.0809C23.8266 35.0193 23.9363 34.8961 23.9568 34.7934C23.9842 34.6976 23.9842 34.0815 23.9637 33.4244C23.9363 32.4387 23.902 32.1923 23.7924 31.9801C23.7238 31.8432 23.6416 31.5831 23.621 31.3982C23.5936 31.2203 23.4977 30.9259 23.4018 30.748C23.3058 30.57 23.2304 30.3852 23.2304 30.3304C23.2304 30.2757 23.1551 30.1182 23.0728 29.9882C22.9838 29.8513 22.8124 29.5912 22.6891 29.3995C22.2642 28.7287 21.346 27.7361 20.4551 26.9763C20.1193 26.6889 19.7219 26.3398 19.578 26.2029C19.4341 26.066 19.0298 25.7374 18.6871 25.4704C17.5153 24.5874 16.5765 23.6702 15.6583 22.5202C15.1992 21.9452 15.1101 21.8357 14.9936 21.6988C14.9319 21.6304 14.8291 21.4729 14.7606 21.3497C14.6441 21.1101 14.6304 21.1033 14.3357 20.7405C14.2261 20.6104 14.1096 20.4256 14.0822 20.3298C14.0548 20.234 13.9794 20.1039 13.9177 20.0286C13.8081 19.9054 13.6299 19.5905 13.3764 19.0566C13.301 18.8992 13.205 18.7486 13.1708 18.7281C13.1297 18.7075 13.0611 18.5706 13.0132 18.4269C12.9652 18.29 12.8761 18.0983 12.8076 18.0025C12.7459 17.9066 12.6705 17.7218 12.65 17.5849C12.6226 17.448 12.5472 17.2837 12.4718 17.2153C12.3964 17.1468 12.3348 17.0236 12.3348 16.9415C12.3348 16.8594 12.2594 16.6403 12.1634 16.4555C12.0675 16.2707 11.9716 16.0106 11.951 15.8805C11.9236 15.7505 11.8482 15.5314 11.7865 15.4014C11.718 15.2713 11.6289 14.9975 11.5878 14.799C11.5467 14.6005 11.4645 14.3404 11.4028 14.2172C11.3411 14.1008 11.2657 13.7859 11.2315 13.519C11.2041 13.2589 11.1218 12.9029 11.0465 12.7318C10.9711 12.5607 10.8957 12.1842 10.8683 11.8967C10.8477 11.6092 10.7792 11.2396 10.7244 11.0753C10.6422 10.8631 10.5805 10.1854 10.4982 8.67952C10.3886 6.74921 10.368 6.5644 10.2447 6.44118C9.8678 6.05786 9.81298 6.57809 9.92948 9.71996C9.97745 11.0274 10.0391 11.9104 10.1076 12.2184C10.1693 12.4854 10.2447 13.0467 10.2858 13.4779C10.3269 13.9091 10.416 14.4362 10.4914 14.6416C10.5599 14.8469 10.6216 15.1412 10.6216 15.285C10.6216 15.4287 10.697 15.7368 10.7861 15.9695C10.8751 16.2022 10.9848 16.5582 11.0259 16.7567C11.067 16.9552 11.1424 17.1879 11.1972 17.2701C11.252 17.3522 11.3137 17.5302 11.3411 17.6602C11.3685 17.7903 11.4645 18.0367 11.5536 18.2078C11.6426 18.379 11.718 18.5569 11.718 18.6048C11.718 18.6801 11.903 19.084 12.1771 19.6111C12.602 20.4256 12.8487 20.8637 12.9446 20.9801C13.0132 21.0554 13.1022 21.1923 13.1434 21.2881C13.2324 21.4661 13.2804 21.5345 13.9451 22.4175C14.5619 23.2321 16.3504 24.9913 18.0224 26.4219C19.2285 27.4555 19.7767 28.0236 20.7361 29.2215C20.8115 29.3174 20.9485 29.5227 21.0445 29.6733C21.1335 29.8239 21.25 30.0087 21.2912 30.084C21.3391 30.1593 21.4419 30.3578 21.5173 30.5289C21.5927 30.7001 21.716 30.9602 21.7845 31.1108C21.8531 31.2613 21.9901 31.7268 22.0929 32.1375C22.2505 32.7809 22.2711 33.0411 22.2711 33.9035V34.9166L22.5246 35.0261C22.8947 35.1836 23.4977 35.2109 23.7238 35.0809Z" fill="#E59D47"/>
<path d="M7.88058 32.9454C7.9354 32.9249 8.07246 32.8291 8.17525 32.7469C8.28489 32.658 8.40823 32.5827 8.44935 32.5758C8.49732 32.5758 8.7029 32.4526 8.90848 32.3089C9.11406 32.1583 9.39501 31.9871 9.52521 31.9255C9.65541 31.8639 9.81988 31.7681 9.88155 31.7133C9.94323 31.6586 10.094 31.5559 10.2242 31.4943C10.56 31.3095 10.6216 31.0767 10.3955 30.755C10.2996 30.6113 10.1968 30.4059 10.1694 30.2896C10.1488 30.18 10.0734 30.0226 10.0049 29.9473C9.93637 29.872 9.86785 29.7009 9.84044 29.5708C9.81988 29.4408 9.73765 29.208 9.66912 29.0575C9.59374 28.9069 9.50466 28.6125 9.46354 28.4072C9.42243 28.2018 9.34019 27.9417 9.27852 27.8322C9.2237 27.7227 9.15517 27.3804 9.12091 27.0792C9.0935 26.7712 9.01127 26.4221 8.94959 26.2921C8.86051 26.1209 8.81254 25.7787 8.76457 24.9504C8.72346 24.2385 8.66178 23.7252 8.59326 23.5403C8.4562 23.1776 8.40138 20.6791 8.326 12.3213C8.27803 7.5503 8.25748 6.84526 8.16154 6.61937C8.03819 6.32503 7.90114 6.29765 7.72297 6.53723C7.61333 6.69467 7.59962 7.38602 7.59277 19.8303C7.57907 33.8353 7.56536 33.0687 7.88058 32.9454Z" fill="#E59D47"/>
</svg>
