<svg width="113" height="110" viewBox="0 0 113 110" fill="none" xmlns="http://www.w3.org/2000/svg">
<path d="M63.9693 6.30437C63.5582 6.33176 63.0648 6.40705 62.8729 6.46181C62.6879 6.52341 62.3795 6.57133 62.2013 6.57133C62.0163 6.57133 61.6805 6.64663 61.4476 6.72877C61.2146 6.81776 60.8377 6.92728 60.6184 6.96835C60.3991 7.00941 60.1661 7.09156 60.1044 7.14632C60.0428 7.20108 59.8783 7.26269 59.7344 7.29006C59.5973 7.31744 59.4055 7.39958 59.3164 7.46803C59.2273 7.54333 59.0903 7.59809 59.0217 7.59809C58.9463 7.59809 58.7887 7.67339 58.6585 7.76922C58.5283 7.86505 58.3707 7.94035 58.3091 7.94035C58.2405 7.94035 58.1035 8.01564 57.9938 8.09778C57.891 8.18677 57.7197 8.2826 57.6169 8.30997C57.5141 8.33051 57.2675 8.48795 57.0687 8.64539C56.87 8.80967 56.6576 8.96026 56.5959 8.98079C56.3423 9.07662 55.616 9.69268 54.9307 10.384C54.1975 11.1301 53.9576 11.4245 53.7452 11.8215C53.6835 11.9447 53.6013 12.0474 53.5739 12.0474C53.5396 12.0474 53.4574 12.1637 53.3957 12.3006C53.3272 12.4444 53.2038 12.6703 53.1216 12.8003C53.0394 12.9304 52.9708 13.0878 52.9708 13.1494C52.9708 13.211 52.9092 13.3137 52.8338 13.3822C52.7584 13.4506 52.6967 13.567 52.6967 13.6423C52.6967 13.7176 52.6214 13.9435 52.5254 14.142C52.4295 14.3405 52.3335 14.6553 52.3061 14.8333C52.2856 15.0113 52.2239 15.2303 52.1691 15.3125C52.1143 15.3946 52.0457 15.6547 52.0115 15.8875C51.9772 16.1202 51.9018 16.3598 51.8402 16.4214C51.5661 16.702 46.5979 16.6815 46.0634 16.4008C45.9332 16.3324 45.6454 16.2502 45.4261 16.216C45.2 16.1818 44.8984 16.0928 44.7614 16.0175C44.6243 15.9422 44.4599 15.8806 44.405 15.8806C44.3502 15.8806 44.2063 15.819 44.083 15.7505C43.9665 15.6753 43.7061 15.5657 43.5074 15.511C43.3086 15.4494 43.1305 15.3741 43.1099 15.3467C43.0893 15.3193 42.9866 15.244 42.8838 15.1756C42.6508 15.025 42.6439 14.9086 42.8632 14.4979C42.9591 14.3199 43.0345 14.1214 43.0345 14.0598C43.0345 13.9982 43.0962 13.8476 43.1647 13.7313C43.2401 13.6149 43.336 13.3206 43.3772 13.0741C43.4183 12.8346 43.5005 12.5471 43.5622 12.4307C43.7266 12.109 43.6992 10.4867 43.5211 9.98017C43.4388 9.76113 43.3772 9.52155 43.3772 9.43941C43.3772 9.35043 43.2812 9.08347 43.1647 8.83704C42.918 8.32367 42.3972 7.78291 42.0203 7.6597C41.6708 7.54333 40.9376 7.61863 40.6978 7.7966C40.595 7.87874 40.4785 7.94035 40.4442 7.94035C40.2729 7.94035 39.2724 9.14507 39.2656 9.36411C39.2656 9.41203 39.1833 9.61053 39.0805 9.8022C38.8955 10.1581 38.8955 10.165 38.9024 11.5477C38.9092 12.903 38.9161 12.9509 39.0874 13.2795C39.1833 13.4643 39.2656 13.6902 39.2656 13.7792C39.2656 13.8682 39.3409 14.0393 39.4369 14.1693C39.5328 14.2994 39.6082 14.4363 39.6082 14.4774C39.6082 14.5253 39.8412 14.7991 40.1221 15.0866C40.8828 15.8738 40.8759 15.9422 40.0605 16.394C39.759 16.5651 39.4574 16.7362 39.4026 16.7705C39.0326 16.9963 38.3268 17.2017 37.6209 17.2907C36.9425 17.3728 36.7301 17.3728 36.0448 17.2907C35.0649 17.1675 34.7017 17.0237 33.7972 16.4077C33.2901 16.0654 32.4129 15.0797 32.4129 14.8538C32.4129 14.7922 32.3444 14.6485 32.2622 14.539C32.1114 14.3542 32.1046 14.2789 32.1046 13.3137C32.1046 12.2185 32.1183 12.1501 32.6048 11.2602C32.7213 11.0548 32.7693 10.2608 32.6733 10.165C32.5842 10.076 32.2759 10.3703 32.1662 10.6578C32.1046 10.8221 32.0155 10.9864 31.9607 11.0275C31.9127 11.0685 31.851 11.1986 31.8236 11.315C31.803 11.4382 31.7277 11.6093 31.6591 11.7051C31.5906 11.801 31.5084 12.0474 31.4673 12.2527C31.4261 12.4581 31.3508 12.7524 31.2891 12.903C31.1315 13.3274 31.1383 14.7443 31.3028 15.0592C31.3782 15.1893 31.4536 15.4494 31.481 15.6342C31.5015 15.8258 31.5838 16.038 31.6523 16.1133C31.7208 16.1955 31.7962 16.3392 31.8236 16.4419C31.8853 16.7157 32.6665 17.6672 33.0502 17.941C33.2352 18.071 33.4682 18.2421 33.571 18.3243C33.6738 18.4064 33.852 18.4954 33.9616 18.5228C34.0713 18.5502 34.2357 18.6255 34.3317 18.6939C34.4893 18.8103 35.0512 18.9061 36.1476 19.0088C36.3326 19.0293 36.689 19.0088 36.9357 18.9677C37.1824 18.9267 37.6004 18.8582 37.8745 18.8171C38.1486 18.7761 38.4021 18.7008 38.4433 18.646C38.4912 18.5981 38.6351 18.5365 38.779 18.5091C38.9161 18.4817 39.0874 18.4133 39.1628 18.3448C39.2382 18.2832 39.4026 18.1942 39.5191 18.1532C39.7247 18.0847 40.1221 17.8246 40.3483 17.6056C40.3963 17.5645 40.4648 17.5234 40.499 17.5234C40.5333 17.5234 40.7731 17.3249 41.0404 17.0785C41.3077 16.8321 41.5406 16.6336 41.5612 16.6336C41.664 16.6336 42.2876 17.0169 43.0551 17.5371C43.2607 17.6809 43.4525 17.7972 43.4936 17.7972C43.5279 17.7972 43.6581 17.8725 43.7815 17.9615C43.9117 18.0573 44.0967 18.1532 44.2063 18.1737C44.3091 18.2011 44.4325 18.2627 44.4736 18.3174C44.5215 18.3654 44.686 18.4475 44.8436 18.4886C44.9944 18.5296 45.1725 18.6049 45.2274 18.6597C45.289 18.7076 45.522 18.7966 45.7482 18.8445C45.9812 18.8993 46.2416 18.9951 46.3375 19.0567C46.4266 19.1183 46.7007 19.1868 46.9474 19.2073C47.1872 19.2347 47.5093 19.3031 47.6601 19.3647C47.8862 19.4537 48.2836 19.4743 49.846 19.4811C51.5249 19.4879 51.7716 19.5016 51.8402 19.5975C51.8881 19.6659 51.9361 20.0766 51.9635 20.5626C51.9909 21.1787 52.0389 21.5004 52.1417 21.7468C52.2102 21.9248 52.2924 22.2602 52.3198 22.4861C52.3404 22.712 52.4158 22.9926 52.4912 23.1158C52.5597 23.2322 52.6419 23.4786 52.6693 23.6634C52.6967 23.8414 52.7721 24.0741 52.8475 24.1768C52.916 24.2795 52.9983 24.5054 53.0325 24.6833C53.0668 24.8613 53.1422 25.0461 53.197 25.0872C53.2518 25.1283 53.3272 25.272 53.3683 25.4158C53.4094 25.5527 53.5054 25.7512 53.5807 25.847C53.663 25.9497 53.7246 26.0797 53.7246 26.1482C53.7246 26.2098 53.7863 26.3193 53.8685 26.3946C53.9439 26.4631 54.0536 26.6205 54.1015 26.7369C54.218 27.0244 54.3414 27.1681 55.0335 27.8526C55.7325 28.544 56.0545 28.8178 56.1642 28.8178C56.2053 28.8178 56.3218 28.8794 56.4246 28.9615C56.6781 29.16 57.2812 29.4749 57.5279 29.5296C57.6443 29.557 57.7814 29.6255 57.8431 29.6802C57.9116 29.7418 58.1377 29.8103 58.357 29.8445C58.5832 29.8719 58.9326 29.954 59.1382 30.0225C59.6933 30.2141 62.2013 30.2141 62.8044 30.0225C63.0305 29.954 63.4074 29.8719 63.6404 29.8445C63.9077 29.8103 64.1338 29.735 64.2503 29.646C64.3531 29.5639 64.4901 29.5023 64.5587 29.5023C64.9904 29.5023 66.2924 28.5508 67.0393 27.6952C67.5121 27.1544 68.0124 26.2166 68.0878 25.7306C68.1152 25.5664 68.1974 25.3062 68.2796 25.1557C68.4098 24.9024 68.4235 24.7723 68.4235 23.5471C68.4167 22.3492 68.403 22.1781 68.2796 21.87C68.1974 21.6784 68.1083 21.3498 68.0878 21.1376C68.0604 20.9186 67.9781 20.6721 67.9027 20.5763C67.8342 20.4873 67.7725 20.3641 67.7725 20.3094C67.7725 20.2546 67.6972 20.104 67.6081 19.9671C67.519 19.837 67.4231 19.6659 67.4025 19.5906C67.3203 19.3442 66.2787 18.3585 66.0046 18.2695C65.8675 18.2285 65.6962 18.1395 65.6208 18.0779C65.5249 17.9889 65.2987 17.9615 64.4833 17.9478L63.4759 17.9204L63.0031 18.1669C62.7222 18.3038 62.3864 18.557 62.1739 18.7761C61.7696 19.1936 61.7696 19.1936 61.8107 20.3299C61.8313 20.9596 61.893 21.2197 62.03 21.2197C62.1123 21.2197 62.496 20.8227 62.496 20.7337C62.496 20.7132 62.6468 20.5968 62.8386 20.4736C63.1059 20.3025 63.2909 20.2409 63.6747 20.1998C64.4079 20.1177 65.2028 20.2204 65.6893 20.4463C66.6076 20.8843 66.9639 21.1855 67.3066 21.8221C67.519 22.2054 67.519 22.2191 67.519 23.239C67.519 24.2179 67.5121 24.2863 67.3408 24.6217C67.238 24.8202 67.1558 25.0393 67.1558 25.1077C67.1558 25.183 67.0941 25.3199 67.0188 25.4158C66.9365 25.5116 66.7652 25.7649 66.6213 25.9702C66.4363 26.244 66.1964 26.4631 65.7647 26.7642C65.4358 26.9901 65.0795 27.1955 64.9767 27.216C64.8739 27.2434 64.7163 27.3187 64.6203 27.3803C64.5244 27.4419 64.2503 27.5377 64.0036 27.5788C63.7569 27.6267 63.4554 27.7089 63.3252 27.7636C62.729 28.01 59.0834 28.01 58.6037 27.7636C58.5009 27.7089 58.2337 27.6336 58.0075 27.5856C57.7814 27.5377 57.5484 27.4624 57.4867 27.4077C57.4319 27.3529 57.2743 27.2776 57.1441 27.2365C57.0139 27.1886 56.8289 27.086 56.7261 27.0107C56.6302 26.9285 56.4246 26.7916 56.2738 26.7026C55.9449 26.511 55.1294 25.7169 54.8896 25.3678C54.7936 25.2241 54.6429 25.0187 54.5538 24.9024C54.3756 24.6833 54.2112 24.4095 54.0262 24.0262C53.9645 23.8962 53.8548 23.7045 53.7863 23.6018C53.7109 23.506 53.6561 23.3896 53.6561 23.3486C53.6561 23.3075 53.567 23.0748 53.4505 22.842C53.3409 22.6024 53.245 22.3218 53.245 22.2191C53.245 22.1164 53.1833 21.9179 53.1079 21.7673C53.0325 21.6168 52.9366 21.2608 52.8955 20.9665C52.8612 20.6721 52.7858 20.2957 52.731 20.1245C52.5528 19.529 52.5528 19.3853 52.7173 19.2689C52.7995 19.2141 52.9229 19.1662 52.9983 19.1662C53.0668 19.1662 53.2244 19.1046 53.3409 19.0362C53.4574 18.9677 53.7315 18.8719 53.9439 18.824C54.1564 18.7829 54.3688 18.7008 54.4099 18.646C54.4579 18.5981 54.547 18.5502 54.6155 18.5502C54.6772 18.5502 54.8827 18.4749 55.0678 18.3791C55.2528 18.2832 55.4378 18.2079 55.4858 18.2079C55.5269 18.2079 55.6502 18.1326 55.7599 18.0436C55.8627 17.9547 56.0682 17.8451 56.2121 17.8041C56.3492 17.7561 56.4657 17.6877 56.4657 17.6535C56.4657 17.6192 56.5479 17.5508 56.6576 17.5097C56.9248 17.3865 57.3634 17.1127 57.5416 16.9484C57.6238 16.8663 57.802 16.7294 57.939 16.6336C58.5969 16.1886 59.7824 15.0729 60.2483 14.4774C60.3306 14.361 60.6252 13.9982 60.8993 13.6697C61.1735 13.3411 61.3996 13.0399 61.3996 13.0057C61.3996 12.9715 61.475 12.8277 61.5709 12.6908C61.6668 12.5539 61.7422 12.3417 61.7422 12.2253C61.7422 12.109 61.7765 11.8968 61.8176 11.753C61.893 11.4724 61.8519 11.226 61.7217 11.226C61.6737 11.2328 61.5435 11.315 61.427 11.4176C60.1935 12.4991 59.4466 13.0741 59.2821 13.0741C59.2479 13.0741 59.1793 13.122 59.1314 13.1837C58.9669 13.3822 57.1578 14.4774 56.5 14.7786C56.4246 14.8128 56.0408 14.9907 55.6434 15.1756C55.2459 15.3604 54.8142 15.5384 54.6909 15.5589C54.5607 15.5863 54.4236 15.6479 54.3825 15.7026C54.3071 15.7985 53.2655 16.0586 53.2038 15.997C53.1422 15.9354 53.3066 15.1756 53.4026 15.066C53.4574 15.0044 53.5602 14.8333 53.6356 14.6827C54.0124 13.9503 54.1084 13.786 54.2112 13.6902C54.2728 13.6354 54.5058 13.3548 54.7388 13.0741C55.198 12.4991 55.5269 12.1774 56.2258 11.6093C56.4931 11.3971 56.7535 11.1781 56.8152 11.1233C56.87 11.0685 57.103 10.9248 57.3291 10.8084C57.5484 10.6921 57.8088 10.5278 57.9047 10.4388C58.0007 10.3567 58.172 10.2608 58.2816 10.2403C58.3981 10.2129 58.5489 10.1308 58.6243 10.0692C58.6997 10.0007 58.8504 9.92541 58.9601 9.89803C59.0697 9.87065 59.241 9.78851 59.3301 9.71321C59.426 9.64476 59.5836 9.58316 59.6864 9.58316C59.7892 9.58316 60.0085 9.50786 60.173 9.41888C60.3443 9.33674 60.6184 9.24091 60.7897 9.21352C60.961 9.18614 61.2077 9.11085 61.3379 9.0424C61.4681 8.97395 61.7696 8.89865 62.0163 8.87127C62.2562 8.84389 62.6399 8.75491 62.8661 8.67961C63.2567 8.54271 63.428 8.53587 65.5797 8.53587C67.5944 8.53587 67.9096 8.54955 68.1494 8.65223C68.3002 8.71384 68.6223 8.80967 68.869 8.86443C69.1157 8.91919 69.4377 9.02187 69.5885 9.104C69.7324 9.1793 69.9243 9.24091 69.9997 9.24091C70.0819 9.24091 70.2463 9.3162 70.3765 9.41203C70.5067 9.50786 70.6575 9.58316 70.726 9.58316C70.7877 9.58316 70.9111 9.64476 71.0001 9.71321C71.0961 9.78166 71.2742 9.89118 71.4044 9.95279C71.6374 10.0623 72.2747 10.4799 72.775 10.8495C73.2615 11.2123 73.7892 11.6914 74.6937 12.595C75.8312 13.7381 76.2287 14.1693 76.3658 14.4226C76.4274 14.5253 76.585 14.7512 76.7152 14.9223C76.8454 15.0934 76.9893 15.3056 77.0305 15.4015C77.0716 15.4973 77.147 15.6273 77.2086 15.6889C77.3251 15.819 77.4348 16.0107 77.8048 16.7499C78.2845 17.7288 78.449 18.1052 78.4901 18.338C78.5175 18.468 78.5792 18.6255 78.634 18.6939C78.6957 18.7555 78.771 18.9883 78.8053 19.2141C78.8464 19.4469 78.9286 19.7617 79.004 19.926C79.0725 20.0903 79.1548 20.4873 79.1753 20.809C79.2027 21.1308 79.2713 21.5894 79.3398 21.8358C79.4837 22.3903 79.5043 24.4095 79.3672 24.9571C79.2439 25.4295 79.237 25.4637 79.1822 26.2166C79.1548 26.5931 79.0794 26.9833 79.0109 27.1407C78.9423 27.2913 78.8533 27.6404 78.819 27.9211C78.7779 28.1949 78.6957 28.4755 78.6408 28.5371C78.5792 28.6056 78.4969 28.8383 78.4558 29.0642C78.4147 29.2832 78.3256 29.5502 78.2502 29.646C78.1817 29.7487 78.12 29.8856 78.12 29.9609C78.12 30.0293 78.0447 30.221 77.9556 30.3921C77.8665 30.5632 77.7568 30.8165 77.7157 30.9534C77.6678 31.0903 77.5924 31.2409 77.5376 31.282C77.4896 31.323 77.4211 31.4599 77.4005 31.5763C77.3731 31.6995 77.2977 31.857 77.2292 31.9323C77.1607 32.0075 77.0579 32.1787 76.9962 32.3087C76.9345 32.4388 76.7906 32.6852 76.681 32.8563C76.5713 33.0275 76.4274 33.2739 76.3658 33.4039C76.3041 33.534 76.215 33.6709 76.1602 33.712C76.1054 33.7462 75.9477 33.9721 75.797 34.2117C75.6531 34.4444 75.3927 34.8003 75.2214 34.9988C74.8924 35.3753 73.9399 36.5184 73.6795 36.8538C73.5562 37.0113 73.5288 37.1413 73.5288 37.5041C73.5288 37.9422 73.5425 37.9764 73.7755 38.2023C74.0016 38.4214 74.0359 38.4351 74.5155 38.4351H75.0089L75.797 37.7848C76.2287 37.422 76.7152 37.025 76.8797 36.8949C77.051 36.7649 77.2635 36.5937 77.3525 36.5116C77.7226 36.183 77.798 36.1283 77.9761 36.053C78.1543 35.9708 78.3804 35.8271 78.7231 35.5533C78.8259 35.4711 78.9835 35.3822 79.0794 35.3548C79.1753 35.3274 79.2987 35.2589 79.3604 35.2042C79.422 35.1494 79.703 34.992 79.9771 34.8482C80.2581 34.7045 80.5801 34.5402 80.6898 34.4786C81.1009 34.2596 81.8136 33.9515 81.9027 33.9515C81.9507 33.9515 82.0877 33.8968 82.1973 33.8283C82.3138 33.7599 82.5605 33.6641 82.7456 33.6161C82.9374 33.5682 83.1499 33.4929 83.2252 33.445C83.3006 33.3903 83.5062 33.3286 83.6707 33.3013C83.842 33.2739 84.1366 33.1917 84.3217 33.1233C84.5135 33.048 84.9453 32.959 85.2879 32.9248C85.6237 32.8906 86.028 32.8084 86.1787 32.74C86.4117 32.6305 86.6858 32.6168 88.5018 32.6168C90.2629 32.6168 90.5918 32.6373 90.8043 32.7331C90.9413 32.7947 91.3456 32.8769 91.6951 32.9248C92.0446 32.9727 92.442 33.0685 92.5722 33.137C92.7024 33.2054 92.9491 33.2807 93.1205 33.3081C93.2918 33.3355 93.5248 33.4108 93.6413 33.4792C93.7509 33.5545 93.8879 33.6093 93.9428 33.6093C94.1209 33.6093 96.3138 34.6908 96.4097 34.8209C96.4303 34.8551 96.6496 35.0057 96.8963 35.17C97.4034 35.4985 97.5747 35.6286 97.8488 35.8682C97.9516 35.964 98.3627 36.3199 98.7533 36.669C99.3838 37.2166 100.021 37.8738 100.816 38.7773C101.028 39.0169 101.412 39.5508 101.775 40.1052C101.844 40.2011 101.967 40.427 102.063 40.5981C102.152 40.7692 102.282 40.9472 102.337 40.9951C102.399 41.0499 102.447 41.1525 102.447 41.2347C102.447 41.3168 102.522 41.4879 102.611 41.6043C102.7 41.7275 102.79 41.9534 102.817 42.1108C102.844 42.2614 102.92 42.4599 102.988 42.5489C103.057 42.6379 103.139 42.8912 103.166 43.1034C103.194 43.3224 103.283 43.651 103.358 43.8426C103.502 44.1712 103.509 44.2807 103.509 46.3753C103.509 48.2714 103.495 48.6 103.393 48.819C103.331 48.9559 103.242 49.3734 103.194 49.7431C103.146 50.1332 103.057 50.496 102.988 50.6124C102.92 50.7288 102.844 50.9615 102.817 51.1326C102.796 51.3038 102.7 51.5912 102.611 51.7761C102.522 51.9677 102.447 52.2005 102.447 52.2963C102.447 52.399 102.385 52.5359 102.317 52.5975C102.248 52.6659 102.152 52.8507 102.111 53.0219C102.07 53.193 101.988 53.3436 101.933 53.3641C101.885 53.3846 101.816 53.501 101.796 53.6174C101.768 53.7406 101.693 53.898 101.625 53.9733C101.556 54.0486 101.453 54.2197 101.392 54.3498C101.33 54.4799 101.186 54.7126 101.076 54.8632C100.96 55.0138 100.809 55.2465 100.741 55.3766C100.562 55.712 98.4998 57.7723 98.3422 57.7723C98.3079 57.7723 98.0749 57.9161 97.8145 58.0872C97.5541 58.2652 97.2389 58.4363 97.1087 58.4705C96.9785 58.5116 96.7935 58.5937 96.6975 58.6622C96.6016 58.7306 96.348 58.8196 96.1425 58.8675C95.9369 58.9086 95.7245 58.9839 95.6628 59.0318C95.56 59.1208 94.491 59.2782 93.9633 59.2782C93.7509 59.2782 93.6824 59.244 93.6207 59.114C93.5659 58.9907 93.5727 58.9155 93.655 58.7991C93.7098 58.7169 93.7989 58.3678 93.8468 58.0188C93.8948 57.6628 93.9976 57.2726 94.0798 57.1152C94.1621 56.9715 94.2237 56.7524 94.2237 56.636C94.2237 56.5197 94.2991 56.2801 94.395 56.1021C94.491 55.9242 94.5664 55.7325 94.5664 55.6777C94.5664 55.6298 94.6417 55.4382 94.7308 55.2602C94.8268 55.0754 95.0186 54.6852 95.1625 54.384C95.2996 54.0828 95.5531 53.6174 95.7107 53.3436C95.8752 53.0766 96.0054 52.8302 96.0054 52.8097C96.0054 52.7823 96.0671 52.6796 96.1493 52.5838C96.2247 52.4811 96.4097 52.2141 96.5605 51.9883C96.7044 51.7624 96.9237 51.4543 97.0333 51.3038C97.1498 51.1532 97.3143 50.9204 97.4034 50.7904C97.4924 50.6603 97.7528 50.3454 97.9858 50.0922C98.3833 49.6609 98.5203 49.3529 98.3148 49.3529C98.0886 49.3529 97.1772 49.6267 96.9305 49.7705C96.6975 49.9005 96.3412 50.1743 95.697 50.7288C94.9021 51.4064 93.2644 53.1656 93.2644 53.3504C93.2644 53.3983 93.2164 53.4805 93.1547 53.5352C93.0177 53.6516 92.6065 54.2745 92.5517 54.4593C92.5243 54.5415 92.4489 54.6578 92.3735 54.7263C92.2981 54.7947 92.2365 54.9179 92.2365 55.0001C92.2365 55.0754 92.1611 55.2465 92.0651 55.3766C91.9692 55.5066 91.8938 55.6572 91.8938 55.7188C91.8938 55.7873 91.8185 55.9721 91.7294 56.1432C91.6403 56.3143 91.5443 56.5881 91.5169 56.7524C91.4895 56.9167 91.4073 57.1768 91.3319 57.3206C91.2565 57.478 91.1812 57.7929 91.1606 58.0735C91.1126 58.7717 91.0373 58.936 90.77 58.936C90.4411 58.9291 89.749 58.7649 89.5639 58.6485C89.468 58.5869 89.2898 58.5184 89.1665 58.4911C88.9403 58.4431 87.7 57.8339 87.5081 57.6697C87.4533 57.6217 87.2957 57.5328 87.1655 57.4643C86.8708 57.3137 86.8708 57.3137 86.0691 56.5265C85.3359 55.7941 85.2331 55.6777 85.0686 55.3629C85.0069 55.2397 84.8973 55.0617 84.8288 54.9727C84.7534 54.8837 84.6986 54.74 84.6986 54.6578C84.6986 54.5757 84.6369 54.4251 84.5615 54.3293C84.4724 54.2197 84.3696 53.8843 84.2874 53.4805C84.2189 53.1108 84.1229 52.7001 84.0818 52.5701C83.9722 52.1936 83.9927 49.6952 84.1092 49.3392C84.1641 49.1749 84.2463 48.7848 84.2943 48.4631C84.3354 48.1276 84.4245 47.8059 84.4998 47.6964C84.5684 47.5937 84.6574 47.3678 84.6986 47.183C84.7397 47.0051 84.8288 46.7929 84.8973 46.7176C84.9658 46.6423 85.1234 46.4095 85.2468 46.2042C85.377 45.9988 85.5757 45.7387 85.6922 45.6224C85.8978 45.4239 86.583 44.9721 86.6858 44.9721C86.7132 44.9721 86.816 44.9105 86.912 44.8352C87.0079 44.7599 87.3094 44.6572 87.5904 44.6024C87.8645 44.5477 88.1797 44.4724 88.2825 44.4313C88.584 44.315 89.1528 44.3423 89.5845 44.4929C89.7969 44.5682 90.0299 44.6298 90.1053 44.6298C90.4274 44.6298 91.3867 45.7456 91.5443 46.3069C91.5786 46.4506 91.6677 46.6217 91.7362 46.697C91.839 46.8134 91.8596 46.964 91.8596 47.7375C91.8596 48.6 91.8527 48.641 91.6745 48.8943C91.5718 49.038 91.469 49.2092 91.4484 49.2708C91.4278 49.3324 91.2908 49.4693 91.1469 49.572C90.8865 49.7568 90.7494 50.0032 90.8728 50.0716C90.907 50.0922 91.2086 50.1469 91.5512 50.188C92.257 50.2702 92.9217 50.188 93.1479 49.9895C93.607 49.5788 94.0044 48.8053 94.1689 48.0044C94.3128 47.3405 93.977 46.1905 93.4631 45.5676C93.0725 45.0953 92.49 44.5819 92.1679 44.4382C92.0377 44.3766 91.8527 44.2739 91.7568 44.2123C91.6608 44.1507 91.4758 44.0754 91.3456 44.048C91.2154 44.0206 91.0373 43.9522 90.955 43.8974C90.7906 43.7879 89.2076 43.5894 88.4332 43.5757C87.7822 43.5688 86.5625 43.7263 86.3089 43.8563C86.1993 43.9111 85.9594 44.0001 85.7881 44.0548C85.61 44.1096 85.4318 44.1986 85.3838 44.2533C85.3359 44.3081 85.2468 44.356 85.1782 44.356C85.0755 44.356 84.6026 44.6777 84.26 44.9858C84.1846 45.0542 84.1024 45.109 84.075 45.109C84.0407 45.109 83.8009 45.3759 83.5268 45.6977C82.9785 46.3548 82.3961 47.4021 82.3275 47.8538C82.3001 48.0181 82.2248 48.2509 82.1562 48.3672C81.8205 48.9217 81.8273 53.2135 82.1631 53.5968C82.2316 53.6721 82.3001 53.8843 82.3275 54.0623C82.3481 54.2471 82.444 54.4935 82.54 54.6236C82.6359 54.7537 82.7113 54.9111 82.7113 54.9864C82.7113 55.0617 82.7867 55.2054 82.8826 55.3218C82.9785 55.4313 83.0539 55.5614 83.0539 55.6093C83.0539 55.8968 85.0686 57.9298 85.4524 58.0256C85.5483 58.0461 85.6853 58.1146 85.7607 58.1762C85.9457 58.3336 86.6721 58.6964 86.9188 58.758C87.0285 58.7854 87.1998 58.8675 87.2889 58.9428C87.3848 59.0113 87.5355 59.0729 87.6383 59.0729C87.7343 59.0729 87.9056 59.1345 88.0221 59.2098C88.1317 59.2851 88.3647 59.3604 88.536 59.3878C88.7074 59.4151 88.9815 59.4904 89.1459 59.5657C89.3035 59.641 89.7078 59.7232 90.0299 59.7574C90.7906 59.8395 90.8454 59.8943 90.9345 60.6336C90.9687 60.9484 91.0167 61.2291 91.0373 61.2702C91.0647 61.3044 91.1058 61.6877 91.14 62.1189C91.1812 62.7076 91.2223 62.9472 91.3319 63.1252C91.4073 63.2484 91.4895 63.5153 91.5169 63.707C91.5443 63.9055 91.6197 64.1382 91.6883 64.2204C91.7499 64.3094 91.8322 64.4873 91.8596 64.6174C91.887 64.7474 91.9624 64.9323 92.0309 65.0281C92.0994 65.1239 92.1748 65.2745 92.2022 65.3703C92.2296 65.4662 92.305 65.6031 92.3735 65.6784C92.442 65.7537 92.5174 65.8974 92.5448 66.0001C92.5722 66.0959 92.6682 66.2465 92.7573 66.3355C92.8463 66.4176 92.9217 66.5203 92.9217 66.5545C92.9217 66.6435 93.3466 67.239 93.4905 67.3417C93.607 67.4307 93.655 67.7661 93.5453 67.7661C93.5111 67.7661 93.2849 68.0194 93.0382 68.3342C92.7915 68.6423 92.5106 68.9845 92.4215 69.1009C92.3324 69.2104 92.2296 69.3815 92.2022 69.4774C92.1748 69.5732 92.0926 69.7238 92.024 69.8128C91.9487 69.9018 91.8938 70.0387 91.8938 70.1208C91.8938 70.1961 91.8116 70.4357 91.7088 70.641C91.5238 71.0107 91.5238 71.038 91.5169 72.3865C91.5169 73.7418 91.5169 73.7624 91.7088 74.1388C91.8116 74.351 91.8938 74.5564 91.8938 74.5975C91.8938 74.7138 92.4832 75.4257 92.9354 75.8433C93.3397 76.2197 93.6892 76.4319 94.4704 76.7605C94.861 76.9248 94.9638 76.9385 95.9437 76.9385C96.7181 76.9316 97.0744 76.9043 97.2731 76.829C97.4239 76.7742 97.6569 76.6921 97.7871 76.6578C98.116 76.562 99.0822 76.0828 99.2947 75.9186C99.3906 75.8433 99.4386 75.7611 99.4112 75.7269C99.3769 75.6995 99.1234 75.679 98.8424 75.679C98.4244 75.6858 98.3079 75.7132 98.1777 75.8296C98.0955 75.9049 97.8762 76.0075 97.6843 76.0555C97.4993 76.0965 97.2594 76.1787 97.1567 76.2266C96.9168 76.3498 96.3275 76.3498 96.0876 76.2266C95.9849 76.1787 95.7519 76.0965 95.56 76.0555C95.375 76.0075 95.0597 75.8706 94.8747 75.7406C94.4773 75.4805 93.6275 74.6043 93.5179 74.3442C93.4768 74.2484 93.3946 74.0909 93.326 73.9951C93.2644 73.8993 93.1958 73.7076 93.1684 73.5639C93.141 73.4201 93.0588 73.16 92.9834 72.982C92.8669 72.7151 92.8463 72.544 92.8669 71.9074C92.9012 70.819 93.2301 69.8059 93.8263 68.9435C94.1278 68.5122 94.2511 68.4711 94.5458 68.7039C95.1625 69.1899 95.2585 69.2515 95.9643 69.6622C96.0397 69.7101 96.163 69.7512 96.2316 69.7512C96.3001 69.7512 96.4851 69.8196 96.6427 69.9018C96.91 70.0455 97.0127 70.0592 98.164 70.0592C99.2878 70.0592 99.4249 70.0455 99.6716 69.9155C99.8223 69.8333 100.035 69.7512 100.144 69.7238C100.384 69.6622 100.987 69.2241 101.248 68.9161C101.535 68.5738 101.645 68.2589 101.652 67.7319C101.659 67.02 101.419 66.6709 100.631 66.2739C99.7675 65.8358 98.0269 65.6304 97.3417 65.8906C97.1909 65.9453 96.8894 66.0206 96.677 66.0548C96.4577 66.0891 96.1973 66.1781 96.1013 66.2533C95.9986 66.3355 95.8478 66.3971 95.7656 66.3971C95.6833 66.3971 95.5326 66.4587 95.4366 66.534C95.3407 66.6093 95.2105 66.6709 95.1351 66.6709C95.0049 66.6709 94.6349 66.2602 94.6349 66.1096C94.6349 66.0548 94.5458 65.8358 94.4293 65.6099C94.3197 65.384 94.2237 65.1513 94.2237 65.0897C94.2237 65.0281 94.1483 64.8433 94.0661 64.679C93.977 64.5147 93.8811 64.1861 93.8537 63.9534C93.8263 63.7138 93.7509 63.3921 93.6755 63.2347C93.5796 63.0019 93.5385 62.6802 93.5042 61.6672C93.4425 60.0107 93.374 60.0996 94.6897 60.0996C95.608 60.0996 95.7861 60.0723 96.4166 59.8738C96.5879 59.819 96.8826 59.7437 97.0676 59.7026C97.5267 59.6068 98.2668 59.3398 98.4929 59.1893C98.5889 59.1276 98.7328 59.0729 98.8013 59.0729C98.8767 59.0729 99.0069 59.0181 99.096 58.9497C99.185 58.8812 99.4591 58.7101 99.7058 58.5595C100.823 57.8887 102.351 56.4307 103.16 55.2602C103.297 55.0617 103.406 54.8769 103.406 54.8426C103.406 54.8084 103.468 54.7263 103.543 54.6578C103.619 54.5894 103.715 54.4114 103.763 54.2608C103.804 54.1171 103.879 53.9802 103.927 53.9596C103.975 53.9391 104.05 53.8159 104.098 53.679C104.146 53.5352 104.235 53.3573 104.304 53.2683C104.372 53.1793 104.441 53.0287 104.468 52.926C104.489 52.8165 104.585 52.5838 104.674 52.399C104.77 52.221 104.845 52.0088 104.845 51.9403C104.845 51.8719 104.907 51.6939 104.976 51.557C105.051 51.4133 105.126 51.1463 105.154 50.9615C105.181 50.7698 105.263 50.4892 105.339 50.3249C105.414 50.1538 105.496 49.7499 105.531 49.3324C105.565 48.9491 105.64 48.4151 105.702 48.155C105.812 47.6211 105.832 46.1015 105.736 45.5539C105.695 45.3622 105.62 44.8557 105.565 44.4245C105.51 43.9932 105.414 43.5346 105.359 43.4183C105.304 43.295 105.215 42.9939 105.154 42.7406C105.099 42.4942 105.003 42.2272 104.948 42.1451C104.893 42.0629 104.845 41.9329 104.845 41.8576C104.838 41.7823 104.749 41.5496 104.64 41.3442C104.523 41.1389 104.434 40.9198 104.434 40.8582C104.434 40.7966 104.386 40.7008 104.318 40.6529C104.256 40.5981 104.167 40.4543 104.112 40.3311C103.954 39.9615 103.345 39.0306 102.913 38.5172C102.817 38.394 102.55 38.0791 102.33 37.819C101.933 37.333 101.131 36.5664 100.672 36.2241C100.535 36.1214 100.172 35.8408 99.8703 35.5944C99.5619 35.3479 99.2124 35.0878 99.0822 35.0125C98.8355 34.8688 98.7533 34.8072 98.4518 34.6087C98.2051 34.4444 97.8899 34.2664 97.5815 34.1227C97.4513 34.0542 97.2937 33.9652 97.2389 33.9173C97.1155 33.8146 95.4641 33.0617 95.3613 33.0617C95.3201 33.0617 95.1694 33.0001 95.0255 32.9248C94.8816 32.8495 94.6075 32.7537 94.4156 32.7126C94.2237 32.6715 93.9428 32.5757 93.7852 32.5072C93.6275 32.4388 93.4014 32.3772 93.2781 32.3772C93.1547 32.3772 92.8806 32.3156 92.6613 32.2403C92.442 32.1581 91.9212 32.0692 91.4553 32.0281C91.003 31.9939 90.5302 31.9117 90.3931 31.8501C90.0162 31.6858 86.7955 31.6858 86.3226 31.8501C86.1376 31.9186 85.6237 32.0007 85.1714 32.0349C84.7191 32.0692 84.2394 32.1513 84.1024 32.2061C83.9722 32.2608 83.6844 32.3293 83.4719 32.3498C83.2595 32.3772 82.91 32.4662 82.6976 32.5552C82.4783 32.6441 82.2179 32.7194 82.1151 32.7194C82.0123 32.7194 81.7725 32.8016 81.5806 32.8906C81.3956 32.9864 81.1763 33.0617 81.0941 33.0617C81.0118 33.0617 80.8131 33.137 80.6418 33.226C80.4705 33.315 80.2375 33.4108 80.121 33.4313C80.0045 33.4587 79.8743 33.5272 79.8332 33.5751C79.7852 33.6298 79.6482 33.6914 79.5248 33.7188C79.3946 33.7393 79.1959 33.8352 79.0725 33.9242C78.9492 34.0131 78.7916 34.0884 78.7299 34.0884C78.6614 34.0884 78.5175 34.1637 78.4078 34.2596C78.2913 34.3554 78.1543 34.4307 78.0995 34.4307C78.0447 34.4307 77.9213 34.4991 77.8185 34.5744C77.5855 34.7593 77.1332 34.8756 77.1881 34.7387C77.2086 34.684 77.2566 34.5197 77.2977 34.3622C77.3388 34.2048 77.4142 34.0679 77.4622 34.0474C77.565 34.0063 78.1954 32.781 78.3667 32.295C78.4215 32.1376 78.5106 31.9596 78.5586 31.898C78.6066 31.8433 78.6682 31.6858 78.6957 31.5558C78.7162 31.4257 78.8121 31.1656 78.9081 30.9808C79.004 30.796 79.0794 30.5769 79.0794 30.4948C79.0794 30.4127 79.1411 30.2278 79.2096 30.0772C79.285 29.9335 79.3741 29.6255 79.4152 29.4064C79.4563 29.1874 79.5248 28.9615 79.5659 28.9136C79.6002 28.8657 79.6824 28.5371 79.7304 28.188C79.7852 27.8321 79.8812 27.4077 79.9428 27.2434C80.2306 26.4631 80.2306 20.9665 79.9428 20.193C79.8812 20.0219 79.7921 19.6385 79.751 19.3374C79.7167 19.0362 79.6276 18.6665 79.5659 18.5159C79.4974 18.3585 79.422 18.1121 79.3946 17.9683C79.3672 17.8178 79.285 17.5645 79.2096 17.4071C79.1411 17.2496 79.0794 17.0785 79.0794 17.0237C79.0794 16.969 79.004 16.7842 78.9081 16.6062C78.8121 16.4282 78.7368 16.2434 78.7368 16.1886C78.7368 16.1407 78.5312 15.7026 78.2845 15.2166C78.0309 14.7375 77.7637 14.2173 77.6883 14.0667C77.6061 13.9161 77.517 13.7792 77.4827 13.7655C77.4485 13.7518 77.3662 13.6149 77.2909 13.4575C77.2223 13.3069 77.051 13.0399 76.9208 12.8688C76.7906 12.6977 76.6399 12.4855 76.5987 12.3896C76.5508 12.2938 76.448 12.1501 76.3726 12.0679C76.1944 11.8694 76.0916 11.753 75.3858 10.9248C74.7828 10.2266 74.1318 9.59685 73.8097 9.39149C73.7069 9.32989 73.4602 9.13823 73.2547 8.9671C72.8229 8.61116 72.3501 8.2826 72.261 8.2826C72.2268 8.2826 72.1377 8.22099 72.0623 8.15254C71.8773 7.98826 70.4588 7.25584 70.3149 7.25584C70.2532 7.25584 70.1024 7.19424 69.9791 7.11893C69.8626 7.04364 69.6296 6.9615 69.4651 6.94096C69.3075 6.91359 69.0608 6.83144 68.9101 6.76299C68.7662 6.6877 68.4098 6.60556 68.122 6.57133C67.8342 6.54395 67.5121 6.48235 67.3956 6.44128C67.1832 6.35229 65.7236 6.22908 65.1 6.24277C64.8944 6.24277 64.3873 6.27015 63.9693 6.30437ZM41.8696 9.48733C42.2876 9.6516 42.3561 9.70637 42.5617 10.0555L42.7947 10.4319L42.7878 11.3697C42.7878 12.1774 42.7673 12.3349 42.6439 12.5402C42.5685 12.6703 42.4863 12.8825 42.4589 13.0194C42.4383 13.1494 42.2876 13.5191 42.1231 13.8339C41.8696 14.3268 41.8079 14.4089 41.6708 14.3884C41.4653 14.3678 41.1363 14.0872 40.8417 13.6628C40.7115 13.4848 40.5196 13.2384 40.4237 13.1152C40.3209 12.9988 40.2181 12.8072 40.1975 12.6908C40.1701 12.5676 40.0879 12.417 40.0125 12.3486C39.944 12.2869 39.8823 12.1774 39.8823 12.109C39.8823 12.0405 39.8069 11.7462 39.711 11.4587C39.4917 10.781 39.4917 10.4799 39.7315 10.0076C39.9166 9.64476 40.1427 9.45995 40.6361 9.30251C40.8965 9.22037 41.3488 9.28882 41.8696 9.48733ZM99.6921 66.8968C99.9114 67.109 99.9799 67.2459 100.076 67.6634C100.247 68.3822 100.151 68.8202 99.7607 69.1625C99.4317 69.4568 99.2741 69.5047 98.7944 69.4637C98.2805 69.4226 97.3211 69.0324 96.4851 68.5328C95.978 68.2247 95.5943 67.8003 95.5943 67.5334C95.5943 67.417 96.163 67.0132 96.3343 67.0132C96.396 67.0132 96.5879 66.9447 96.7592 66.8626C97.232 66.6435 97.4719 66.6093 98.4861 66.623L99.4249 66.6367L99.6921 66.8968Z" fill="#E59D47"/>
<path d="M100.323 6.45486C100.302 6.47539 99.98 6.52331 99.6031 6.55753C98.7671 6.64652 97.9379 6.92717 97.8899 7.14621C97.8146 7.46108 97.5816 9.66519 97.5405 10.4045C97.513 10.9521 97.4582 11.2738 97.3691 11.4654C97.3006 11.616 97.2115 11.9514 97.1773 12.2115C97.143 12.4648 97.0676 12.7249 97.0128 12.7934C96.958 12.855 96.862 13.0535 96.7935 13.2451C96.7318 13.43 96.5879 13.7243 96.4783 13.8954C96.3687 14.0666 96.2316 14.313 96.1631 14.443C96.1014 14.5731 95.9849 14.7511 95.9095 14.84C95.7999 14.9633 95.7656 15.0933 95.7656 15.4424C95.7656 16.0311 95.8958 16.1543 96.5126 16.1543C96.9511 16.1543 97.376 16.0653 97.4377 15.9558C97.5199 15.8257 99.0069 15.0591 99.1851 15.0591C99.2399 15.0591 99.4318 14.9975 99.61 14.9222C99.7881 14.8469 100.165 14.7511 100.453 14.71C100.741 14.6758 101.083 14.6005 101.213 14.5526C101.467 14.4567 102.002 14.402 103.372 14.3404C104.345 14.2924 104.523 14.2651 104.859 14.0939C105.065 13.9913 105.126 13.9091 105.188 13.6695C105.229 13.5121 105.318 13.2725 105.38 13.1425C105.476 12.9371 105.496 12.6702 105.496 11.4312C105.496 10.0348 105.49 9.94583 105.346 9.67203C105.257 9.5146 105.188 9.34347 105.188 9.28871C105.188 9.24079 105.065 9.01491 104.921 8.78218C104.66 8.39201 104.626 8.36463 104.249 8.27564L103.852 8.17981L103.77 7.81018C103.708 7.52269 103.639 7.39948 103.434 7.23519C103.016 6.8861 102.399 6.62598 101.83 6.56438C100.85 6.45486 100.357 6.42063 100.323 6.45486Z" fill="#E59D47"/>
<path d="M92.0173 6.55774C91.7294 6.68095 91.4827 7.30385 91.6815 7.42706C91.7157 7.4476 91.7843 7.57765 91.8322 7.7214C91.8802 7.86514 92.1337 8.21424 92.4216 8.52227C92.6957 8.82345 92.9218 9.1041 92.9218 9.13832C92.9218 9.17939 92.9972 9.3163 93.0863 9.43266C93.1753 9.55587 93.2644 9.78176 93.2918 9.93235C93.3124 10.0829 93.3946 10.3157 93.47 10.4594C93.5934 10.6785 93.6071 10.8427 93.6071 11.8216C93.6071 12.773 93.5865 12.9852 93.47 13.2933C93.3946 13.4918 93.3124 13.8272 93.285 14.0325C93.2644 14.2379 93.1685 14.5596 93.0794 14.7513C92.9972 14.9361 92.9218 15.162 92.9218 15.2373C92.9218 15.3194 92.8601 15.4563 92.7916 15.5521C92.7162 15.6411 92.6271 15.8533 92.5792 16.0176C92.5312 16.1887 92.4558 16.3735 92.401 16.4352C92.353 16.4899 92.2708 16.6473 92.2297 16.7774C92.1817 16.9075 92.1132 17.0581 92.0652 17.1128C92.0173 17.1676 91.8459 17.4551 91.6815 17.7494C90.9619 19.0226 90.7769 19.2827 89.7559 20.5216C89.2214 21.1651 89.0843 21.3773 89.0432 21.61C88.9747 22.0618 89.0706 22.4383 89.3242 22.7189C89.5503 22.9585 89.5572 22.9653 90.0917 22.9653H90.633L91.0784 22.6025C91.3183 22.404 91.5787 22.185 91.6541 22.1234C91.7294 22.0618 91.9282 21.9043 92.0995 21.7743C92.2708 21.6511 92.4558 21.5005 92.5106 21.4526C92.8601 21.1309 95.3613 19.6523 95.7314 19.5428C95.8273 19.5154 95.9986 19.4401 96.1083 19.3717C96.2248 19.3032 96.4235 19.2279 96.5537 19.2006C96.6839 19.1732 96.8895 19.0979 96.9991 19.0294C97.1156 18.961 97.3897 18.872 97.6159 18.8241C97.842 18.783 98.123 18.7009 98.2326 18.6529C98.3491 18.5982 98.8425 18.5229 99.3359 18.4818C100.487 18.386 101.549 18.4818 102.07 18.7282C102.269 18.8172 102.454 18.8925 102.481 18.8925C102.584 18.8925 103.242 19.3648 103.708 19.7755C104.304 20.3026 104.729 20.4327 105.25 20.2547C105.496 20.1657 105.565 19.9877 105.517 19.5565C105.476 19.2142 105.188 18.7762 104.681 18.2696C104.201 17.7973 103.968 17.6262 103.715 17.5646C103.605 17.5372 103.461 17.4688 103.406 17.4208C103.352 17.3729 103.194 17.2976 103.064 17.2566C102.934 17.2223 102.639 17.1197 102.413 17.0375C102.036 16.9075 101.899 16.8938 100.837 16.9212C99.6374 16.9554 99.2262 17.0238 97.9242 17.4208C97.6433 17.5098 97.3006 17.5988 97.1704 17.6262C97.0402 17.6536 96.8552 17.7357 96.7661 17.8042C96.677 17.8795 96.54 17.9342 96.4578 17.9342C96.3824 17.9342 96.1631 18.0095 95.9712 18.1053C95.7862 18.1943 95.5875 18.2765 95.5327 18.2765C95.4778 18.2765 95.3065 18.3518 95.1558 18.4408C94.9981 18.5297 94.7857 18.6187 94.6692 18.6461C94.5596 18.6735 94.4294 18.7282 94.3814 18.7693C94.306 18.8241 93.5728 19.2211 92.819 19.6044C92.6683 19.6797 92.5038 19.7824 92.4558 19.8303C92.3736 19.9124 92.0995 19.9604 92.0995 19.8919C92.0995 19.7961 92.5929 18.8309 92.682 18.7556C92.7368 18.7077 92.7847 18.6324 92.7847 18.5845C92.7847 18.5434 92.9355 18.2149 93.1137 17.8589C93.2987 17.503 93.4906 17.0923 93.5385 16.9417C93.5865 16.7911 93.6687 16.62 93.7167 16.5584C93.7715 16.5036 93.8332 16.3462 93.8538 16.2161C93.8812 16.0861 93.9771 15.8465 94.0593 15.6754C94.1484 15.5042 94.2238 15.3126 94.2238 15.2441C94.2238 15.1757 94.2992 14.9498 94.3883 14.7307C94.4773 14.5185 94.5733 14.2174 94.6007 14.0668C94.6281 13.923 94.6898 13.7177 94.7377 13.615C94.7926 13.5192 94.8679 13.1632 94.9022 12.8278C94.9433 12.4924 95.0119 11.9653 95.0598 11.6505C95.1215 11.2124 95.1146 10.9317 95.053 10.3841C94.9365 9.48058 94.8542 9.09725 94.7377 8.9672C94.6898 8.91244 94.6144 8.73447 94.5733 8.57703C94.5253 8.41959 94.4636 8.269 94.4294 8.24847C94.3883 8.22109 94.3129 8.09103 94.2581 7.96098C94.1484 7.70771 93.6208 7.14641 93.1959 6.83839C92.7985 6.54405 92.3256 6.43453 92.0173 6.55774Z" fill="#E59D47"/>
<path d="M8.70278 6.6193C8.54517 6.67406 8.29163 6.92733 8.29163 7.02316C8.29163 7.16691 8.58629 7.1806 11.6837 7.21482C13.3078 7.23536 15.2608 7.28327 16.0351 7.3175C17.3988 7.38595 18.5911 7.41333 23.1276 7.50231C24.6283 7.52969 25.4506 7.57076 25.7316 7.63921C25.9577 7.68713 26.6019 7.77612 27.1569 7.83088C27.7189 7.88564 28.2191 7.96778 28.2671 8.00885C28.315 8.04992 28.6577 8.12521 29.0346 8.17313C29.4046 8.22104 29.8089 8.31003 29.9254 8.37164C30.0488 8.44009 30.2954 8.50854 30.4736 8.52907C30.6586 8.55645 30.9533 8.64544 31.1383 8.73442C31.3302 8.82341 31.5289 8.8987 31.5975 8.8987C31.6591 8.8987 31.7482 8.93978 31.7893 8.99454C31.8304 9.04245 32.036 9.13828 32.2416 9.20673C32.4472 9.26834 32.6939 9.3847 32.7898 9.46C33.0434 9.65851 33.2695 9.57637 33.4477 9.22727C33.5299 9.06983 33.6395 8.8987 33.6875 8.84394C33.7423 8.78918 33.8383 8.65228 33.8931 8.53592C33.9548 8.41955 34.1055 8.17997 34.2357 8.002C34.3591 7.82403 34.5098 7.57076 34.5715 7.44755C34.6263 7.32434 34.7565 7.11215 34.8525 6.98209C35.0101 6.76305 35.0169 6.74251 34.9073 6.66037C34.8113 6.59192 32.221 6.57139 21.7982 6.57823C14.6509 6.57823 8.75761 6.59877 8.70278 6.6193Z" fill="#E59D47"/>
<path d="M82.4304 7.14635C82.4098 7.16689 82.17 7.2148 81.8959 7.25587C81.6218 7.2901 81.2655 7.38593 81.101 7.46122C80.9365 7.53652 80.7721 7.59812 80.7309 7.59812C80.5939 7.59812 79.936 8.43322 79.8264 8.74809C79.7579 8.92606 79.6551 9.20671 79.5934 9.37784C79.4221 9.83646 79.4701 11.1302 79.6756 11.3834C79.751 11.4861 79.8401 11.6709 79.8607 11.801C79.9086 12.0406 80.4294 12.595 80.6076 12.595C80.6624 12.595 80.7995 12.4034 80.916 12.1775C81.1078 11.8078 81.1353 11.6846 81.1353 11.2055V10.6647L80.8611 10.4114C80.7104 10.2745 80.587 10.1171 80.587 10.0555C80.587 9.85015 80.9502 9.60372 81.3066 9.55581C81.4984 9.53527 81.7725 9.46682 81.9233 9.41206C82.3276 9.26832 83.0951 9.28201 83.6022 9.44629C83.8352 9.52158 84.1299 9.58319 84.2464 9.58319C84.3628 9.58319 84.5684 9.63795 84.6986 9.71325C84.8288 9.7817 85.0138 9.86384 85.1098 9.89122C85.3907 9.97336 85.9458 10.3704 86.2816 10.7263C86.8641 11.3492 87.2135 11.8078 87.2615 12.02C87.2889 12.1432 87.3712 12.2938 87.4397 12.3554C87.5151 12.4239 87.5836 12.6155 87.611 12.8209C87.6384 13.0194 87.7206 13.2658 87.796 13.3685C87.8988 13.5054 87.9468 13.745 87.9947 14.2789C88.029 14.6759 88.1044 15.292 88.1592 15.6479C88.2551 16.2366 88.2551 16.3666 88.1661 16.9074C88.1044 17.2428 88.0359 17.7836 88.0153 18.119C87.9879 18.5297 87.9194 18.8377 87.8097 19.091C87.7206 19.2895 87.6453 19.5222 87.6453 19.6043C87.6453 19.6796 87.5699 19.9055 87.4808 20.0972C87.3917 20.2889 87.2958 20.549 87.2684 20.679C87.241 20.8091 87.1793 20.9597 87.1245 21.0144C87.0765 21.076 86.9874 21.2608 86.9257 21.4251C86.8641 21.5894 86.775 21.7742 86.727 21.8358C86.679 21.8906 86.5968 22.0549 86.5557 22.1918C86.5077 22.3355 86.4392 22.4656 86.4118 22.4861C86.3775 22.5066 86.2816 22.6572 86.2062 22.8147C85.9252 23.376 85.7608 23.6635 85.658 23.773C85.6032 23.8277 85.4661 24.0331 85.3496 24.2316C85.24 24.4233 85.007 24.7587 84.8357 24.9777C84.6644 25.1968 84.4725 25.4637 84.4108 25.5732C84.2806 25.7854 83.4377 26.8943 83.1773 27.1818C83.0883 27.2777 82.8964 27.4967 82.7456 27.661C82.588 27.8253 82.2522 28.2223 81.9918 28.544C81.7314 28.8657 81.4642 29.1737 81.4025 29.2285C81.3408 29.2833 81.1353 29.516 80.9365 29.7487L80.587 30.1663V30.7549C80.587 31.4394 80.6282 31.4874 81.1832 31.4805C81.6972 31.4805 82.033 31.2957 82.6908 30.6728C83.0197 30.3579 83.4035 30.0225 83.5337 29.9198C83.7393 29.7692 84.0545 29.5091 84.7329 28.941C84.8083 28.8725 85.007 28.6946 85.1783 28.544C85.3496 28.3865 85.658 28.147 85.8636 28.0101C86.0692 27.8732 86.3364 27.6884 86.4529 27.5925C86.9463 27.1955 87.5082 26.8122 88.3305 26.3193C88.5841 26.1688 88.8719 25.9771 88.9815 25.8881C89.0843 25.806 89.2214 25.7375 89.2899 25.7375C89.3584 25.7375 89.4886 25.6759 89.5846 25.6006C89.6805 25.5185 89.8655 25.4226 89.9889 25.3816C90.1122 25.3405 90.263 25.2652 90.3178 25.2173C90.3795 25.1694 90.5576 25.0804 90.7152 25.0256C90.8797 24.964 91.0784 24.875 91.1607 24.8134C91.2429 24.7587 91.3662 24.7108 91.4279 24.7108C91.4964 24.7108 91.702 24.6355 91.8802 24.5465C92.0584 24.4575 92.3393 24.3617 92.5106 24.3343C92.6819 24.3069 92.9149 24.2384 93.0246 24.1768C93.2644 24.0536 94.9365 23.8277 95.6286 23.8277C96.3961 23.8277 98.308 24.0605 98.4861 24.1768C98.5752 24.2384 98.7876 24.3069 98.9521 24.3343C99.1234 24.3617 99.4935 24.5122 99.7744 24.6628C100.055 24.8134 100.371 24.9777 100.473 25.0325C100.837 25.2173 102.104 26.5658 102.104 26.7574C102.104 26.8053 102.18 26.9833 102.276 27.1613C102.372 27.3393 102.447 27.5583 102.447 27.6541C102.447 27.75 102.495 27.9964 102.55 28.2017C102.817 29.1806 102.824 29.2285 102.625 30.0978C102.522 30.5427 102.42 30.974 102.406 31.0561C102.392 31.1451 102.282 31.2615 102.166 31.3162C101.94 31.4326 101.919 31.4258 101.59 31.104C101.399 30.9124 100.898 30.8576 100.261 30.9603C99.843 31.0287 99.7333 31.0767 99.6168 31.2272C99.5003 31.3847 99.4935 31.4394 99.562 31.6106C99.7676 32.0966 100.946 32.5552 101.837 32.5004C102.289 32.4662 103.16 32.2745 103.338 32.165C103.393 32.1308 103.564 32.0418 103.715 31.9597C104.085 31.7612 104.359 31.4121 104.606 30.8371C104.804 30.3648 104.804 30.3374 104.811 29.0574C104.811 27.8663 104.797 27.7363 104.667 27.483C104.585 27.3324 104.503 27.1134 104.475 27.0038C104.407 26.7164 103.756 25.7717 103.283 25.2789C102.913 24.8956 102.282 24.4027 101.83 24.1563C101.721 24.0947 101.563 23.9989 101.474 23.9441C101.255 23.8004 100.268 23.4102 100.124 23.4102C100.062 23.4102 99.9457 23.3623 99.8704 23.3144C99.7881 23.2596 99.514 23.1775 99.2536 23.1364C98.9932 23.0885 98.5478 23.0063 98.2668 22.9516C97.4514 22.7873 96.0877 22.7599 95.3202 22.8968C94.9639 22.9584 94.3951 23.0406 94.0593 23.0748C93.7235 23.109 93.3192 23.198 93.1685 23.2664C93.0109 23.3349 92.7505 23.4102 92.5792 23.4376C92.4147 23.465 92.1406 23.5471 91.9761 23.6155C91.8048 23.6908 91.6266 23.7524 91.565 23.7524C91.5101 23.7524 91.2909 23.8277 91.0784 23.9236C90.866 24.0126 90.5645 24.1221 90.4069 24.1632C90.2424 24.2042 90.1122 24.2658 90.1122 24.3001C90.1122 24.3343 89.982 24.3959 89.8244 24.4438C89.6599 24.4849 89.4818 24.5602 89.4201 24.6149C89.3653 24.6628 89.2077 24.745 89.0775 24.7861C88.9473 24.834 88.7965 24.9093 88.7417 24.9572C88.68 25.0051 88.5018 25.0941 88.3442 25.1488C88.1866 25.2036 88.0222 25.2857 87.9742 25.3268C87.9262 25.3679 87.659 25.5322 87.3849 25.6896C86.1994 26.3673 85.9321 26.5315 85.8499 26.6684C85.7813 26.7711 84.8974 27.1887 84.8494 27.1407C84.8083 27.0997 85.0687 26.5931 85.24 26.3878C85.377 26.2304 85.6237 25.847 85.9047 25.361C86.0143 25.1694 86.1445 24.9572 86.1856 24.8819C86.2336 24.8066 86.4118 24.4849 86.5831 24.1632C86.7544 23.8414 86.9257 23.5334 86.9668 23.4786C87.0011 23.4239 87.0765 23.2664 87.1382 23.1364C87.2547 22.8763 87.3986 22.5477 87.6658 21.9727C87.7618 21.7674 87.8645 21.5004 87.892 21.3909C87.9194 21.2745 87.9947 21.076 88.0633 20.946C88.2072 20.6585 88.3716 20.1793 88.5155 19.6112C88.5704 19.3853 88.6732 19.0157 88.7417 18.7898C88.8171 18.5639 88.9061 18.1053 88.9473 17.7699C88.9884 17.4345 89.0638 16.9758 89.1186 16.7431C89.2488 16.1887 89.2488 14.7786 89.1186 14.2584C89.0638 14.0393 88.9884 13.6081 88.9541 13.2932C88.8787 12.7045 88.6183 11.7805 88.399 11.3629C88.3374 11.2328 88.2551 11.0275 88.2346 10.9043C88.2072 10.7879 88.1386 10.651 88.0838 10.6031C88.0222 10.5552 87.9262 10.3977 87.8714 10.254C87.8166 10.1103 87.748 9.99389 87.7206 9.99389C87.6864 9.99389 87.6316 9.91175 87.5836 9.81592C87.3712 9.34361 86.2405 8.17995 85.8156 7.99514C85.7128 7.94722 85.5278 7.8377 85.4113 7.75556C85.2948 7.66657 85.1783 7.59812 85.1509 7.59812C85.1235 7.59812 84.9659 7.53652 84.7946 7.46122C84.3766 7.26956 82.5538 7.02314 82.4304 7.14635Z" fill="#E59D47"/>
<path d="M8.38076 8.93974C8.29167 9.00135 8.22314 9.07664 8.22314 9.11087C8.22314 9.25461 8.58633 9.39151 9.05917 9.41889C9.33327 9.43943 9.95686 9.4805 10.4434 9.52157C10.9368 9.5558 11.5878 9.58318 11.8962 9.58318C12.2593 9.58318 12.5951 9.63109 12.8761 9.72008C13.1022 9.78853 13.5339 9.87067 13.8218 9.89805C14.1164 9.92543 14.4796 10.0007 14.6304 10.0692C14.7811 10.1308 15.11 10.2129 15.3499 10.2403C15.5966 10.2677 15.9392 10.3567 16.1174 10.4457C16.2956 10.5346 16.5422 10.6099 16.6656 10.6099C16.7889 10.6099 17.0493 10.6921 17.2344 10.7811C17.4262 10.8769 17.6524 10.9522 17.7415 10.9522C17.8374 10.9522 17.9607 11.0001 18.0224 11.0549C18.0772 11.1096 18.3034 11.1986 18.5227 11.2534C18.7419 11.3081 18.9955 11.4177 19.0983 11.4998C19.1942 11.5751 19.345 11.6367 19.4341 11.6367C19.5231 11.6367 19.7082 11.712 19.8452 11.8078C19.9823 11.9036 20.1467 11.9789 20.2084 11.9789C20.2769 11.9789 20.4277 12.0542 20.5579 12.1501C20.6881 12.2459 20.8457 12.3212 20.9142 12.3212C20.9828 12.3212 21.1061 12.3965 21.1883 12.4923C21.2706 12.5882 21.3871 12.6634 21.4419 12.6634C21.5036 12.6634 21.7845 12.814 22.0655 13.0057C22.3464 13.1905 22.6205 13.348 22.6685 13.348C22.7096 13.348 22.8056 13.4027 22.8741 13.4643C22.9906 13.5875 23.1619 13.7107 23.6416 14.0325C24.1966 14.4089 24.3063 14.4911 24.6352 14.7854C25.3684 15.4425 27.0473 17.1675 27.342 17.5577C27.6298 17.941 28.1712 18.6186 28.4521 18.9267C28.5138 19.002 28.7674 19.2963 29.0003 19.577C29.9529 20.7201 31.2891 21.8153 32.2416 22.2397C32.8652 22.5203 33.2421 22.6572 33.3655 22.6572C33.4477 22.6572 33.7081 22.7257 33.9411 22.8078C34.3111 22.931 34.5236 22.9516 35.6474 22.9584C36.3464 22.9653 36.9494 22.9379 36.9837 22.9105C37.0111 22.8763 37.0385 22.5477 37.0385 22.1781C37.0385 21.2608 37.0385 21.2677 35.9969 21.254C34.9621 21.2403 33.4888 21.0144 33.1667 20.8159C33.0365 20.7406 32.8789 20.6722 32.8173 20.6722C32.7008 20.6722 31.8785 20.2751 31.7277 20.1382C31.6729 20.0903 31.4741 19.9534 31.2823 19.8371C30.4942 19.3374 28.8701 17.7699 28.041 16.7089C27.4928 16.0038 25.6357 14.0667 24.9162 13.4506C24.6969 13.259 24.4296 13.0331 24.3268 12.9373C23.9774 12.6292 22.5657 11.7051 22.4355 11.7051C22.3944 11.7051 22.3122 11.6572 22.2642 11.5956C22.2094 11.534 22.0449 11.4245 21.8942 11.356C21.7434 11.2876 21.5721 11.1986 21.5173 11.1644C21.3185 11.0412 20.4962 10.6784 20.414 10.6784C20.3729 10.6784 20.2358 10.6168 20.1193 10.5483C20.0028 10.4799 19.7973 10.3977 19.6671 10.3704C19.5369 10.343 19.3313 10.2677 19.2148 10.1992C19.0983 10.1308 18.8653 10.0555 18.7008 10.0281C18.5364 10.0007 18.2554 9.92543 18.0841 9.85698C17.9128 9.78853 17.625 9.71323 17.4331 9.68585C17.2481 9.65847 16.9054 9.58318 16.6724 9.51473C16.4395 9.43943 15.9803 9.36413 15.6446 9.33675C15.3156 9.31622 14.8702 9.23408 14.6646 9.16563C14.3631 9.0698 13.8766 9.02873 12.4033 8.96712C8.8947 8.81653 8.55207 8.81653 8.38076 8.93974Z" fill="#E59D47"/>
<path d="M64.8328 30.5633C64.4764 30.6591 64.079 30.8028 63.9419 30.8918C63.4691 31.2067 62.8592 31.8707 62.6331 32.3156C62.5166 32.5552 62.3795 32.8221 62.3247 32.9111C62.126 33.267 62.1466 35.8066 62.3521 35.9298C62.3932 35.9572 62.4686 36.0872 62.5234 36.2241C62.5851 36.361 62.7085 36.5937 62.8044 36.7375C63.01 37.0387 63.7227 37.7163 63.8392 37.7163C63.8803 37.7163 64.0653 37.7985 64.2503 37.9011C64.5655 38.0791 64.6341 38.0928 65.4769 38.0928C66.265 38.0928 66.3952 38.0791 66.6076 37.9491C66.7378 37.8669 66.9434 37.7779 67.053 37.7574C67.1695 37.73 67.4025 37.5521 67.6081 37.3399C68.0604 36.8675 68.1426 36.5801 68.1015 35.6491C68.0741 35.0262 68.0398 34.8962 67.8479 34.5197C67.5807 33.9995 67.0393 33.4587 66.5597 33.226C66.2444 33.0685 66.1348 33.048 65.6345 33.0754C64.9013 33.1028 64.497 33.2944 64.2092 33.7462C63.9556 34.1432 63.9214 34.7045 64.1338 34.8893C64.3805 35.1015 64.9835 35.3206 65.2028 35.2795C65.6414 35.1974 66.1142 34.9167 66.313 34.6224C66.4226 34.4581 66.5528 34.328 66.6008 34.328C66.6487 34.328 66.7858 34.4649 66.9091 34.6224C67.1832 35.0057 67.2107 35.5191 66.9708 35.8271C66.8817 35.9366 66.8132 36.0804 66.8132 36.1488C66.8132 36.2652 66.6899 36.4021 66.0937 36.9565C65.8812 37.1482 65.3056 37.2577 64.8259 37.1961C63.9145 37.0729 62.9072 35.8134 62.9072 34.8003C62.9072 34.4855 63.1333 33.7667 63.3458 33.4176C63.6815 32.8563 64.8876 31.898 65.2508 31.898C65.3056 31.898 65.4701 31.8296 65.614 31.7474C65.8607 31.6105 65.984 31.5969 66.9571 31.59C67.8548 31.59 68.0535 31.6105 68.1563 31.6995C68.2317 31.7611 68.3962 31.8501 68.5264 31.8912C68.8347 31.987 69.4652 32.5894 69.7187 33.0206C69.8284 33.2054 69.9517 33.5135 69.9997 33.7051C70.0545 33.8968 70.1367 34.1774 70.1984 34.328C70.3423 34.7114 70.3355 35.1152 70.171 35.4985C70.0888 35.6765 70.0065 35.964 69.986 36.1351C69.9654 36.3063 69.8763 36.5732 69.7872 36.7306C69.6982 36.8812 69.6228 37.0729 69.6228 37.155C69.6228 37.2372 69.5611 37.3672 69.4789 37.4494C69.4035 37.5247 69.3076 37.689 69.2664 37.8053C69.2253 37.9285 69.1294 38.0928 69.054 38.175C68.8964 38.3529 68.7868 38.5309 68.6017 38.9279C68.5264 39.0922 68.4304 39.2222 68.3893 39.2222C68.3482 39.2222 68.2591 39.3591 68.1837 39.5303C68.1083 39.7014 68.0193 39.8383 67.985 39.8383C67.9507 39.8383 67.8959 39.9067 67.8685 39.9889C67.8411 40.0779 67.752 40.2353 67.6629 40.338C67.5738 40.4475 67.4985 40.5776 67.4985 40.6255C67.4985 40.6734 67.4368 40.7898 67.3614 40.8787C67.0325 41.2621 66.8132 41.5769 66.8132 41.6591C66.8132 41.707 66.7241 41.8507 66.6145 41.974C66.5117 42.0972 66.3198 42.3778 66.1965 42.59C66.08 42.8091 65.9566 42.987 65.9292 42.987C65.8812 42.987 65.4564 43.6031 65.381 43.7742C65.3673 43.8084 65.2234 43.9932 65.0658 44.1849C64.9013 44.3697 64.7231 44.6435 64.6683 44.7804C64.6066 44.9242 64.5313 45.0405 64.4902 45.0405C64.3805 45.0405 64.0036 45.7661 64.0036 45.9783C64.0036 46.2316 64.1544 46.3685 64.36 46.3137C64.6478 46.2453 65.8059 45.0542 66.5048 44.1233C66.7036 43.8563 67.0256 43.4662 67.2175 43.2608C67.4162 43.0555 67.6218 42.7885 67.6835 42.679C67.7383 42.5626 67.937 42.2957 68.1221 42.0835C68.3071 41.8713 68.4578 41.6796 68.4578 41.6522C68.4578 41.6317 68.5332 41.5085 68.6291 41.3853C68.7251 41.2621 68.8005 41.132 68.8005 41.0909C68.8005 41.0567 68.8758 40.954 68.9718 40.8651C69.0677 40.7761 69.1431 40.6666 69.1431 40.6255C69.1431 40.5776 69.2116 40.4544 69.2939 40.3517C69.472 40.1189 69.5748 39.941 69.9654 39.1538C70.4862 38.1133 70.5822 37.8943 70.5822 37.7711C70.5822 37.6958 70.6438 37.5178 70.7261 37.3604C70.9179 36.9908 71.0139 35.9845 70.959 34.9783C70.9179 34.328 70.8837 34.1364 70.7466 33.8899C70.6575 33.7257 70.5822 33.5545 70.5822 33.5066C70.5822 33.3423 70.1162 32.7331 69.5817 32.2061C68.9307 31.5626 68.7868 31.4531 68.1495 31.1109C67.8822 30.974 67.6424 30.8371 67.6013 30.8028C67.5396 30.7549 67.3203 30.7002 66.1622 30.4537C65.751 30.3716 65.5386 30.3853 64.8328 30.5633Z" fill="#E59D47"/>
<path d="M76.03 41.1456C75.9204 41.1799 75.5778 41.2415 75.2762 41.2825C74.9405 41.3305 74.6664 41.4126 74.5636 41.4879C74.4745 41.5632 74.3374 41.6179 74.2621 41.6179C74.0907 41.6179 72.4804 42.3983 72.3707 42.5352C72.3228 42.5899 72.1994 42.6584 72.0898 42.6789C71.987 42.6995 71.8431 42.7816 71.7746 42.8569C71.7129 42.9254 71.6306 42.987 71.5895 42.987C71.5553 42.987 71.4388 43.0623 71.3223 43.1581C71.2126 43.2539 71.0756 43.3292 71.0276 43.3292C70.9796 43.3292 70.7535 43.473 70.5342 43.6578C70.3149 43.8357 69.986 44.089 69.7941 44.2122C69.4789 44.4313 68.8622 44.931 68.4784 45.2801C68.2523 45.4786 68.1221 45.5881 67.6698 45.9303C66.4295 46.8749 65.7031 47.669 65.8128 47.9633C65.8676 48.1071 66.5734 48.0797 66.7242 47.9291C66.7927 47.8606 66.9229 47.7717 67.0188 47.7306C67.1696 47.669 67.8343 47.1761 68.1838 46.8749C68.2386 46.827 68.3619 46.7517 68.4579 46.7107C68.5538 46.6696 68.8142 46.4916 69.0266 46.3137C69.2391 46.1425 69.4378 45.9988 69.4584 45.9988C69.5337 45.9988 70.2053 45.5402 70.3012 45.4238C70.3561 45.3622 70.4177 45.3143 70.452 45.3143C70.5274 45.3143 71.2263 44.883 71.2538 44.8146C71.2675 44.7872 71.3977 44.7051 71.5416 44.6298C71.6855 44.5545 71.9459 44.397 72.124 44.2738C72.3022 44.1506 72.4804 44.0274 72.5283 44C72.5695 43.9726 72.7956 43.8426 73.0354 43.6988C73.2684 43.5619 73.4603 43.425 73.4603 43.3977C73.4603 43.3703 73.5768 43.3018 73.7207 43.2402C73.8578 43.1786 74.0976 43.0486 74.2484 42.9527C74.4882 42.8021 74.6869 42.7063 75.4818 42.3435C75.5983 42.2888 75.941 42.1656 76.2425 42.0697C77.0374 41.8165 77.5993 41.8301 78.4353 42.1108C79.0178 42.3025 79.1343 42.3777 79.5934 42.8021C79.9703 43.1512 80.1622 43.3908 80.3266 43.7262C80.5528 44.1848 80.5528 44.1848 80.5528 45.2458C80.5528 46.2657 80.5459 46.3205 80.3678 46.6764C80.2581 46.8818 80.1759 47.1077 80.1759 47.1693C80.1759 47.2377 80.1416 47.313 80.1074 47.3336C80.0662 47.3609 79.9497 47.5047 79.8538 47.6621C79.5454 48.155 78.9013 48.7163 78.3394 48.9832C77.8528 49.216 77.7843 49.2296 77.2567 49.2023C76.8661 49.1886 76.6605 49.1475 76.5714 49.0722C76.496 49.0106 76.3316 48.9216 76.2014 48.8805C75.8382 48.7642 75.2557 48.1413 75.0638 47.669C74.8994 47.2651 74.8445 46.7928 74.961 46.7244C74.9953 46.7038 75.0433 46.5806 75.0638 46.4506C75.1392 46.0672 75.5915 45.5675 76.1123 45.2937C76.3727 45.1637 76.681 45.0336 76.7975 45.0062C77.1059 44.9446 77.4622 45.0747 77.6815 45.3348L77.8597 45.547L77.7089 45.6565C77.5102 45.7934 77.2361 46.0672 77.1128 46.252C76.9757 46.4506 76.962 47.4636 77.0853 47.7648C77.2018 48.0455 77.5719 48.1687 78.031 48.0797C78.2983 48.0249 78.4011 47.9565 78.6957 47.6142L79.0452 47.2172V46.4848C79.0452 45.7592 79.0452 45.7524 78.7917 45.3759C78.5175 44.9583 77.983 44.486 77.5034 44.2191C77.2224 44.0685 77.1196 44.0548 76.3384 44.0479C75.5229 44.0479 75.4613 44.0548 75.2557 44.2191C74.7623 44.5955 74.5567 44.7872 74.5567 44.8557C74.5567 44.8967 74.495 44.9994 74.4128 45.0815C74.3306 45.1705 74.2552 45.3759 74.2209 45.5949C74.1935 45.8003 74.1182 46.0604 74.0565 46.1836C73.9126 46.4574 73.9057 46.8681 74.0496 47.1556C74.1113 47.2788 74.173 47.5047 74.1935 47.6621C74.2141 47.8196 74.31 48.0865 74.4128 48.2576C74.6458 48.6615 75.3996 49.3939 75.6394 49.4555C75.7422 49.4761 75.8861 49.5582 75.9615 49.6267C76.0369 49.6883 76.2219 49.7704 76.3727 49.7978C76.5166 49.8252 76.7359 49.8936 76.8524 49.9552C77.1128 50.0921 78.4559 50.1127 78.6203 49.9826C78.6752 49.9347 78.9013 49.8525 79.1137 49.7978C79.5454 49.6814 79.8401 49.5377 80.1074 49.3118C80.2033 49.2296 80.3609 49.1201 80.4568 49.0722C80.6419 48.9695 81.1353 48.4493 81.1353 48.3535C81.1353 48.3261 81.2175 48.1824 81.3134 48.0455C81.4094 47.9086 81.5122 47.6279 81.5464 47.4226C81.5807 47.224 81.6424 46.9092 81.6835 46.7312C81.7451 46.4779 81.7451 46.3 81.6835 45.9782C81.6355 45.7455 81.5738 45.3896 81.5396 45.1842C81.5053 44.9857 81.3957 44.6777 81.3066 44.5066C81.2106 44.3286 81.1353 44.1575 81.1353 44.1164C81.1284 43.8974 80.0525 42.5147 79.6414 42.2135C79.5043 42.1108 79.2713 41.9328 79.1206 41.8233C78.9767 41.7069 78.8191 41.6179 78.7711 41.6179C78.7231 41.6179 78.6066 41.5563 78.5175 41.481C78.4216 41.4126 78.2092 41.3305 78.0447 41.3031C77.8803 41.2825 77.5924 41.2209 77.4074 41.1662C77.0237 41.0567 76.3453 41.0498 76.03 41.1456Z" fill="#E59D47"/>
<path d="M89.2761 74.9191C89.1733 74.9807 89.0637 75.1039 89.0431 75.2066C89.0157 75.3024 89.0157 75.9185 89.0363 76.5756C89.0637 77.5613 89.0979 77.8077 89.2076 78.0199C89.2761 78.1568 89.3583 78.4169 89.3789 78.6018C89.4063 78.7797 89.5022 79.0741 89.5982 79.252C89.6941 79.43 89.7695 79.6148 89.7695 79.6696C89.7695 79.7243 89.8449 79.8818 89.9271 80.0118C90.0162 80.1487 90.1875 80.4088 90.3109 80.6005C90.7357 81.2713 91.654 82.2639 92.5448 83.0237C92.8806 83.3111 93.278 83.6602 93.4219 83.7971C93.5659 83.934 93.9702 84.2626 94.3128 84.5296C95.4846 85.4126 96.4234 86.3298 97.3417 87.4798C97.8008 88.0548 97.8899 88.1643 98.0064 88.3012C98.068 88.3696 98.1708 88.5271 98.2394 88.6503C98.3558 88.8899 98.3696 88.8967 98.6642 89.2595C98.7739 89.3896 98.8904 89.5744 98.9178 89.6702C98.9452 89.766 99.0206 89.8961 99.0822 89.9714C99.1919 90.0946 99.37 90.4095 99.6236 90.9434C99.699 91.1008 99.7949 91.2514 99.8292 91.2719C99.8703 91.2925 99.9388 91.4294 99.9868 91.5731C100.035 91.71 100.124 91.9017 100.192 91.9975C100.254 92.0934 100.329 92.2782 100.35 92.4151C100.377 92.552 100.453 92.7163 100.528 92.7847C100.604 92.8532 100.665 92.9764 100.665 93.0585C100.665 93.1406 100.741 93.3597 100.837 93.5445C100.932 93.7293 101.028 93.9894 101.049 94.1195C101.076 94.2495 101.152 94.4686 101.213 94.5986C101.282 94.7287 101.371 95.0025 101.412 95.201C101.453 95.3995 101.535 95.6596 101.597 95.7828C101.659 95.8992 101.734 96.2141 101.768 96.481C101.796 96.7411 101.878 97.0971 101.953 97.2682C102.029 97.4393 102.104 97.8158 102.132 98.1033C102.152 98.3908 102.221 98.7604 102.276 98.9247C102.358 99.1369 102.419 99.8146 102.502 101.32C102.611 103.251 102.632 103.436 102.755 103.559C103.132 103.942 103.187 103.422 103.07 100.28C103.022 98.9726 102.961 98.0896 102.892 97.7816C102.831 97.5146 102.755 96.9533 102.714 96.5221C102.673 96.0909 102.584 95.5638 102.509 95.3584C102.44 95.1531 102.378 94.8588 102.378 94.715C102.378 94.5713 102.303 94.2632 102.214 94.0305C102.125 93.7978 102.015 93.4418 101.974 93.2433C101.933 93.0448 101.858 92.8121 101.803 92.7299C101.748 92.6478 101.686 92.4698 101.659 92.3398C101.631 92.2097 101.535 91.9633 101.446 91.7922C101.357 91.621 101.282 91.4431 101.282 91.3952C101.282 91.3199 101.097 90.916 100.823 90.3889C100.398 89.5744 100.151 89.1363 100.055 89.0199C99.9868 88.9446 99.8977 88.8077 99.8566 88.7119C99.7675 88.5339 99.7195 88.4655 99.0548 87.5825C98.4381 86.7679 96.6495 85.0087 94.9775 83.5781C93.7714 82.5445 93.2232 81.9764 92.2639 80.7785C92.1885 80.6826 92.0514 80.4773 91.9555 80.3267C91.8664 80.1761 91.7499 79.9913 91.7088 79.916C91.6608 79.8407 91.558 79.6422 91.4827 79.4711C91.4073 79.2999 91.2839 79.0398 91.2154 78.8892C91.1469 78.7387 91.0098 78.2732 90.907 77.8625C90.7494 77.2191 90.7289 76.9589 90.7289 76.0965V75.0834L90.4753 74.9739C90.1053 74.8164 89.5022 74.7891 89.2761 74.9191Z" fill="#E59D47"/>
<path d="M105.119 77.0546C105.065 77.0751 104.928 77.1709 104.825 77.2531C104.715 77.342 104.592 77.4173 104.551 77.4242C104.503 77.4242 104.297 77.5474 104.092 77.6911C103.886 77.8417 103.605 78.0129 103.475 78.0745C103.345 78.1361 103.18 78.2319 103.119 78.2867C103.057 78.3414 102.906 78.4441 102.776 78.5057C102.44 78.6905 102.378 78.9233 102.605 79.245C102.7 79.3887 102.803 79.5941 102.831 79.7104C102.851 79.82 102.927 79.9774 102.995 80.0527C103.064 80.128 103.132 80.2991 103.16 80.4292C103.18 80.5592 103.262 80.792 103.331 80.9425C103.406 81.0931 103.495 81.3875 103.537 81.5928C103.578 81.7982 103.66 82.0583 103.722 82.1678C103.776 82.2773 103.845 82.6196 103.879 82.9208C103.907 83.2288 103.989 83.5779 104.05 83.7079C104.14 83.8791 104.188 84.2213 104.235 85.0496C104.277 85.7615 104.338 86.2748 104.407 86.4597C104.544 86.8224 104.599 89.3209 104.674 97.6787C104.722 102.45 104.743 103.155 104.839 103.381C104.962 103.675 105.099 103.702 105.277 103.463C105.387 103.305 105.4 102.614 105.407 90.1697C105.421 76.1647 105.435 76.9313 105.119 77.0546Z" fill="#E59D47"/>
</svg>
