<svg width="113" height="110" viewBox="0 0 113 110" fill="none" xmlns="http://www.w3.org/2000/svg">
<path d="M49.0307 6.30437C49.4418 6.33176 49.9352 6.40705 50.1271 6.46181C50.3121 6.52341 50.6205 6.57133 50.7987 6.57133C50.9837 6.57133 51.3195 6.64663 51.5524 6.72877C51.7854 6.81776 52.1623 6.92728 52.3816 6.96835C52.6009 7.00941 52.8339 7.09156 52.8956 7.14632C52.9572 7.20108 53.1217 7.26269 53.2656 7.29006C53.4027 7.31744 53.5945 7.39958 53.6836 7.46803C53.7727 7.54333 53.9097 7.59809 53.9783 7.59809C54.0537 7.59809 54.2113 7.67339 54.3415 7.76922C54.4717 7.86505 54.6293 7.94035 54.6909 7.94035C54.7595 7.94035 54.8965 8.01564 55.0062 8.09778C55.109 8.18677 55.2803 8.2826 55.3831 8.30997C55.4859 8.33051 55.7325 8.48795 55.9313 8.64539C56.13 8.80967 56.3424 8.96026 56.4041 8.98079C56.6577 9.07662 57.384 9.69268 58.0693 10.384C58.8025 11.1301 59.0424 11.4245 59.2548 11.8215C59.3165 11.9447 59.3987 12.0474 59.4261 12.0474C59.4604 12.0474 59.5426 12.1637 59.6043 12.3006C59.6728 12.4444 59.7962 12.6703 59.8784 12.8003C59.9606 12.9304 60.0292 13.0878 60.0292 13.1494C60.0292 13.211 60.0908 13.3137 60.1662 13.3822C60.2416 13.4506 60.3033 13.567 60.3033 13.6423C60.3033 13.7176 60.3786 13.9435 60.4746 14.142C60.5705 14.3405 60.6665 14.6553 60.6939 14.8333C60.7144 15.0113 60.7761 15.2303 60.8309 15.3125C60.8857 15.3946 60.9543 15.6547 60.9885 15.8875C61.0228 16.1202 61.0982 16.3598 61.1598 16.4214C61.4339 16.702 66.4021 16.6815 66.9366 16.4008C67.0668 16.3324 67.3546 16.2502 67.5739 16.216C67.8 16.1818 68.1016 16.0928 68.2386 16.0175C68.3757 15.9422 68.5401 15.8806 68.595 15.8806C68.6498 15.8806 68.7937 15.819 68.917 15.7505C69.0335 15.6753 69.2939 15.5657 69.4926 15.511C69.6914 15.4494 69.8695 15.3741 69.8901 15.3467C69.9107 15.3193 70.0134 15.244 70.1162 15.1756C70.3492 15.025 70.3561 14.9086 70.1368 14.4979C70.0409 14.3199 69.9655 14.1214 69.9655 14.0598C69.9655 13.9982 69.9038 13.8476 69.8353 13.7313C69.7599 13.6149 69.664 13.3206 69.6228 13.0741C69.5817 12.8346 69.4995 12.5471 69.4378 12.4307C69.2734 12.109 69.3008 10.4867 69.4789 9.98017C69.5612 9.76113 69.6228 9.52155 69.6228 9.43941C69.6228 9.35043 69.7188 9.08347 69.8353 8.83704C70.082 8.32367 70.6028 7.78291 70.9797 7.6597C71.3292 7.54333 72.0624 7.61863 72.3022 7.7966C72.405 7.87874 72.5215 7.94035 72.5558 7.94035C72.7271 7.94035 73.7276 9.14507 73.7344 9.36411C73.7344 9.41203 73.8167 9.61053 73.9195 9.8022C74.1045 10.1581 74.1045 10.165 74.0976 11.5477C74.0908 12.903 74.0839 12.9509 73.9126 13.2795C73.8167 13.4643 73.7344 13.6902 73.7344 13.7792C73.7344 13.8682 73.6591 14.0393 73.5631 14.1693C73.4672 14.2994 73.3918 14.4363 73.3918 14.4774C73.3918 14.5253 73.1588 14.7991 72.8779 15.0866C72.1172 15.8738 72.1241 15.9422 72.9395 16.394C73.241 16.5651 73.5426 16.7362 73.5974 16.7705C73.9674 16.9963 74.6732 17.2017 75.3791 17.2907C76.0575 17.3728 76.2699 17.3728 76.9552 17.2907C77.9351 17.1675 78.2983 17.0237 79.2028 16.4077C79.7099 16.0654 80.5871 15.0797 80.5871 14.8538C80.5871 14.7922 80.6556 14.6485 80.7378 14.539C80.8886 14.3542 80.8954 14.2789 80.8954 13.3137C80.8954 12.2185 80.8817 12.1501 80.3952 11.2602C80.2787 11.0548 80.2307 10.2608 80.3267 10.165C80.4158 10.076 80.7241 10.3703 80.8338 10.6578C80.8954 10.8221 80.9845 10.9864 81.0393 11.0275C81.0873 11.0685 81.149 11.1986 81.1764 11.315C81.197 11.4382 81.2723 11.6093 81.3409 11.7051C81.4094 11.801 81.4916 12.0474 81.5327 12.2527C81.5739 12.4581 81.6492 12.7524 81.7109 12.903C81.8685 13.3274 81.8617 14.7443 81.6972 15.0592C81.6218 15.1893 81.5464 15.4494 81.519 15.6342C81.4985 15.8258 81.4162 16.038 81.3477 16.1133C81.2792 16.1955 81.2038 16.3392 81.1764 16.4419C81.1147 16.7157 80.3335 17.6672 79.9498 17.941C79.7648 18.071 79.5318 18.2421 79.429 18.3243C79.3262 18.4064 79.148 18.4954 79.0384 18.5228C78.9287 18.5502 78.7643 18.6255 78.6683 18.6939C78.5107 18.8103 77.9488 18.9061 76.8524 19.0088C76.6674 19.0293 76.311 19.0088 76.0643 18.9677C75.8176 18.9267 75.3996 18.8582 75.1255 18.8171C74.8514 18.7761 74.5979 18.7008 74.5567 18.646C74.5088 18.5981 74.3649 18.5365 74.221 18.5091C74.0839 18.4817 73.9126 18.4133 73.8372 18.3448C73.7618 18.2832 73.5974 18.1942 73.4809 18.1532C73.2753 18.0847 72.8779 17.8246 72.6517 17.6056C72.6037 17.5645 72.5352 17.5234 72.501 17.5234C72.4667 17.5234 72.2269 17.3249 71.9596 17.0785C71.6923 16.8321 71.4594 16.6336 71.4388 16.6336C71.336 16.6336 70.7124 17.0169 69.9449 17.5371C69.7393 17.6809 69.5475 17.7972 69.5064 17.7972C69.4721 17.7972 69.3419 17.8725 69.2185 17.9615C69.0883 18.0573 68.9033 18.1532 68.7937 18.1737C68.6909 18.2011 68.5675 18.2627 68.5264 18.3174C68.4785 18.3654 68.314 18.4475 68.1564 18.4886C68.0056 18.5296 67.8275 18.6049 67.7726 18.6597C67.711 18.7076 67.478 18.7966 67.2518 18.8445C67.0188 18.8993 66.7584 18.9951 66.6625 19.0567C66.5734 19.1183 66.2993 19.1868 66.0526 19.2073C65.8128 19.2347 65.4907 19.3031 65.3399 19.3647C65.1138 19.4537 64.7164 19.4743 63.154 19.4811C61.4751 19.4879 61.2284 19.5016 61.1598 19.5975C61.1119 19.6659 61.0639 20.0766 61.0365 20.5626C61.0091 21.1787 60.9611 21.5004 60.8583 21.7468C60.7898 21.9248 60.7076 22.2602 60.6802 22.4861C60.6596 22.712 60.5842 22.9926 60.5088 23.1158C60.4403 23.2322 60.3581 23.4786 60.3307 23.6634C60.3033 23.8414 60.2279 24.0741 60.1525 24.1768C60.084 24.2795 60.0017 24.5054 59.9675 24.6833C59.9332 24.8613 59.8578 25.0461 59.803 25.0872C59.7482 25.1283 59.6728 25.272 59.6317 25.4158C59.5906 25.5527 59.4946 25.7512 59.4193 25.847C59.337 25.9497 59.2754 26.0797 59.2754 26.1482C59.2754 26.2098 59.2137 26.3193 59.1315 26.3946C59.0561 26.4631 58.9464 26.6205 58.8985 26.7369C58.782 27.0244 58.6586 27.1681 57.9665 27.8526C57.2675 28.544 56.9455 28.8178 56.8358 28.8178C56.7947 28.8178 56.6782 28.8794 56.5754 28.9615C56.3219 29.16 55.7188 29.4749 55.4721 29.5296C55.3557 29.557 55.2186 29.6255 55.1569 29.6802C55.0884 29.7418 54.8623 29.8103 54.643 29.8445C54.4168 29.8719 54.0674 29.954 53.8618 30.0225C53.3067 30.2141 50.7987 30.2141 50.1956 30.0225C49.9695 29.954 49.5926 29.8719 49.3596 29.8445C49.0923 29.8103 48.8662 29.735 48.7497 29.646C48.6469 29.5639 48.5099 29.5023 48.4413 29.5023C48.0096 29.5023 46.7076 28.5508 45.9607 27.6952C45.4879 27.1544 44.9876 26.2166 44.9122 25.7306C44.8848 25.5664 44.8026 25.3062 44.7204 25.1557C44.5902 24.9024 44.5765 24.7723 44.5765 23.5471C44.5833 22.3492 44.597 22.1781 44.7204 21.87C44.8026 21.6784 44.8917 21.3498 44.9122 21.1376C44.9396 20.9186 45.0219 20.6721 45.0973 20.5763C45.1658 20.4873 45.2275 20.3641 45.2275 20.3094C45.2275 20.2546 45.3028 20.104 45.3919 19.9671C45.481 19.837 45.5769 19.6659 45.5975 19.5906C45.6797 19.3442 46.7213 18.3585 46.9954 18.2695C47.1325 18.2285 47.3038 18.1395 47.3792 18.0779C47.4751 17.9889 47.7013 17.9615 48.5167 17.9478L49.5241 17.9204L49.9969 18.1669C50.2778 18.3038 50.6136 18.557 50.8261 18.7761C51.2304 19.1936 51.2304 19.1936 51.1893 20.3299C51.1687 20.9596 51.107 21.2197 50.97 21.2197C50.8877 21.2197 50.504 20.8227 50.504 20.7337C50.504 20.7132 50.3532 20.5968 50.1614 20.4736C49.8941 20.3025 49.7091 20.2409 49.3253 20.1998C48.5921 20.1177 47.7972 20.2204 47.3107 20.4463C46.3924 20.8843 46.0361 21.1855 45.6934 21.8221C45.481 22.2054 45.481 22.2191 45.481 23.239C45.481 24.2179 45.4879 24.2863 45.6592 24.6217C45.762 24.8202 45.8442 25.0393 45.8442 25.1077C45.8442 25.183 45.9059 25.3199 45.9812 25.4158C46.0635 25.5116 46.2348 25.7649 46.3787 25.9702C46.5637 26.244 46.8036 26.4631 47.2353 26.7642C47.5642 26.9901 47.9205 27.1955 48.0233 27.216C48.1261 27.2434 48.2837 27.3187 48.3797 27.3803C48.4756 27.4419 48.7497 27.5377 48.9964 27.5788C49.2431 27.6267 49.5446 27.7089 49.6748 27.7636C50.271 28.01 53.9166 28.01 54.3963 27.7636C54.4991 27.7089 54.7663 27.6336 54.9925 27.5856C55.2186 27.5377 55.4516 27.4624 55.5133 27.4077C55.5681 27.3529 55.7257 27.2776 55.8559 27.2365C55.9861 27.1886 56.1711 27.086 56.2739 27.0107C56.3698 26.9285 56.5754 26.7916 56.7262 26.7026C57.0551 26.511 57.8706 25.7169 58.1104 25.3678C58.2064 25.2241 58.3571 25.0187 58.4462 24.9024C58.6244 24.6833 58.7888 24.4095 58.9738 24.0262C59.0355 23.8962 59.1452 23.7045 59.2137 23.6018C59.2891 23.506 59.3439 23.3896 59.3439 23.3486C59.3439 23.3075 59.433 23.0748 59.5495 22.842C59.6591 22.6024 59.755 22.3218 59.755 22.2191C59.755 22.1164 59.8167 21.9179 59.8921 21.7673C59.9675 21.6168 60.0634 21.2608 60.1045 20.9665C60.1388 20.6721 60.2142 20.2957 60.269 20.1245C60.4472 19.529 60.4472 19.3853 60.2827 19.2689C60.2005 19.2141 60.0771 19.1662 60.0017 19.1662C59.9332 19.1662 59.7756 19.1046 59.6591 19.0362C59.5426 18.9677 59.2685 18.8719 59.0561 18.824C58.8436 18.7829 58.6312 18.7008 58.5901 18.646C58.5421 18.5981 58.453 18.5502 58.3845 18.5502C58.3228 18.5502 58.1173 18.4749 57.9322 18.3791C57.7472 18.2832 57.5622 18.2079 57.5142 18.2079C57.4731 18.2079 57.3498 18.1326 57.2401 18.0436C57.1373 17.9547 56.9318 17.8451 56.7879 17.8041C56.6508 17.7561 56.5343 17.6877 56.5343 17.6535C56.5343 17.6192 56.4521 17.5508 56.3424 17.5097C56.0752 17.3865 55.6366 17.1127 55.4584 16.9484C55.3762 16.8663 55.198 16.7294 55.061 16.6336C54.4031 16.1886 53.2176 15.0729 52.7517 14.4774C52.6694 14.361 52.3748 13.9982 52.1007 13.6697C51.8265 13.3411 51.6004 13.0399 51.6004 13.0057C51.6004 12.9715 51.525 12.8277 51.4291 12.6908C51.3332 12.5539 51.2578 12.3417 51.2578 12.2253C51.2578 12.109 51.2235 11.8968 51.1824 11.753C51.107 11.4724 51.1481 11.226 51.2783 11.226C51.3263 11.2328 51.4565 11.315 51.573 11.4176C52.8065 12.4991 53.5534 13.0741 53.7179 13.0741C53.7521 13.0741 53.8207 13.122 53.8686 13.1837C54.0331 13.3822 55.8422 14.4774 56.5 14.7786C56.5754 14.8128 56.9592 14.9907 57.3566 15.1756C57.7541 15.3604 58.1858 15.5384 58.3091 15.5589C58.4393 15.5863 58.5764 15.6479 58.6175 15.7026C58.6929 15.7985 59.7345 16.0586 59.7962 15.997C59.8578 15.9354 59.6934 15.1756 59.5974 15.066C59.5426 15.0044 59.4398 14.8333 59.3644 14.6827C58.9876 13.9503 58.8916 13.786 58.7888 13.6902C58.7272 13.6354 58.4942 13.3548 58.2612 13.0741C57.802 12.4991 57.4731 12.1774 56.7742 11.6093C56.5069 11.3971 56.2465 11.1781 56.1848 11.1233C56.13 11.0685 55.897 10.9248 55.6709 10.8084C55.4516 10.6921 55.1912 10.5278 55.0953 10.4388C54.9993 10.3567 54.828 10.2608 54.7184 10.2403C54.6019 10.2129 54.4511 10.1308 54.3757 10.0692C54.3003 10.0007 54.1496 9.92541 54.0399 9.89803C53.9303 9.87065 53.759 9.78851 53.6699 9.71321C53.574 9.64476 53.4164 9.58316 53.3136 9.58316C53.2108 9.58316 52.9915 9.50786 52.827 9.41888C52.6557 9.33674 52.3816 9.24091 52.2103 9.21352C52.039 9.18614 51.7923 9.11085 51.6621 9.0424C51.5319 8.97395 51.2304 8.89865 50.9837 8.87127C50.7438 8.84389 50.3601 8.75491 50.1339 8.67961C49.7433 8.54271 49.572 8.53587 47.4203 8.53587C45.4056 8.53587 45.0904 8.54955 44.8506 8.65223C44.6998 8.71384 44.3777 8.80967 44.131 8.86443C43.8843 8.91919 43.5623 9.02187 43.4115 9.104C43.2676 9.1793 43.0757 9.24091 43.0003 9.24091C42.9181 9.24091 42.7537 9.3162 42.6235 9.41203C42.4933 9.50786 42.3425 9.58316 42.274 9.58316C42.2123 9.58316 42.0889 9.64476 41.9999 9.71321C41.9039 9.78166 41.7258 9.89118 41.5956 9.95279C41.3626 10.0623 40.7253 10.4799 40.225 10.8495C39.7385 11.2123 39.2108 11.6914 38.3063 12.595C37.1688 13.7381 36.7713 14.1693 36.6342 14.4226C36.5726 14.5253 36.415 14.7512 36.2848 14.9223C36.1546 15.0934 36.0107 15.3056 35.9695 15.4015C35.9284 15.4973 35.853 15.6273 35.7914 15.6889C35.6749 15.819 35.5652 16.0107 35.1952 16.7499C34.7155 17.7288 34.551 18.1052 34.5099 18.338C34.4825 18.468 34.4208 18.6255 34.366 18.6939C34.3043 18.7555 34.229 18.9883 34.1947 19.2141C34.1536 19.4469 34.0714 19.7617 33.996 19.926C33.9275 20.0903 33.8452 20.4873 33.8247 20.809C33.7973 21.1308 33.7287 21.5894 33.6602 21.8358C33.5163 22.3903 33.4957 24.4095 33.6328 24.9571C33.7561 25.4295 33.763 25.4637 33.8178 26.2166C33.8452 26.5931 33.9206 26.9833 33.9891 27.1407C34.0577 27.2913 34.1467 27.6404 34.181 27.9211C34.2221 28.1949 34.3043 28.4755 34.3592 28.5371C34.4208 28.6056 34.5031 28.8383 34.5442 29.0642C34.5853 29.2832 34.6744 29.5502 34.7498 29.646C34.8183 29.7487 34.88 29.8856 34.88 29.9609C34.88 30.0293 34.9553 30.221 35.0444 30.3921C35.1335 30.5632 35.2432 30.8165 35.2843 30.9534C35.3322 31.0903 35.4076 31.2409 35.4624 31.282C35.5104 31.323 35.5789 31.4599 35.5995 31.5763C35.6269 31.6995 35.7023 31.857 35.7708 31.9323C35.8393 32.0075 35.9421 32.1787 36.0038 32.3087C36.0655 32.4388 36.2094 32.6852 36.319 32.8563C36.4287 33.0275 36.5726 33.2739 36.6342 33.4039C36.6959 33.534 36.785 33.6709 36.8398 33.712C36.8946 33.7462 37.0523 33.9721 37.203 34.2117C37.3469 34.4444 37.6073 34.8003 37.7786 34.9988C38.1076 35.3753 39.0601 36.5184 39.3205 36.8538C39.4438 37.0113 39.4712 37.1413 39.4712 37.5041C39.4712 37.9422 39.4575 37.9764 39.2245 38.2023C38.9984 38.4214 38.9641 38.4351 38.4845 38.4351H37.9911L37.203 37.7848C36.7713 37.422 36.2848 37.025 36.1203 36.8949C35.949 36.7649 35.7365 36.5937 35.6475 36.5116C35.2774 36.183 35.202 36.1283 35.0239 36.053C34.8457 35.9708 34.6196 35.8271 34.2769 35.5533C34.1741 35.4711 34.0165 35.3822 33.9206 35.3548C33.8247 35.3274 33.7013 35.2589 33.6396 35.2042C33.578 35.1494 33.297 34.992 33.0229 34.8482C32.7419 34.7045 32.4199 34.5402 32.3102 34.4786C31.8991 34.2596 31.1864 33.9515 31.0973 33.9515C31.0493 33.9515 30.9123 33.8968 30.8027 33.8283C30.6862 33.7599 30.4395 33.6641 30.2544 33.6161C30.0626 33.5682 29.8501 33.4929 29.7748 33.445C29.6994 33.3903 29.4938 33.3286 29.3293 33.3013C29.158 33.2739 28.8634 33.1917 28.6783 33.1233C28.4865 33.048 28.0547 32.959 27.7121 32.9248C27.3763 32.8906 26.972 32.8084 26.8213 32.74C26.5883 32.6305 26.3142 32.6168 24.4982 32.6168C22.7371 32.6168 22.4082 32.6373 22.1957 32.7331C22.0587 32.7947 21.6544 32.8769 21.3049 32.9248C20.9554 32.9727 20.558 33.0685 20.4278 33.137C20.2976 33.2054 20.0509 33.2807 19.8795 33.3081C19.7082 33.3355 19.4752 33.4108 19.3587 33.4792C19.2491 33.5545 19.1121 33.6093 19.0572 33.6093C18.8791 33.6093 16.6862 34.6908 16.5903 34.8209C16.5697 34.8551 16.3504 35.0057 16.1037 35.17C15.5966 35.4985 15.4253 35.6286 15.1512 35.8682C15.0484 35.964 14.6373 36.3199 14.2467 36.669C13.6162 37.2166 12.9789 37.8738 12.184 38.7773C11.9716 39.0169 11.5879 39.5508 11.2247 40.1052C11.1561 40.2011 11.0328 40.427 10.9369 40.5981C10.8478 40.7692 10.7176 40.9472 10.6628 40.9951C10.6011 41.0499 10.5531 41.1525 10.5531 41.2347C10.5531 41.3168 10.4777 41.4879 10.3886 41.6043C10.2996 41.7275 10.2105 41.9534 10.1831 42.1108C10.1557 42.2614 10.0803 42.4599 10.0117 42.5489C9.94322 42.6379 9.86099 42.8912 9.83358 43.1034C9.80617 43.3224 9.71709 43.651 9.64171 43.8426C9.4978 44.1712 9.49095 44.2807 9.49095 46.3753C9.49095 48.2714 9.50465 48.6 9.60744 48.819C9.66912 48.9559 9.7582 49.3734 9.80617 49.7431C9.85414 50.1332 9.94322 50.496 10.0117 50.6124C10.0803 50.7288 10.1557 50.9615 10.1831 51.1326C10.2036 51.3038 10.2996 51.5912 10.3886 51.7761C10.4777 51.9677 10.5531 52.2005 10.5531 52.2963C10.5531 52.399 10.6148 52.5359 10.6833 52.5975C10.7518 52.6659 10.8478 52.8507 10.8889 53.0219C10.93 53.193 11.0122 53.3436 11.0671 53.3641C11.115 53.3846 11.1835 53.501 11.2041 53.6174C11.2315 53.7406 11.3069 53.898 11.3754 53.9733C11.444 54.0486 11.5467 54.2197 11.6084 54.3498C11.6701 54.4799 11.814 54.7126 11.9236 54.8632C12.0401 55.0138 12.1909 55.2465 12.2594 55.3766C12.4376 55.712 14.5002 57.7723 14.6578 57.7723C14.6921 57.7723 14.9251 57.9161 15.1855 58.0872C15.4459 58.2652 15.7611 58.4363 15.8913 58.4705C16.0215 58.5116 16.2065 58.5937 16.3025 58.6622C16.3984 58.7306 16.652 58.8196 16.8575 58.8675C17.0631 58.9086 17.2755 58.9839 17.3372 59.0318C17.44 59.1208 18.509 59.2782 19.0367 59.2782C19.2491 59.2782 19.3176 59.244 19.3793 59.114C19.4341 58.9907 19.4273 58.9155 19.345 58.7991C19.2902 58.7169 19.2011 58.3678 19.1532 58.0188C19.1052 57.6628 19.0024 57.2726 18.9202 57.1152C18.8379 56.9715 18.7763 56.7524 18.7763 56.636C18.7763 56.5197 18.7009 56.2801 18.605 56.1021C18.509 55.9242 18.4336 55.7325 18.4336 55.6777C18.4336 55.6298 18.3583 55.4382 18.2692 55.2602C18.1732 55.0754 17.9814 54.6852 17.8375 54.384C17.7004 54.0828 17.4469 53.6174 17.2893 53.3436C17.1248 53.0766 16.9946 52.8302 16.9946 52.8097C16.9946 52.7823 16.9329 52.6796 16.8507 52.5838C16.7753 52.4811 16.5903 52.2141 16.4395 51.9883C16.2956 51.7624 16.0763 51.4543 15.9667 51.3038C15.8502 51.1532 15.6857 50.9204 15.5966 50.7904C15.5076 50.6603 15.2472 50.3454 15.0142 50.0922C14.6167 49.6609 14.4797 49.3529 14.6852 49.3529C14.9114 49.3529 15.8228 49.6267 16.0695 49.7705C16.3025 49.9005 16.6588 50.1743 17.303 50.7288C18.0979 51.4064 19.7356 53.1656 19.7356 53.3504C19.7356 53.3983 19.7836 53.4805 19.8453 53.5352C19.9823 53.6516 20.3935 54.2745 20.4483 54.4593C20.4757 54.5415 20.5511 54.6578 20.6265 54.7263C20.7019 54.7947 20.7635 54.9179 20.7635 55.0001C20.7635 55.0754 20.8389 55.2465 20.9349 55.3766C21.0308 55.5066 21.1062 55.6572 21.1062 55.7188C21.1062 55.7873 21.1815 55.9721 21.2706 56.1432C21.3597 56.3143 21.4557 56.5881 21.4831 56.7524C21.5105 56.9167 21.5927 57.1768 21.6681 57.3206C21.7435 57.478 21.8188 57.7929 21.8394 58.0735C21.8874 58.7717 21.9627 58.936 22.23 58.936C22.5589 58.9291 23.251 58.7649 23.4361 58.6485C23.532 58.5869 23.7102 58.5184 23.8335 58.4911C24.0597 58.4431 25.3 57.8339 25.4919 57.6697C25.5467 57.6217 25.7043 57.5328 25.8345 57.4643C26.1292 57.3137 26.1292 57.3137 26.9309 56.5265C27.6641 55.7941 27.7669 55.6777 27.9314 55.3629C27.9931 55.2397 28.1027 55.0617 28.1712 54.9727C28.2466 54.8837 28.3014 54.74 28.3014 54.6578C28.3014 54.5757 28.3631 54.4251 28.4385 54.3293C28.5276 54.2197 28.6304 53.8843 28.7126 53.4805C28.7811 53.1108 28.8771 52.7001 28.9182 52.5701C29.0278 52.1936 29.0073 49.6952 28.8908 49.3392C28.8359 49.1749 28.7537 48.7848 28.7057 48.4631C28.6646 48.1276 28.5755 47.8059 28.5002 47.6964C28.4316 47.5937 28.3426 47.3678 28.3014 47.183C28.2603 47.0051 28.1712 46.7929 28.1027 46.7176C28.0342 46.6423 27.8766 46.4095 27.7532 46.2042C27.623 45.9988 27.4243 45.7387 27.3078 45.6224C27.1022 45.4239 26.417 44.9721 26.3142 44.9721C26.2868 44.9721 26.184 44.9105 26.088 44.8352C25.9921 44.7599 25.6906 44.6572 25.4096 44.6024C25.1355 44.5477 24.8203 44.4724 24.7175 44.4313C24.416 44.315 23.8472 44.3423 23.4155 44.4929C23.2031 44.5682 22.9701 44.6298 22.8947 44.6298C22.5726 44.6298 21.6133 45.7456 21.4557 46.3069C21.4214 46.4506 21.3323 46.6217 21.2638 46.697C21.161 46.8134 21.1404 46.964 21.1404 47.7375C21.1404 48.6 21.1473 48.641 21.3255 48.8943C21.4282 49.038 21.531 49.2092 21.5516 49.2708C21.5722 49.3324 21.7092 49.4693 21.8531 49.572C22.1135 49.7568 22.2506 50.0032 22.1272 50.0716C22.093 50.0922 21.7914 50.1469 21.4488 50.188C20.743 50.2702 20.0783 50.188 19.8521 49.9895C19.393 49.5788 18.9956 48.8053 18.8311 48.0044C18.6872 47.3405 19.023 46.1905 19.5369 45.5676C19.9275 45.0953 20.51 44.5819 20.8321 44.4382C20.9623 44.3766 21.1473 44.2739 21.2432 44.2123C21.3392 44.1507 21.5242 44.0754 21.6544 44.048C21.7846 44.0206 21.9627 43.9522 22.045 43.8974C22.2094 43.7879 23.7924 43.5894 24.5668 43.5757C25.2178 43.5688 26.4375 43.7263 26.6911 43.8563C26.8007 43.9111 27.0406 44.0001 27.2119 44.0548C27.39 44.1096 27.5682 44.1986 27.6162 44.2533C27.6641 44.3081 27.7532 44.356 27.8218 44.356C27.9245 44.356 28.3974 44.6777 28.74 44.9858C28.8154 45.0542 28.8976 45.109 28.925 45.109C28.9593 45.109 29.1991 45.3759 29.4732 45.6977C30.0215 46.3548 30.6039 47.4021 30.6725 47.8538C30.6999 48.0181 30.7752 48.2509 30.8438 48.3672C31.1795 48.9217 31.1727 53.2135 30.8369 53.5968C30.7684 53.6721 30.6999 53.8843 30.6725 54.0623C30.6519 54.2471 30.556 54.4935 30.46 54.6236C30.3641 54.7537 30.2887 54.9111 30.2887 54.9864C30.2887 55.0617 30.2133 55.2054 30.1174 55.3218C30.0215 55.4313 29.9461 55.5614 29.9461 55.6093C29.9461 55.8968 27.9314 57.9298 27.5476 58.0256C27.4517 58.0461 27.3147 58.1146 27.2393 58.1762C27.0543 58.3336 26.3279 58.6964 26.0812 58.758C25.9715 58.7854 25.8002 58.8675 25.7111 58.9428C25.6152 59.0113 25.4645 59.0729 25.3617 59.0729C25.2657 59.0729 25.0944 59.1345 24.9779 59.2098C24.8683 59.2851 24.6353 59.3604 24.464 59.3878C24.2926 59.4151 24.0185 59.4904 23.8541 59.5657C23.6965 59.641 23.2922 59.7232 22.9701 59.7574C22.2094 59.8395 22.1546 59.8943 22.0655 60.6336C22.0313 60.9484 21.9833 61.2291 21.9627 61.2702C21.9353 61.3044 21.8942 61.6877 21.86 62.1189C21.8188 62.7076 21.7777 62.9472 21.6681 63.1252C21.5927 63.2484 21.5105 63.5153 21.4831 63.707C21.4557 63.9055 21.3803 64.1382 21.3117 64.2204C21.2501 64.3094 21.1678 64.4873 21.1404 64.6174C21.113 64.7474 21.0376 64.9323 20.9691 65.0281C20.9006 65.1239 20.8252 65.2745 20.7978 65.3703C20.7704 65.4662 20.695 65.6031 20.6265 65.6784C20.558 65.7537 20.4826 65.8974 20.4552 66.0001C20.4278 66.0959 20.3318 66.2465 20.2427 66.3355C20.1537 66.4176 20.0783 66.5203 20.0783 66.5545C20.0783 66.6435 19.6534 67.239 19.5095 67.3417C19.393 67.4307 19.345 67.7661 19.4547 67.7661C19.4889 67.7661 19.7151 68.0194 19.9618 68.3342C20.2085 68.6423 20.4894 68.9845 20.5785 69.1009C20.6676 69.2104 20.7704 69.3815 20.7978 69.4774C20.8252 69.5732 20.9074 69.7238 20.976 69.8128C21.0513 69.9018 21.1062 70.0387 21.1062 70.1208C21.1062 70.1961 21.1884 70.4357 21.2912 70.641C21.4762 71.0107 21.4762 71.038 21.4831 72.3865C21.4831 73.7418 21.4831 73.7624 21.2912 74.1388C21.1884 74.351 21.1062 74.5564 21.1062 74.5975C21.1062 74.7138 20.5168 75.4257 20.0646 75.8433C19.6603 76.2197 19.3108 76.4319 18.5296 76.7605C18.139 76.9248 18.0362 76.9385 17.0563 76.9385C16.2819 76.9316 15.9256 76.9043 15.7269 76.829C15.5761 76.7742 15.3431 76.6921 15.2129 76.6578C14.884 76.562 13.9178 76.0828 13.7053 75.9186C13.6094 75.8433 13.5614 75.7611 13.5888 75.7269C13.6231 75.6995 13.8766 75.679 14.1576 75.679C14.5756 75.6858 14.6921 75.7132 14.8223 75.8296C14.9045 75.9049 15.1238 76.0075 15.3157 76.0555C15.5007 76.0965 15.7406 76.1787 15.8433 76.2266C16.0832 76.3498 16.6725 76.3498 16.9124 76.2266C17.0151 76.1787 17.2481 76.0965 17.44 76.0555C17.625 76.0075 17.9403 75.8706 18.1253 75.7406C18.5227 75.4805 19.3725 74.6043 19.4821 74.3442C19.5232 74.2484 19.6054 74.0909 19.674 73.9951C19.7356 73.8993 19.8042 73.7076 19.8316 73.5639C19.859 73.4201 19.9412 73.16 20.0166 72.982C20.1331 72.7151 20.1537 72.544 20.1331 71.9074C20.0988 70.819 19.7699 69.8059 19.1737 68.9435C18.8722 68.5122 18.7489 68.4711 18.4542 68.7039C17.8375 69.1899 17.7415 69.2515 17.0357 69.6622C16.9603 69.7101 16.837 69.7512 16.7684 69.7512C16.6999 69.7512 16.5149 69.8196 16.3573 69.9018C16.09 70.0455 15.9873 70.0592 14.836 70.0592C13.7122 70.0592 13.5751 70.0455 13.3284 69.9155C13.1777 69.8333 12.9652 69.7512 12.8556 69.7238C12.6158 69.6622 12.0127 69.2241 11.7523 68.9161C11.4645 68.5738 11.3549 68.2589 11.348 67.7319C11.3412 67.02 11.581 66.6709 12.3691 66.2739C13.2325 65.8358 14.9731 65.6304 15.6583 65.8906C15.8091 65.9453 16.1106 66.0206 16.323 66.0548C16.5423 66.0891 16.8027 66.1781 16.8987 66.2533C17.0014 66.3355 17.1522 66.3971 17.2344 66.3971C17.3167 66.3971 17.4674 66.4587 17.5634 66.534C17.6593 66.6093 17.7895 66.6709 17.8649 66.6709C17.9951 66.6709 18.3651 66.2602 18.3651 66.1096C18.3651 66.0548 18.4542 65.8358 18.5707 65.6099C18.6803 65.384 18.7763 65.1513 18.7763 65.0897C18.7763 65.0281 18.8517 64.8433 18.9339 64.679C19.023 64.5147 19.1189 64.1861 19.1463 63.9534C19.1737 63.7138 19.2491 63.3921 19.3245 63.2347C19.4204 63.0019 19.4615 62.6802 19.4958 61.6672C19.5575 60.0107 19.626 60.0996 18.3103 60.0996C17.392 60.0996 17.2139 60.0723 16.5834 59.8738C16.4121 59.819 16.1174 59.7437 15.9324 59.7026C15.4733 59.6068 14.7332 59.3398 14.5071 59.1893C14.4111 59.1276 14.2672 59.0729 14.1987 59.0729C14.1233 59.0729 13.9931 59.0181 13.904 58.9497C13.815 58.8812 13.5409 58.7101 13.2942 58.5595C12.1772 57.8887 10.649 56.4307 9.84043 55.2602C9.70338 55.0617 9.59374 54.8769 9.59374 54.8426C9.59374 54.8084 9.53207 54.7263 9.45669 54.6578C9.38131 54.5894 9.28537 54.4114 9.2374 54.2608C9.19629 54.1171 9.1209 53.9802 9.07294 53.9596C9.02497 53.9391 8.94959 53.8159 8.90162 53.679C8.85365 53.5352 8.76457 53.3573 8.69604 53.2683C8.62752 53.1793 8.55899 53.0287 8.53158 52.926C8.51102 52.8165 8.41508 52.5838 8.326 52.399C8.23006 52.221 8.15469 52.0088 8.15469 51.9403C8.15469 51.8719 8.09301 51.6939 8.02448 51.557C7.9491 51.4133 7.87373 51.1463 7.84631 50.9615C7.81891 50.7698 7.73667 50.4892 7.66129 50.3249C7.58591 50.1538 7.50368 49.7499 7.46942 49.3324C7.43516 48.9491 7.35978 48.4151 7.2981 48.155C7.18846 47.6211 7.16791 46.1015 7.26384 45.5539C7.30495 45.3622 7.38033 44.8557 7.43516 44.4245C7.48997 43.9932 7.58591 43.5346 7.64074 43.4183C7.69556 43.295 7.78465 42.9939 7.84631 42.7406C7.90114 42.4942 7.99707 42.2272 8.0519 42.1451C8.10671 42.0629 8.15469 41.9329 8.15469 41.8576C8.16154 41.7823 8.25062 41.5496 8.36026 41.3442C8.47676 41.1389 8.56584 40.9198 8.56584 40.8582C8.56584 40.7966 8.61381 40.7008 8.68233 40.6529C8.74401 40.5981 8.8331 40.4543 8.88792 40.3311C9.04552 39.9615 9.65541 39.0306 10.0871 38.5172C10.1831 38.394 10.4503 38.0791 10.6696 37.819C11.0671 37.333 11.8688 36.5664 12.3279 36.2241C12.465 36.1214 12.8282 35.8408 13.1297 35.5944C13.4381 35.3479 13.7876 35.0878 13.9178 35.0125C14.1645 34.8688 14.2467 34.8072 14.5482 34.6087C14.7949 34.4444 15.1101 34.2664 15.4185 34.1227C15.5487 34.0542 15.7063 33.9652 15.7611 33.9173C15.8845 33.8146 17.5359 33.0617 17.6387 33.0617C17.6799 33.0617 17.8306 33.0001 17.9745 32.9248C18.1184 32.8495 18.3925 32.7537 18.5844 32.7126C18.7763 32.6715 19.0572 32.5757 19.2148 32.5072C19.3725 32.4388 19.5986 32.3772 19.7219 32.3772C19.8453 32.3772 20.1194 32.3156 20.3387 32.2403C20.558 32.1581 21.0788 32.0692 21.5447 32.0281C21.997 31.9939 22.4698 31.9117 22.6069 31.8501C22.9838 31.6858 26.2045 31.6858 26.6774 31.8501C26.8624 31.9186 27.3763 32.0007 27.8286 32.0349C28.2809 32.0692 28.7606 32.1513 28.8976 32.2061C29.0278 32.2608 29.3156 32.3293 29.5281 32.3498C29.7405 32.3772 30.09 32.4662 30.3024 32.5552C30.5217 32.6441 30.7821 32.7194 30.8849 32.7194C30.9877 32.7194 31.2275 32.8016 31.4194 32.8906C31.6044 32.9864 31.8237 33.0617 31.9059 33.0617C31.9882 33.0617 32.1869 33.137 32.3582 33.226C32.5295 33.315 32.7625 33.4108 32.879 33.4313C32.9955 33.4587 33.1257 33.5272 33.1668 33.5751C33.2148 33.6298 33.3518 33.6914 33.4752 33.7188C33.6054 33.7393 33.8041 33.8352 33.9275 33.9242C34.0508 34.0131 34.2084 34.0884 34.2701 34.0884C34.3386 34.0884 34.4825 34.1637 34.5922 34.2596C34.7087 34.3554 34.8457 34.4307 34.9005 34.4307C34.9553 34.4307 35.0787 34.4991 35.1815 34.5744C35.4145 34.7593 35.8668 34.8756 35.8119 34.7387C35.7914 34.684 35.7434 34.5197 35.7023 34.3622C35.6612 34.2048 35.5858 34.0679 35.5378 34.0474C35.435 34.0063 34.8046 32.781 34.6333 32.295C34.5785 32.1376 34.4894 31.9596 34.4414 31.898C34.3934 31.8433 34.3318 31.6858 34.3043 31.5558C34.2838 31.4257 34.1879 31.1656 34.0919 30.9808C33.996 30.796 33.9206 30.5769 33.9206 30.4948C33.9206 30.4127 33.8589 30.2278 33.7904 30.0772C33.715 29.9335 33.6259 29.6255 33.5848 29.4064C33.5437 29.1874 33.4752 28.9615 33.4341 28.9136C33.3998 28.8657 33.3176 28.5371 33.2696 28.188C33.2148 27.8321 33.1188 27.4077 33.0572 27.2434C32.7694 26.4631 32.7694 20.9665 33.0572 20.193C33.1188 20.0219 33.2079 19.6385 33.249 19.3374C33.2833 19.0362 33.3724 18.6665 33.4341 18.5159C33.5026 18.3585 33.578 18.1121 33.6054 17.9683C33.6328 17.8178 33.715 17.5645 33.7904 17.4071C33.8589 17.2496 33.9206 17.0785 33.9206 17.0237C33.9206 16.969 33.996 16.7842 34.0919 16.6062C34.1879 16.4282 34.2632 16.2434 34.2632 16.1886C34.2632 16.1407 34.4688 15.7026 34.7155 15.2166C34.9691 14.7375 35.2363 14.2173 35.3117 14.0667C35.3939 13.9161 35.483 13.7792 35.5173 13.7655C35.5515 13.7518 35.6338 13.6149 35.7091 13.4575C35.7777 13.3069 35.949 13.0399 36.0792 12.8688C36.2094 12.6977 36.3601 12.4855 36.4013 12.3896C36.4492 12.2938 36.552 12.1501 36.6274 12.0679C36.8056 11.8694 36.9084 11.753 37.6142 10.9248C38.2172 10.2266 38.8682 9.59685 39.1903 9.39149C39.2931 9.32989 39.5398 9.13823 39.7453 8.9671C40.1771 8.61116 40.6499 8.2826 40.739 8.2826C40.7732 8.2826 40.8623 8.22099 40.9377 8.15254C41.1227 7.98826 42.5412 7.25584 42.6851 7.25584C42.7468 7.25584 42.8976 7.19424 43.0209 7.11893C43.1374 7.04364 43.3704 6.9615 43.5349 6.94096C43.6925 6.91359 43.9392 6.83144 44.0899 6.76299C44.2338 6.6877 44.5902 6.60556 44.878 6.57133C45.1658 6.54395 45.4879 6.48235 45.6044 6.44128C45.8168 6.35229 47.2764 6.22908 47.9 6.24277C48.1056 6.24277 48.6127 6.27015 49.0307 6.30437ZM71.1304 9.48733C70.7124 9.6516 70.6439 9.70637 70.4383 10.0555L70.2053 10.4319L70.2122 11.3697C70.2122 12.1774 70.2327 12.3349 70.3561 12.5402C70.4315 12.6703 70.5137 12.8825 70.5411 13.0194C70.5617 13.1494 70.7124 13.5191 70.8769 13.8339C71.1304 14.3268 71.1921 14.4089 71.3292 14.3884C71.5347 14.3678 71.8637 14.0872 72.1583 13.6628C72.2885 13.4848 72.4804 13.2384 72.5763 13.1152C72.6791 12.9988 72.7819 12.8072 72.8025 12.6908C72.8299 12.5676 72.9121 12.417 72.9875 12.3486C73.056 12.2869 73.1177 12.1774 73.1177 12.109C73.1177 12.0405 73.1931 11.7462 73.289 11.4587C73.5083 10.781 73.5083 10.4799 73.2685 10.0076C73.0834 9.64476 72.8573 9.45995 72.3639 9.30251C72.1035 9.22037 71.6512 9.28882 71.1304 9.48733ZM13.3079 66.8968C13.0886 67.109 13.0201 67.2459 12.9241 67.6634C12.7528 68.3822 12.8487 68.8202 13.2393 69.1625C13.5683 69.4568 13.7259 69.5047 14.2056 69.4637C14.7195 69.4226 15.6789 69.0324 16.5149 68.5328C17.022 68.2247 17.4057 67.8003 17.4057 67.5334C17.4057 67.417 16.837 67.0132 16.6657 67.0132C16.604 67.0132 16.4121 66.9447 16.2408 66.8626C15.768 66.6435 15.5281 66.6093 14.5139 66.623L13.5751 66.6367L13.3079 66.8968Z" fill="#E59D47"/>
<path d="M12.6774 6.45486C12.6979 6.47539 13.02 6.52331 13.3969 6.55753C14.2329 6.64652 15.0621 6.92717 15.1101 7.14621C15.1854 7.46108 15.4184 9.66519 15.4595 10.4045C15.487 10.9521 15.5418 11.2738 15.6309 11.4654C15.6994 11.616 15.7885 11.9514 15.8227 12.2115C15.857 12.4648 15.9324 12.7249 15.9872 12.7934C16.042 12.855 16.138 13.0535 16.2065 13.2451C16.2682 13.43 16.4121 13.7243 16.5217 13.8954C16.6313 14.0666 16.7684 14.313 16.8369 14.443C16.8986 14.5731 17.0151 14.7511 17.0905 14.84C17.2001 14.9633 17.2344 15.0933 17.2344 15.4424C17.2344 16.0311 17.1042 16.1543 16.4874 16.1543C16.0489 16.1543 15.624 16.0653 15.5623 15.9558C15.4801 15.8257 13.9931 15.0591 13.8149 15.0591C13.7601 15.0591 13.5682 14.9975 13.39 14.9222C13.2119 14.8469 12.835 14.7511 12.5472 14.71C12.2594 14.6758 11.9167 14.6005 11.7865 14.5526C11.533 14.4567 10.9985 14.402 9.62795 14.3404C8.65487 14.2924 8.4767 14.2651 8.14092 14.0939C7.93534 13.9913 7.87367 13.9091 7.812 13.6695C7.77088 13.5121 7.6818 13.2725 7.62012 13.1425C7.52419 12.9371 7.50363 12.6702 7.50363 11.4312C7.50363 10.0348 7.51048 9.94583 7.65439 9.67203C7.74347 9.5146 7.812 9.34347 7.812 9.28871C7.812 9.24079 7.93534 9.01491 8.07925 8.78218C8.33965 8.39201 8.37391 8.36463 8.75081 8.27564L9.14826 8.17981L9.23049 7.81018C9.29217 7.52269 9.36069 7.39948 9.56627 7.23519C9.98428 6.8861 10.601 6.62598 11.1698 6.56438C12.1497 6.45486 12.6431 6.42063 12.6774 6.45486Z" fill="#E59D47"/>
<path d="M20.9828 6.55774C21.2706 6.68095 21.5173 7.30385 21.3186 7.42706C21.2843 7.4476 21.2158 7.57765 21.1678 7.7214C21.1199 7.86514 20.8663 8.21424 20.5785 8.52227C20.3044 8.82345 20.0783 9.1041 20.0783 9.13832C20.0783 9.17939 20.0029 9.3163 19.9138 9.43266C19.8247 9.55587 19.7356 9.78176 19.7082 9.93235C19.6877 10.0829 19.6054 10.3157 19.5301 10.4594C19.4067 10.6785 19.393 10.8427 19.393 11.8216C19.393 12.773 19.4136 12.9852 19.5301 13.2933C19.6054 13.4918 19.6877 13.8272 19.7151 14.0325C19.7356 14.2379 19.8316 14.5596 19.9207 14.7513C20.0029 14.9361 20.0783 15.162 20.0783 15.2373C20.0783 15.3194 20.1399 15.4563 20.2085 15.5521C20.2838 15.6411 20.3729 15.8533 20.4209 16.0176C20.4689 16.1887 20.5442 16.3735 20.5991 16.4352C20.647 16.4899 20.7293 16.6473 20.7704 16.7774C20.8183 16.9075 20.8869 17.0581 20.9348 17.1128C20.9828 17.1676 21.1541 17.4551 21.3186 17.7494C22.0381 19.0226 22.2231 19.2827 23.2442 20.5216C23.7787 21.1651 23.9157 21.3773 23.9569 21.61C24.0254 22.0618 23.9294 22.4383 23.6759 22.7189C23.4498 22.9585 23.4429 22.9653 22.9084 22.9653H22.367L21.9216 22.6025C21.6818 22.404 21.4214 22.185 21.346 22.1234C21.2706 22.0618 21.0719 21.9043 20.9006 21.7743C20.7293 21.6511 20.5442 21.5005 20.4894 21.4526C20.1399 21.1309 17.6387 19.6523 17.2687 19.5428C17.1727 19.5154 17.0014 19.4401 16.8918 19.3717C16.7753 19.3032 16.5766 19.2279 16.4464 19.2006C16.3162 19.1732 16.1106 19.0979 16.0009 19.0294C15.8844 18.961 15.6103 18.872 15.3842 18.8241C15.1581 18.783 14.8771 18.7009 14.7675 18.6529C14.651 18.5982 14.1576 18.5229 13.6642 18.4818C12.513 18.386 11.4508 18.4818 10.93 18.7282C10.7313 18.8172 10.5462 18.8925 10.5188 18.8925C10.416 18.8925 9.75819 19.3648 9.29221 19.7755C8.69603 20.3026 8.27117 20.4327 7.75037 20.2547C7.50367 20.1657 7.43515 19.9877 7.48312 19.5565C7.52423 19.2142 7.81204 18.7762 8.31914 18.2696C8.79882 17.7973 9.03181 17.6262 9.28536 17.5646C9.395 17.5372 9.53891 17.4688 9.59373 17.4208C9.64855 17.3729 9.80616 17.2976 9.93636 17.2566C10.0666 17.2223 10.3612 17.1197 10.5874 17.0375C10.9643 16.9075 11.1013 16.8938 12.1635 16.9212C13.3627 16.9554 13.7738 17.0238 15.0758 17.4208C15.3568 17.5098 15.6994 17.5988 15.8296 17.6262C15.9598 17.6536 16.1448 17.7357 16.2339 17.8042C16.323 17.8795 16.4601 17.9342 16.5423 17.9342C16.6177 17.9342 16.837 18.0095 17.0288 18.1053C17.2139 18.1943 17.4126 18.2765 17.4674 18.2765C17.5222 18.2765 17.6935 18.3518 17.8443 18.4408C18.0019 18.5297 18.2143 18.6187 18.3308 18.6461C18.4405 18.6735 18.5707 18.7282 18.6187 18.7693C18.694 18.8241 19.4273 19.2211 20.1811 19.6044C20.3318 19.6797 20.4963 19.7824 20.5442 19.8303C20.6265 19.9124 20.9006 19.9604 20.9006 19.8919C20.9006 19.7961 20.4072 18.8309 20.3181 18.7556C20.2633 18.7077 20.2153 18.6324 20.2153 18.5845C20.2153 18.5434 20.0646 18.2149 19.8864 17.8589C19.7014 17.503 19.5095 17.0923 19.4615 16.9417C19.4136 16.7911 19.3313 16.62 19.2834 16.5584C19.2285 16.5036 19.1669 16.3462 19.1463 16.2161C19.1189 16.0861 19.023 15.8465 18.9407 15.6754C18.8516 15.5042 18.7763 15.3126 18.7763 15.2441C18.7763 15.1757 18.7009 14.9498 18.6118 14.7307C18.5227 14.5185 18.4268 14.2174 18.3994 14.0668C18.372 13.923 18.3103 13.7177 18.2623 13.615C18.2075 13.5192 18.1321 13.1632 18.0979 12.8278C18.0567 12.4924 17.9882 11.9653 17.9402 11.6505C17.8786 11.2124 17.8854 10.9317 17.9471 10.3841C18.0636 9.48058 18.1458 9.09725 18.2623 8.9672C18.3103 8.91244 18.3857 8.73447 18.4268 8.57703C18.4747 8.41959 18.5364 8.269 18.5707 8.24847C18.6118 8.22109 18.6872 8.09103 18.742 7.96098C18.8516 7.70771 19.3793 7.14641 19.8042 6.83839C20.2016 6.54405 20.6744 6.43453 20.9828 6.55774Z" fill="#E59D47"/>
<path d="M104.297 6.6193C104.455 6.67406 104.708 6.92733 104.708 7.02316C104.708 7.16691 104.414 7.1806 101.316 7.21482C99.6922 7.23536 97.7392 7.28327 96.9648 7.3175C95.6012 7.38595 94.4088 7.41333 89.8724 7.50231C88.3716 7.52969 87.5493 7.57076 87.2683 7.63921C87.0422 7.68713 86.3981 7.77612 85.843 7.83088C85.2811 7.88564 84.7808 7.96778 84.7329 8.00885C84.6849 8.04992 84.3423 8.12521 83.9654 8.17313C83.5953 8.22104 83.191 8.31003 83.0745 8.37164C82.9512 8.44009 82.7045 8.50854 82.5263 8.52907C82.3413 8.55645 82.0466 8.64544 81.8616 8.73442C81.6697 8.82341 81.471 8.8987 81.4025 8.8987C81.3408 8.8987 81.2517 8.93978 81.2106 8.99454C81.1695 9.04245 80.9639 9.13828 80.7583 9.20673C80.5528 9.26834 80.3061 9.3847 80.2101 9.46C79.9566 9.65851 79.7304 9.57637 79.5523 9.22727C79.47 9.06983 79.3604 8.8987 79.3124 8.84394C79.2576 8.78918 79.1617 8.65228 79.1069 8.53592C79.0452 8.41955 78.8944 8.17997 78.7642 8.002C78.6409 7.82403 78.4901 7.57076 78.4284 7.44755C78.3736 7.32434 78.2434 7.11215 78.1475 6.98209C77.9899 6.76305 77.983 6.74251 78.0927 6.66037C78.1886 6.59192 80.7789 6.57139 91.2018 6.57823C98.3491 6.57823 104.242 6.59877 104.297 6.6193Z" fill="#E59D47"/>
<path d="M30.5697 7.14635C30.5902 7.16689 30.8301 7.2148 31.1042 7.25587C31.3783 7.2901 31.7346 7.38593 31.8991 7.46122C32.0635 7.53652 32.228 7.59812 32.2691 7.59812C32.4062 7.59812 33.064 8.43322 33.1737 8.74809C33.2422 8.92606 33.345 9.20671 33.4066 9.37784C33.578 9.83646 33.53 11.1302 33.3244 11.3834C33.249 11.4861 33.16 11.6709 33.1394 11.801C33.0914 12.0406 32.5706 12.595 32.3925 12.595C32.3376 12.595 32.2006 12.4034 32.0841 12.1775C31.8922 11.8078 31.8648 11.6846 31.8648 11.2055V10.6647L32.1389 10.4114C32.2897 10.2745 32.413 10.1171 32.413 10.0555C32.413 9.85015 32.0498 9.60372 31.6935 9.55581C31.5016 9.53527 31.2275 9.46682 31.0768 9.41206C30.6724 9.26832 29.905 9.28201 29.3979 9.44629C29.1649 9.52158 28.8702 9.58319 28.7537 9.58319C28.6372 9.58319 28.4316 9.63795 28.3014 9.71325C28.1712 9.7817 27.9862 9.86384 27.8903 9.89122C27.6093 9.97336 27.0543 10.3704 26.7185 10.7263C26.136 11.3492 25.7865 11.8078 25.7385 12.02C25.7111 12.1432 25.6289 12.2938 25.5604 12.3554C25.485 12.4239 25.4165 12.6155 25.3891 12.8209C25.3617 13.0194 25.2794 13.2658 25.204 13.3685C25.1013 13.5054 25.0533 13.745 25.0053 14.2789C24.9711 14.6759 24.8957 15.292 24.8409 15.6479C24.7449 16.2366 24.7449 16.3666 24.834 16.9074C24.8957 17.2428 24.9642 17.7836 24.9848 18.119C25.0122 18.5297 25.0807 18.8377 25.1903 19.091C25.2794 19.2895 25.3548 19.5222 25.3548 19.6043C25.3548 19.6796 25.4302 19.9055 25.5193 20.0972C25.6083 20.2889 25.7043 20.549 25.7317 20.679C25.7591 20.8091 25.8208 20.9597 25.8756 21.0144C25.9236 21.076 26.0127 21.2608 26.0743 21.4251C26.136 21.5894 26.2251 21.7742 26.2731 21.8358C26.321 21.8906 26.4033 22.0549 26.4444 22.1918C26.4923 22.3355 26.5609 22.4656 26.5883 22.4861C26.6225 22.5066 26.7185 22.6572 26.7939 22.8147C27.0748 23.376 27.2393 23.6635 27.3421 23.773C27.3969 23.8277 27.5339 24.0331 27.6504 24.2316C27.7601 24.4233 27.9931 24.7587 28.1644 24.9777C28.3357 25.1968 28.5276 25.4637 28.5892 25.5732C28.7194 25.7854 29.5623 26.8943 29.8227 27.1818C29.9118 27.2777 30.1037 27.4967 30.2544 27.661C30.412 27.8253 30.7478 28.2223 31.0082 28.544C31.2686 28.8657 31.5359 29.1737 31.5976 29.2285C31.6592 29.2833 31.8648 29.516 32.0635 29.7487L32.413 30.1663V30.7549C32.413 31.4394 32.3719 31.4874 31.8168 31.4805C31.3029 31.4805 30.9671 31.2957 30.3093 30.6728C29.9803 30.3579 29.5966 30.0225 29.4664 29.9198C29.2608 29.7692 28.9456 29.5091 28.2672 28.941C28.1918 28.8725 27.9931 28.6946 27.8218 28.544C27.6504 28.3865 27.3421 28.147 27.1365 28.0101C26.9309 27.8732 26.6637 27.6884 26.5472 27.5925C26.0538 27.1955 25.4919 26.8122 24.6695 26.3193C24.416 26.1688 24.1282 25.9771 24.0185 25.8881C23.9157 25.806 23.7787 25.7375 23.7102 25.7375C23.6416 25.7375 23.5114 25.6759 23.4155 25.6006C23.3196 25.5185 23.1345 25.4226 23.0112 25.3816C22.8879 25.3405 22.7371 25.2652 22.6823 25.2173C22.6206 25.1694 22.4424 25.0804 22.2848 25.0256C22.1204 24.964 21.9216 24.875 21.8394 24.8134C21.7572 24.7587 21.6338 24.7108 21.5721 24.7108C21.5036 24.7108 21.298 24.6355 21.1199 24.5465C20.9417 24.4575 20.6607 24.3617 20.4894 24.3343C20.3181 24.3069 20.0851 24.2384 19.9755 24.1768C19.7356 24.0536 18.0636 23.8277 17.3715 23.8277C16.604 23.8277 14.6921 24.0605 14.5139 24.1768C14.4248 24.2384 14.2124 24.3069 14.0479 24.3343C13.8766 24.3617 13.5066 24.5122 13.2256 24.6628C12.9447 24.8134 12.6295 24.9777 12.5267 25.0325C12.1635 25.2173 10.8957 26.5658 10.8957 26.7574C10.8957 26.8053 10.8204 26.9833 10.7244 27.1613C10.6285 27.3393 10.5531 27.5583 10.5531 27.6541C10.5531 27.75 10.5051 27.9964 10.4503 28.2017C10.1831 29.1806 10.1762 29.2285 10.3749 30.0978C10.4777 30.5427 10.5805 30.974 10.5942 31.0561C10.6079 31.1451 10.7176 31.2615 10.8341 31.3162C11.0602 31.4326 11.0808 31.4258 11.4097 31.104C11.6016 30.9124 12.1018 30.8576 12.7391 30.9603C13.1571 31.0287 13.2667 31.0767 13.3832 31.2272C13.4997 31.3847 13.5066 31.4394 13.4381 31.6106C13.2325 32.0966 12.0538 32.5552 11.163 32.5004C10.7107 32.4662 9.84043 32.2745 9.66226 32.165C9.60744 32.1308 9.43612 32.0418 9.28537 31.9597C8.91532 31.7612 8.64122 31.4121 8.39452 30.8371C8.1958 30.3648 8.1958 30.3374 8.18894 29.0574C8.18894 27.8663 8.20265 27.7363 8.33285 27.483C8.41508 27.3324 8.49731 27.1134 8.52472 27.0038C8.59325 26.7164 9.24425 25.7717 9.71708 25.2789C10.0871 24.8956 10.7176 24.4027 11.1698 24.1563C11.2795 24.0947 11.4371 23.9989 11.5262 23.9441C11.7455 23.8004 12.7322 23.4102 12.8761 23.4102C12.9378 23.4102 13.0543 23.3623 13.1297 23.3144C13.2119 23.2596 13.486 23.1775 13.7464 23.1364C14.0068 23.0885 14.4523 23.0063 14.7332 22.9516C15.5487 22.7873 16.9124 22.7599 17.6798 22.8968C18.0362 22.9584 18.605 23.0406 18.9407 23.0748C19.2765 23.109 19.6808 23.198 19.8316 23.2664C19.9892 23.3349 20.2496 23.4102 20.4209 23.4376C20.5854 23.465 20.8595 23.5471 21.0239 23.6155C21.1953 23.6908 21.3734 23.7524 21.4351 23.7524C21.4899 23.7524 21.7092 23.8277 21.9216 23.9236C22.1341 24.0126 22.4356 24.1221 22.5932 24.1632C22.7577 24.2042 22.8879 24.2658 22.8879 24.3001C22.8879 24.3343 23.0181 24.3959 23.1757 24.4438C23.3401 24.4849 23.5183 24.5602 23.58 24.6149C23.6348 24.6628 23.7924 24.745 23.9226 24.7861C24.0528 24.834 24.2036 24.9093 24.2584 24.9572C24.3201 25.0051 24.4982 25.0941 24.6558 25.1488C24.8134 25.2036 24.9779 25.2857 25.0259 25.3268C25.0738 25.3679 25.3411 25.5322 25.6152 25.6896C26.8007 26.3673 27.068 26.5315 27.1502 26.6684C27.2187 26.7711 28.1027 27.1887 28.1507 27.1407C28.1918 27.0997 27.9314 26.5931 27.7601 26.3878C27.623 26.2304 27.3763 25.847 27.0954 25.361C26.9857 25.1694 26.8555 24.9572 26.8144 24.8819C26.7664 24.8066 26.5883 24.4849 26.417 24.1632C26.2456 23.8414 26.0743 23.5334 26.0332 23.4786C25.9989 23.4239 25.9236 23.2664 25.8619 23.1364C25.7454 22.8763 25.6015 22.5477 25.3342 21.9727C25.2383 21.7674 25.1355 21.5004 25.1081 21.3909C25.0807 21.2745 25.0053 21.076 24.9368 20.946C24.7929 20.6585 24.6284 20.1793 24.4845 19.6112C24.4297 19.3853 24.3269 19.0157 24.2584 18.7898C24.183 18.5639 24.0939 18.1053 24.0528 17.7699C24.0117 17.4345 23.9363 16.9758 23.8815 16.7431C23.7513 16.1887 23.7513 14.7786 23.8815 14.2584C23.9363 14.0393 24.0117 13.6081 24.0459 13.2932C24.1213 12.7045 24.3817 11.7805 24.601 11.3629C24.6627 11.2328 24.7449 11.0275 24.7655 10.9043C24.7929 10.7879 24.8614 10.651 24.9162 10.6031C24.9779 10.5552 25.0738 10.3977 25.1287 10.254C25.1835 10.1103 25.252 9.99389 25.2794 9.99389C25.3137 9.99389 25.3685 9.91175 25.4165 9.81592C25.6289 9.34361 26.7596 8.17995 27.1845 7.99514C27.2872 7.94722 27.4723 7.8377 27.5888 7.75556C27.7053 7.66657 27.8218 7.59812 27.8492 7.59812C27.8766 7.59812 28.0342 7.53652 28.2055 7.46122C28.6235 7.26956 30.4463 7.02314 30.5697 7.14635Z" fill="#E59D47"/>
<path d="M104.619 8.93974C104.708 9.00135 104.777 9.07664 104.777 9.11087C104.777 9.25461 104.414 9.39151 103.941 9.41889C103.667 9.43943 103.043 9.4805 102.557 9.52157C102.063 9.5558 101.412 9.58318 101.104 9.58318C100.741 9.58318 100.405 9.63109 100.124 9.72008C99.8978 9.78853 99.4661 9.87067 99.1782 9.89805C98.8836 9.92543 98.5204 10.0007 98.3696 10.0692C98.2189 10.1308 97.89 10.2129 97.6501 10.2403C97.4034 10.2677 97.0608 10.3567 96.8826 10.4457C96.7044 10.5346 96.4578 10.6099 96.3344 10.6099C96.2111 10.6099 95.9507 10.6921 95.7656 10.7811C95.5738 10.8769 95.3476 10.9522 95.2585 10.9522C95.1626 10.9522 95.0393 11.0001 94.9776 11.0549C94.9228 11.1096 94.6966 11.1986 94.4773 11.2534C94.2581 11.3081 94.0045 11.4177 93.9017 11.4998C93.8058 11.5751 93.655 11.6367 93.5659 11.6367C93.4769 11.6367 93.2918 11.712 93.1548 11.8078C93.0177 11.9036 92.8533 11.9789 92.7916 11.9789C92.7231 11.9789 92.5723 12.0542 92.4421 12.1501C92.3119 12.2459 92.1543 12.3212 92.0858 12.3212C92.0172 12.3212 91.8939 12.3965 91.8117 12.4923C91.7294 12.5882 91.6129 12.6634 91.5581 12.6634C91.4964 12.6634 91.2155 12.814 90.9345 13.0057C90.6536 13.1905 90.3795 13.348 90.3315 13.348C90.2904 13.348 90.1944 13.4027 90.1259 13.4643C90.0094 13.5875 89.8381 13.7107 89.3584 14.0325C88.8034 14.4089 88.6937 14.4911 88.3648 14.7854C87.6316 15.4425 85.9527 17.1675 85.658 17.5577C85.3702 17.941 84.8288 18.6186 84.5479 18.9267C84.4862 19.002 84.2326 19.2963 83.9997 19.577C83.0471 20.7201 81.7109 21.8153 80.7584 22.2397C80.1348 22.5203 79.7579 22.6572 79.6345 22.6572C79.5523 22.6572 79.2919 22.7257 79.0589 22.8078C78.6889 22.931 78.4764 22.9516 77.3526 22.9584C76.6536 22.9653 76.0506 22.9379 76.0163 22.9105C75.9889 22.8763 75.9615 22.5477 75.9615 22.1781C75.9615 21.2608 75.9615 21.2677 77.0031 21.254C78.0379 21.2403 79.5112 21.0144 79.8333 20.8159C79.9635 20.7406 80.1211 20.6722 80.1827 20.6722C80.2992 20.6722 81.1215 20.2751 81.2723 20.1382C81.3271 20.0903 81.5259 19.9534 81.7177 19.8371C82.5058 19.3374 84.1299 17.7699 84.959 16.7089C85.5072 16.0038 87.3643 14.0667 88.0838 13.4506C88.3031 13.259 88.5704 13.0331 88.6732 12.9373C89.0226 12.6292 90.4343 11.7051 90.5645 11.7051C90.6056 11.7051 90.6878 11.6572 90.7358 11.5956C90.7906 11.534 90.9551 11.4245 91.1058 11.356C91.2566 11.2876 91.4279 11.1986 91.4827 11.1644C91.6815 11.0412 92.5038 10.6784 92.586 10.6784C92.6271 10.6784 92.7642 10.6168 92.8807 10.5483C92.9972 10.4799 93.2027 10.3977 93.3329 10.3704C93.4631 10.343 93.6687 10.2677 93.7852 10.1992C93.9017 10.1308 94.1347 10.0555 94.2992 10.0281C94.4636 10.0007 94.7446 9.92543 94.9159 9.85698C95.0872 9.78853 95.375 9.71323 95.5669 9.68585C95.7519 9.65847 96.0946 9.58318 96.3276 9.51473C96.5605 9.43943 97.0197 9.36413 97.3554 9.33675C97.6844 9.31622 98.1298 9.23408 98.3354 9.16563C98.6369 9.0698 99.1234 9.02873 100.597 8.96712C104.105 8.81653 104.448 8.81653 104.619 8.93974Z" fill="#E59D47"/>
<path d="M48.1672 30.5633C48.5236 30.6591 48.921 30.8028 49.0581 30.8918C49.5309 31.2067 50.1408 31.8707 50.3669 32.3156C50.4834 32.5552 50.6205 32.8221 50.6753 32.9111C50.874 33.267 50.8534 35.8066 50.6479 35.9298C50.6068 35.9572 50.5314 36.0872 50.4766 36.2241C50.4149 36.361 50.2915 36.5937 50.1956 36.7375C49.99 37.0387 49.2773 37.7163 49.1608 37.7163C49.1197 37.7163 48.9347 37.7985 48.7497 37.9011C48.4345 38.0791 48.3659 38.0928 47.5231 38.0928C46.735 38.0928 46.6048 38.0791 46.3924 37.9491C46.2622 37.8669 46.0566 37.7779 45.947 37.7574C45.8305 37.73 45.5975 37.5521 45.3919 37.3399C44.9396 36.8675 44.8574 36.5801 44.8985 35.6491C44.9259 35.0262 44.9602 34.8962 45.1521 34.5197C45.4193 33.9995 45.9607 33.4587 46.4403 33.226C46.7556 33.0685 46.8652 33.048 47.3655 33.0754C48.0987 33.1028 48.503 33.2944 48.7908 33.7462C49.0444 34.1432 49.0786 34.7045 48.8662 34.8893C48.6195 35.1015 48.0165 35.3206 47.7972 35.2795C47.3586 35.1974 46.8858 34.9167 46.687 34.6224C46.5774 34.4581 46.4472 34.328 46.3992 34.328C46.3513 34.328 46.2142 34.4649 46.0909 34.6224C45.8168 35.0057 45.7893 35.5191 46.0292 35.8271C46.1183 35.9366 46.1868 36.0804 46.1868 36.1488C46.1868 36.2652 46.3101 36.4021 46.9063 36.9565C47.1188 37.1482 47.6944 37.2577 48.1741 37.1961C49.0855 37.0729 50.0928 35.8134 50.0928 34.8003C50.0928 34.4855 49.8667 33.7667 49.6542 33.4176C49.3185 32.8563 48.1124 31.898 47.7492 31.898C47.6944 31.898 47.5299 31.8296 47.386 31.7474C47.1393 31.6105 47.016 31.5969 46.0429 31.59C45.1452 31.59 44.9465 31.6105 44.8437 31.6995C44.7683 31.7611 44.6038 31.8501 44.4736 31.8912C44.1653 31.987 43.5348 32.5894 43.2813 33.0206C43.1716 33.2054 43.0483 33.5135 43.0003 33.7051C42.9455 33.8968 42.8633 34.1774 42.8016 34.328C42.6577 34.7114 42.6645 35.1152 42.829 35.4985C42.9112 35.6765 42.9935 35.964 43.014 36.1351C43.0346 36.3063 43.1237 36.5732 43.2128 36.7306C43.3018 36.8812 43.3772 37.0729 43.3772 37.155C43.3772 37.2372 43.4389 37.3672 43.5211 37.4494C43.5965 37.5247 43.6924 37.689 43.7336 37.8053C43.7747 37.9285 43.8706 38.0928 43.946 38.175C44.1036 38.3529 44.2132 38.5309 44.3983 38.9279C44.4736 39.0922 44.5696 39.2222 44.6107 39.2222C44.6518 39.2222 44.7409 39.3591 44.8163 39.5303C44.8917 39.7014 44.9807 39.8383 45.015 39.8383C45.0493 39.8383 45.1041 39.9067 45.1315 39.9889C45.1589 40.0779 45.248 40.2353 45.3371 40.338C45.4262 40.4475 45.5015 40.5776 45.5015 40.6255C45.5015 40.6734 45.5632 40.7898 45.6386 40.8787C45.9675 41.2621 46.1868 41.5769 46.1868 41.6591C46.1868 41.707 46.2759 41.8507 46.3855 41.974C46.4883 42.0972 46.6802 42.3778 46.8035 42.59C46.92 42.8091 47.0434 42.987 47.0708 42.987C47.1188 42.987 47.5436 43.6031 47.619 43.7742C47.6327 43.8084 47.7766 43.9932 47.9342 44.1849C48.0987 44.3697 48.2769 44.6435 48.3317 44.7804C48.3934 44.9242 48.4687 45.0405 48.5098 45.0405C48.6195 45.0405 48.9964 45.7661 48.9964 45.9783C48.9964 46.2316 48.8456 46.3685 48.64 46.3137C48.3522 46.2453 47.1941 45.0542 46.4952 44.1233C46.2964 43.8563 45.9744 43.4662 45.7825 43.2608C45.5838 43.0555 45.3782 42.7885 45.3165 42.679C45.2617 42.5626 45.063 42.2957 44.8779 42.0835C44.6929 41.8713 44.5422 41.6796 44.5422 41.6522C44.5422 41.6317 44.4668 41.5085 44.3709 41.3853C44.2749 41.2621 44.1995 41.132 44.1995 41.0909C44.1995 41.0567 44.1242 40.954 44.0282 40.8651C43.9323 40.7761 43.8569 40.6666 43.8569 40.6255C43.8569 40.5776 43.7884 40.4544 43.7061 40.3517C43.528 40.1189 43.4252 39.941 43.0346 39.1538C42.5138 38.1133 42.4178 37.8943 42.4178 37.7711C42.4178 37.6958 42.3562 37.5178 42.2739 37.3604C42.0821 36.9908 41.9861 35.9845 42.041 34.9783C42.0821 34.328 42.1163 34.1364 42.2534 33.8899C42.3425 33.7257 42.4178 33.5545 42.4178 33.5066C42.4178 33.3423 42.8838 32.7331 43.4183 32.2061C44.0693 31.5626 44.2132 31.4531 44.8505 31.1109C45.1178 30.974 45.3576 30.8371 45.3987 30.8028C45.4604 30.7549 45.6797 30.7002 46.8378 30.4537C47.249 30.3716 47.4614 30.3853 48.1672 30.5633Z" fill="#E59D47"/>
<path d="M36.97 41.1456C37.0797 41.1799 37.4223 41.2415 37.7238 41.2825C38.0596 41.3305 38.3337 41.4126 38.4365 41.4879C38.5256 41.5632 38.6626 41.6179 38.738 41.6179C38.9093 41.6179 40.5197 42.3983 40.6293 42.5352C40.6773 42.5899 40.8006 42.6584 40.9103 42.6789C41.0131 42.6995 41.157 42.7816 41.2255 42.8569C41.2872 42.9254 41.3694 42.987 41.4105 42.987C41.4448 42.987 41.5613 43.0623 41.6778 43.1581C41.7874 43.2539 41.9245 43.3292 41.9724 43.3292C42.0204 43.3292 42.2466 43.473 42.4658 43.6578C42.6851 43.8357 43.014 44.089 43.2059 44.2122C43.5211 44.4313 44.1379 44.931 44.5216 45.2801C44.7478 45.4786 44.878 45.5881 45.3302 45.9303C46.5706 46.8749 47.2969 47.669 47.1873 47.9633C47.1325 48.1071 46.4267 48.0797 46.2759 47.9291C46.2074 47.8606 46.0772 47.7717 45.9812 47.7306C45.8305 47.669 45.1658 47.1761 44.8163 46.8749C44.7615 46.827 44.6381 46.7517 44.5422 46.7107C44.4462 46.6696 44.1858 46.4916 43.9734 46.3137C43.761 46.1425 43.5623 45.9988 43.5417 45.9988C43.4663 45.9988 42.7948 45.5402 42.6988 45.4238C42.644 45.3622 42.5823 45.3143 42.5481 45.3143C42.4727 45.3143 41.7737 44.883 41.7463 44.8146C41.7326 44.7872 41.6024 44.7051 41.4585 44.6298C41.3146 44.5545 41.0542 44.397 40.876 44.2738C40.6979 44.1506 40.5197 44.0274 40.4717 44C40.4306 43.9726 40.2045 43.8426 39.9646 43.6988C39.7316 43.5619 39.5398 43.425 39.5398 43.3977C39.5398 43.3703 39.4233 43.3018 39.2794 43.2402C39.1423 43.1786 38.9025 43.0486 38.7517 42.9527C38.5119 42.8021 38.3131 42.7063 37.5182 42.3435C37.4017 42.2888 37.0591 42.1656 36.7576 42.0697C35.9627 41.8165 35.4008 41.8301 34.5647 42.1108C33.9823 42.3025 33.8658 42.3777 33.4066 42.8021C33.0298 43.1512 32.8379 43.3908 32.6734 43.7262C32.4473 44.1848 32.4473 44.1848 32.4473 45.2458C32.4473 46.2657 32.4541 46.3205 32.6323 46.6764C32.7419 46.8818 32.8242 47.1077 32.8242 47.1693C32.8242 47.2377 32.8584 47.313 32.8927 47.3336C32.9338 47.3609 33.0503 47.5047 33.1462 47.6621C33.4546 48.155 34.0988 48.7163 34.6607 48.9832C35.1472 49.216 35.2157 49.2296 35.7434 49.2023C36.134 49.1886 36.3396 49.1475 36.4287 49.0722C36.504 49.0106 36.6685 48.9216 36.7987 48.8805C37.1619 48.7642 37.7444 48.1413 37.9362 47.669C38.1007 47.2651 38.1555 46.7928 38.039 46.7244C38.0048 46.7038 37.9568 46.5806 37.9362 46.4506C37.8609 46.0672 37.4086 45.5675 36.8878 45.2937C36.6274 45.1637 36.319 45.0336 36.2025 45.0062C35.8942 44.9446 35.5378 45.0747 35.3185 45.3348L35.1404 45.547L35.2911 45.6565C35.4899 45.7934 35.764 46.0672 35.8873 46.252C36.0244 46.4506 36.0381 47.4636 35.9147 47.7648C35.7982 48.0455 35.4282 48.1687 34.9691 48.0797C34.7018 48.0249 34.599 47.9565 34.3043 47.6142L33.9549 47.2172V46.4848C33.9549 45.7592 33.9549 45.7524 34.2084 45.3759C34.4825 44.9583 35.017 44.486 35.4967 44.2191C35.7777 44.0685 35.8805 44.0548 36.6617 44.0479C37.4771 44.0479 37.5388 44.0548 37.7444 44.2191C38.2378 44.5955 38.4433 44.7872 38.4433 44.8557C38.4433 44.8967 38.505 44.9994 38.5872 45.0815C38.6695 45.1705 38.7449 45.3759 38.7791 45.5949C38.8065 45.8003 38.8819 46.0604 38.9436 46.1836C39.0875 46.4574 39.0943 46.8681 38.9504 47.1556C38.8888 47.2788 38.8271 47.5047 38.8065 47.6621C38.786 47.8196 38.69 48.0865 38.5872 48.2576C38.3543 48.6615 37.6005 49.3939 37.3606 49.4555C37.2578 49.4761 37.1139 49.5582 37.0385 49.6267C36.9632 49.6883 36.7781 49.7704 36.6274 49.7978C36.4835 49.8252 36.2642 49.8936 36.1477 49.9552C35.8873 50.0921 34.5442 50.1127 34.3797 49.9826C34.3249 49.9347 34.0988 49.8525 33.8863 49.7978C33.4546 49.6814 33.16 49.5377 32.8927 49.3118C32.7968 49.2296 32.6392 49.1201 32.5432 49.0722C32.3582 48.9695 31.8648 48.4493 31.8648 48.3535C31.8648 48.3261 31.7826 48.1824 31.6866 48.0455C31.5907 47.9086 31.4879 47.6279 31.4536 47.4226C31.4194 47.224 31.3577 46.9092 31.3166 46.7312C31.2549 46.4779 31.2549 46.3 31.3166 45.9782C31.3646 45.7455 31.4262 45.3896 31.4605 45.1842C31.4948 44.9857 31.6044 44.6777 31.6935 44.5066C31.7894 44.3286 31.8648 44.1575 31.8648 44.1164C31.8717 43.8974 32.9475 42.5147 33.3587 42.2135C33.4957 42.1108 33.7287 41.9328 33.8795 41.8233C34.0234 41.7069 34.181 41.6179 34.229 41.6179C34.2769 41.6179 34.3934 41.5563 34.4825 41.481C34.5785 41.4126 34.7909 41.3305 34.9553 41.3031C35.1198 41.2825 35.4076 41.2209 35.5926 41.1662C35.9764 41.0567 36.6548 41.0498 36.97 41.1456Z" fill="#E59D47"/>
<path d="M23.7238 74.9191C23.8266 74.9807 23.9363 75.1039 23.9568 75.2066C23.9842 75.3024 23.9842 75.9185 23.9637 76.5756C23.9363 77.5613 23.902 77.8077 23.7924 78.0199C23.7238 78.1568 23.6416 78.4169 23.621 78.6018C23.5936 78.7797 23.4977 79.0741 23.4018 79.252C23.3058 79.43 23.2304 79.6148 23.2304 79.6696C23.2304 79.7243 23.1551 79.8818 23.0728 80.0118C22.9838 80.1487 22.8124 80.4088 22.6891 80.6005C22.2642 81.2713 21.346 82.2639 20.4551 83.0237C20.1193 83.3111 19.7219 83.6602 19.578 83.7971C19.4341 83.934 19.0298 84.2626 18.6871 84.5296C17.5153 85.4126 16.5765 86.3298 15.6583 87.4798C15.1992 88.0548 15.1101 88.1643 14.9936 88.3012C14.9319 88.3696 14.8291 88.5271 14.7606 88.6503C14.6441 88.8899 14.6304 88.8967 14.3357 89.2595C14.2261 89.3896 14.1096 89.5744 14.0822 89.6702C14.0548 89.766 13.9794 89.8961 13.9177 89.9714C13.8081 90.0946 13.6299 90.4095 13.3764 90.9434C13.301 91.1008 13.205 91.2514 13.1708 91.2719C13.1297 91.2925 13.0611 91.4294 13.0132 91.5731C12.9652 91.71 12.8761 91.9017 12.8076 91.9975C12.7459 92.0934 12.6705 92.2782 12.65 92.4151C12.6226 92.552 12.5472 92.7163 12.4718 92.7847C12.3964 92.8532 12.3348 92.9764 12.3348 93.0585C12.3348 93.1406 12.2594 93.3597 12.1634 93.5445C12.0675 93.7293 11.9716 93.9894 11.951 94.1195C11.9236 94.2495 11.8482 94.4686 11.7865 94.5986C11.718 94.7287 11.6289 95.0025 11.5878 95.201C11.5467 95.3995 11.4645 95.6596 11.4028 95.7828C11.3411 95.8992 11.2657 96.2141 11.2315 96.481C11.2041 96.7411 11.1218 97.0971 11.0465 97.2682C10.9711 97.4393 10.8957 97.8158 10.8683 98.1033C10.8477 98.3908 10.7792 98.7604 10.7244 98.9247C10.6422 99.1369 10.5805 99.8146 10.4982 101.32C10.3886 103.251 10.368 103.436 10.2447 103.559C9.8678 103.942 9.81298 103.422 9.92948 100.28C9.97745 98.9726 10.0391 98.0896 10.1076 97.7816C10.1693 97.5146 10.2447 96.9533 10.2858 96.5221C10.3269 96.0909 10.416 95.5638 10.4914 95.3584C10.5599 95.1531 10.6216 94.8588 10.6216 94.715C10.6216 94.5713 10.697 94.2632 10.7861 94.0305C10.8751 93.7978 10.9848 93.4418 11.0259 93.2433C11.067 93.0448 11.1424 92.8121 11.1972 92.7299C11.252 92.6478 11.3137 92.4698 11.3411 92.3398C11.3685 92.2097 11.4645 91.9633 11.5536 91.7922C11.6426 91.621 11.718 91.4431 11.718 91.3952C11.718 91.3199 11.903 90.916 12.1771 90.3889C12.602 89.5744 12.8487 89.1363 12.9446 89.0199C13.0132 88.9446 13.1022 88.8077 13.1434 88.7119C13.2324 88.5339 13.2804 88.4655 13.9451 87.5825C14.5619 86.7679 16.3504 85.0087 18.0224 83.5781C19.2285 82.5445 19.7767 81.9764 20.7361 80.7785C20.8115 80.6826 20.9485 80.4773 21.0445 80.3267C21.1335 80.1761 21.25 79.9913 21.2912 79.916C21.3391 79.8407 21.4419 79.6422 21.5173 79.4711C21.5927 79.2999 21.716 79.0398 21.7845 78.8892C21.8531 78.7387 21.9901 78.2732 22.0929 77.8625C22.2505 77.2191 22.2711 76.9589 22.2711 76.0965V75.0834L22.5246 74.9739C22.8947 74.8164 23.4977 74.7891 23.7238 74.9191Z" fill="#E59D47"/>
<path d="M7.88058 77.0546C7.9354 77.0751 8.07246 77.1709 8.17525 77.2531C8.28489 77.342 8.40823 77.4173 8.44935 77.4242C8.49732 77.4242 8.7029 77.5474 8.90848 77.6911C9.11406 77.8417 9.39501 78.0129 9.52521 78.0745C9.65541 78.1361 9.81988 78.2319 9.88155 78.2867C9.94323 78.3414 10.094 78.4441 10.2242 78.5057C10.56 78.6905 10.6216 78.9233 10.3955 79.245C10.2996 79.3887 10.1968 79.5941 10.1694 79.7104C10.1488 79.82 10.0734 79.9774 10.0049 80.0527C9.93637 80.128 9.86785 80.2991 9.84044 80.4292C9.81988 80.5592 9.73765 80.792 9.66912 80.9425C9.59374 81.0931 9.50466 81.3875 9.46354 81.5928C9.42243 81.7982 9.34019 82.0583 9.27852 82.1678C9.2237 82.2773 9.15517 82.6196 9.12091 82.9208C9.0935 83.2288 9.01127 83.5779 8.94959 83.7079C8.86051 83.8791 8.81254 84.2213 8.76457 85.0496C8.72346 85.7615 8.66178 86.2748 8.59326 86.4597C8.4562 86.8224 8.40138 89.3209 8.326 97.6787C8.27803 102.45 8.25748 103.155 8.16154 103.381C8.03819 103.675 7.90114 103.702 7.72297 103.463C7.61333 103.305 7.59962 102.614 7.59277 90.1697C7.57907 76.1647 7.56536 76.9313 7.88058 77.0546Z" fill="#E59D47"/>
</svg>
