<svg width="113" height="110" viewBox="0 0 113 110" fill="none" xmlns="http://www.w3.org/2000/svg">
<path d="M63.9693 103.696C63.5582 103.668 63.0648 103.593 62.8729 103.538C62.6879 103.477 62.3795 103.429 62.2013 103.429C62.0163 103.429 61.6805 103.353 61.4476 103.271C61.2146 103.182 60.8377 103.073 60.6184 103.032C60.3991 102.991 60.1661 102.908 60.1044 102.854C60.0428 102.799 59.8783 102.737 59.7344 102.71C59.5973 102.683 59.4055 102.6 59.3164 102.532C59.2273 102.457 59.0903 102.402 59.0217 102.402C58.9463 102.402 58.7887 102.327 58.6585 102.231C58.5283 102.135 58.3707 102.06 58.3091 102.06C58.2405 102.06 58.1035 101.984 57.9938 101.902C57.891 101.813 57.7197 101.717 57.6169 101.69C57.5141 101.669 57.2675 101.512 57.0687 101.355C56.87 101.19 56.6576 101.04 56.5959 101.019C56.3423 100.923 55.616 100.307 54.9307 99.616C54.1975 98.8699 53.9576 98.5755 53.7452 98.1785C53.6835 98.0553 53.6013 97.9526 53.5739 97.9526C53.5396 97.9526 53.4574 97.8363 53.3957 97.6994C53.3272 97.5556 53.2038 97.3297 53.1216 97.1997C53.0394 97.0696 52.9708 96.9122 52.9708 96.8506C52.9708 96.789 52.9092 96.6863 52.8338 96.6178C52.7584 96.5494 52.6967 96.433 52.6967 96.3577C52.6967 96.2824 52.6214 96.0565 52.5254 95.858C52.4295 95.6595 52.3335 95.3447 52.3061 95.1667C52.2856 94.9887 52.2239 94.7697 52.1691 94.6875C52.1143 94.6054 52.0457 94.3453 52.0115 94.1125C51.9772 93.8798 51.9018 93.6402 51.8402 93.5786C51.5661 93.298 46.5979 93.3185 46.0634 93.5992C45.9332 93.6676 45.6454 93.7498 45.4261 93.784C45.2 93.8182 44.8984 93.9072 44.7614 93.9825C44.6243 94.0578 44.4599 94.1194 44.405 94.1194C44.3502 94.1194 44.2063 94.181 44.083 94.2495C43.9665 94.3247 43.7061 94.4343 43.5074 94.489C43.3086 94.5506 43.1305 94.6259 43.1099 94.6533C43.0893 94.6807 42.9866 94.756 42.8838 94.8244C42.6508 94.975 42.6439 95.0914 42.8632 95.5021C42.9591 95.6801 43.0345 95.8786 43.0345 95.9402C43.0345 96.0018 43.0962 96.1524 43.1647 96.2687C43.2401 96.3851 43.336 96.6794 43.3772 96.9259C43.4183 97.1654 43.5005 97.4529 43.5622 97.5693C43.7266 97.891 43.6992 99.5133 43.5211 100.02C43.4388 100.239 43.3772 100.478 43.3772 100.561C43.3772 100.65 43.2812 100.917 43.1647 101.163C42.918 101.676 42.3972 102.217 42.0203 102.34C41.6708 102.457 40.9376 102.381 40.6978 102.203C40.595 102.121 40.4785 102.06 40.4442 102.06C40.2729 102.06 39.2724 100.855 39.2656 100.636C39.2656 100.588 39.1833 100.389 39.0805 100.198C38.8955 99.8419 38.8955 99.835 38.9024 98.4523C38.9092 97.097 38.9161 97.0491 39.0874 96.7205C39.1833 96.5357 39.2656 96.3098 39.2656 96.2208C39.2656 96.1318 39.3409 95.9607 39.4369 95.8307C39.5328 95.7006 39.6082 95.5637 39.6082 95.5226C39.6082 95.4747 39.8412 95.2009 40.1221 94.9134C40.8828 94.1262 40.8759 94.0578 40.0605 93.606C39.759 93.4349 39.4574 93.2638 39.4026 93.2295C39.0326 93.0037 38.3268 92.7983 37.6209 92.7093C36.9425 92.6272 36.7301 92.6272 36.0448 92.7093C35.0649 92.8325 34.7017 92.9763 33.7972 93.5923C33.2901 93.9346 32.4129 94.9203 32.4129 95.1462C32.4129 95.2078 32.3444 95.3515 32.2622 95.461C32.1114 95.6458 32.1046 95.7211 32.1046 96.6863C32.1046 97.7815 32.1183 97.8499 32.6048 98.7398C32.7213 98.9452 32.7693 99.7392 32.6733 99.835C32.5842 99.924 32.2759 99.6297 32.1662 99.3422C32.1046 99.1779 32.0155 99.0136 31.9607 98.9725C31.9127 98.9315 31.851 98.8014 31.8236 98.685C31.803 98.5618 31.7277 98.3907 31.6591 98.2949C31.5906 98.199 31.5084 97.9526 31.4673 97.7473C31.4261 97.5419 31.3508 97.2476 31.2891 97.097C31.1315 96.6726 31.1383 95.2557 31.3028 94.9408C31.3782 94.8107 31.4536 94.5506 31.481 94.3658C31.5015 94.1742 31.5838 93.962 31.6523 93.8867C31.7208 93.8045 31.7962 93.6608 31.8236 93.5581C31.8853 93.2843 32.6665 92.3328 33.0502 92.059C33.2352 91.929 33.4682 91.7579 33.571 91.6757C33.6738 91.5936 33.852 91.5046 33.9616 91.4772C34.0713 91.4498 34.2357 91.3745 34.3317 91.3061C34.4893 91.1897 35.0512 91.0939 36.1476 90.9912C36.3326 90.9707 36.689 90.9912 36.9357 91.0323C37.1824 91.0733 37.6004 91.1418 37.8745 91.1829C38.1486 91.2239 38.4021 91.2992 38.4433 91.354C38.4912 91.4019 38.6351 91.4635 38.779 91.4909C38.9161 91.5183 39.0874 91.5867 39.1628 91.6552C39.2382 91.7168 39.4026 91.8058 39.5191 91.8468C39.7247 91.9153 40.1221 92.1754 40.3483 92.3944C40.3963 92.4355 40.4648 92.4766 40.499 92.4766C40.5333 92.4766 40.7731 92.6751 41.0404 92.9215C41.3077 93.1679 41.5406 93.3664 41.5612 93.3664C41.664 93.3664 42.2876 92.9831 43.0551 92.4629C43.2607 92.3191 43.4525 92.2028 43.4936 92.2028C43.5279 92.2028 43.6581 92.1275 43.7815 92.0385C43.9117 91.9427 44.0967 91.8468 44.2063 91.8263C44.3091 91.7989 44.4325 91.7373 44.4736 91.6826C44.5215 91.6346 44.686 91.5525 44.8436 91.5114C44.9944 91.4704 45.1725 91.3951 45.2274 91.3403C45.289 91.2924 45.522 91.2034 45.7482 91.1555C45.9812 91.1007 46.2416 91.0049 46.3375 90.9433C46.4266 90.8817 46.7007 90.8132 46.9474 90.7927C47.1872 90.7653 47.5093 90.6969 47.6601 90.6353C47.8862 90.5463 48.2836 90.5257 49.846 90.5189C51.5249 90.5121 51.7716 90.4984 51.8402 90.4025C51.8881 90.3341 51.9361 89.9234 51.9635 89.4374C51.9909 88.8213 52.0389 88.4996 52.1417 88.2532C52.2102 88.0752 52.2924 87.7398 52.3198 87.5139C52.3404 87.288 52.4158 87.0074 52.4912 86.8842C52.5597 86.7678 52.6419 86.5214 52.6693 86.3366C52.6967 86.1586 52.7721 85.9259 52.8475 85.8232C52.916 85.7205 52.9983 85.4946 53.0325 85.3167C53.0668 85.1387 53.1422 84.9539 53.197 84.9128C53.2518 84.8717 53.3272 84.728 53.3683 84.5842C53.4094 84.4473 53.5054 84.2488 53.5807 84.153C53.663 84.0503 53.7246 83.9203 53.7246 83.8518C53.7246 83.7902 53.7863 83.6807 53.8685 83.6054C53.9439 83.5369 54.0536 83.3795 54.1015 83.2631C54.218 82.9756 54.3414 82.8319 55.0335 82.1474C55.7325 81.456 56.0545 81.1822 56.1642 81.1822C56.2053 81.1822 56.3218 81.1206 56.4246 81.0385C56.6781 80.84 57.2812 80.5251 57.5279 80.4704C57.6443 80.443 57.7814 80.3745 57.8431 80.3198C57.9116 80.2582 58.1377 80.1897 58.357 80.1555C58.5832 80.1281 58.9326 80.046 59.1382 79.9775C59.6933 79.7859 62.2013 79.7859 62.8044 79.9775C63.0305 80.046 63.4074 80.1281 63.6404 80.1555C63.9077 80.1897 64.1338 80.265 64.2503 80.354C64.3531 80.4361 64.4901 80.4977 64.5587 80.4977C64.9904 80.4977 66.2924 81.4492 67.0393 82.3048C67.5121 82.8456 68.0124 83.7834 68.0878 84.2694C68.1152 84.4336 68.1974 84.6938 68.2796 84.8443C68.4098 85.0976 68.4235 85.2277 68.4235 86.4529C68.4167 87.6508 68.403 87.8219 68.2796 88.13C68.1974 88.3216 68.1083 88.6502 68.0878 88.8624C68.0604 89.0814 67.9781 89.3279 67.9027 89.4237C67.8342 89.5127 67.7725 89.6359 67.7725 89.6906C67.7725 89.7454 67.6972 89.896 67.6081 90.0329C67.519 90.163 67.4231 90.3341 67.4025 90.4094C67.3203 90.6558 66.2787 91.6415 66.0046 91.7305C65.8675 91.7715 65.6962 91.8605 65.6208 91.9221C65.5249 92.0111 65.2987 92.0385 64.4833 92.0522L63.4759 92.0796L63.0031 91.8331C62.7222 91.6962 62.3864 91.443 62.1739 91.2239C61.7696 90.8064 61.7696 90.8064 61.8107 89.6701C61.8313 89.0404 61.893 88.7803 62.03 88.7803C62.1123 88.7803 62.496 89.1773 62.496 89.2663C62.496 89.2868 62.6468 89.4032 62.8386 89.5264C63.1059 89.6975 63.2909 89.7591 63.6747 89.8002C64.4079 89.8823 65.2028 89.7796 65.6893 89.5537C66.6076 89.1157 66.9639 88.8145 67.3066 88.1779C67.519 87.7946 67.519 87.7809 67.519 86.761C67.519 85.7821 67.5121 85.7137 67.3408 85.3783C67.238 85.1798 67.1558 84.9607 67.1558 84.8923C67.1558 84.817 67.0941 84.6801 67.0188 84.5842C66.9365 84.4884 66.7652 84.2351 66.6213 84.0298C66.4363 83.756 66.1964 83.5369 65.7647 83.2358C65.4358 83.0099 65.0795 82.8045 64.9767 82.784C64.8739 82.7566 64.7163 82.6813 64.6203 82.6197C64.5244 82.5581 64.2503 82.4623 64.0036 82.4212C63.7569 82.3733 63.4554 82.2911 63.3252 82.2364C62.729 81.99 59.0834 81.99 58.6037 82.2364C58.5009 82.2911 58.2337 82.3664 58.0075 82.4144C57.7814 82.4623 57.5484 82.5376 57.4867 82.5923C57.4319 82.6471 57.2743 82.7224 57.1441 82.7635C57.0139 82.8114 56.8289 82.914 56.7261 82.9893C56.6302 83.0715 56.4246 83.2084 56.2738 83.2974C55.9449 83.489 55.1294 84.2831 54.8896 84.6322C54.7936 84.7759 54.6429 84.9813 54.5538 85.0976C54.3756 85.3167 54.2112 85.5905 54.0262 85.9738C53.9645 86.1038 53.8548 86.2955 53.7863 86.3982C53.7109 86.494 53.6561 86.6104 53.6561 86.6514C53.6561 86.6925 53.567 86.9252 53.4505 87.158C53.3409 87.3976 53.245 87.6782 53.245 87.7809C53.245 87.8836 53.1833 88.0821 53.1079 88.2327C53.0325 88.3832 52.9366 88.7392 52.8955 89.0335C52.8612 89.3279 52.7858 89.7043 52.731 89.8755C52.5528 90.471 52.5528 90.6147 52.7173 90.7311C52.7995 90.7859 52.9229 90.8338 52.9983 90.8338C53.0668 90.8338 53.2244 90.8954 53.3409 90.9638C53.4574 91.0323 53.7315 91.1281 53.9439 91.176C54.1564 91.2171 54.3688 91.2992 54.4099 91.354C54.4579 91.4019 54.547 91.4498 54.6155 91.4498C54.6772 91.4498 54.8827 91.5251 55.0678 91.6209C55.2528 91.7168 55.4378 91.7921 55.4858 91.7921C55.5269 91.7921 55.6502 91.8674 55.7599 91.9564C55.8627 92.0453 56.0682 92.1549 56.2121 92.1959C56.3492 92.2439 56.4657 92.3123 56.4657 92.3465C56.4657 92.3808 56.5479 92.4492 56.6576 92.4903C56.9248 92.6135 57.3634 92.8873 57.5416 93.0516C57.6238 93.1337 57.802 93.2706 57.939 93.3664C58.5969 93.8114 59.7824 94.9271 60.2483 95.5226C60.3306 95.639 60.6252 96.0018 60.8993 96.3303C61.1735 96.6589 61.3996 96.9601 61.3996 96.9943C61.3996 97.0285 61.475 97.1723 61.5709 97.3092C61.6668 97.4461 61.7422 97.6583 61.7422 97.7747C61.7422 97.891 61.7765 98.1032 61.8176 98.247C61.893 98.5276 61.8519 98.774 61.7217 98.774C61.6737 98.7672 61.5435 98.685 61.427 98.5824C60.1935 97.5009 59.4466 96.9259 59.2821 96.9259C59.2479 96.9259 59.1793 96.878 59.1314 96.8163C58.9669 96.6178 57.1578 95.5226 56.5 95.2214C56.4246 95.1872 56.0408 95.0093 55.6434 94.8244C55.2459 94.6396 54.8142 94.4616 54.6909 94.4411C54.5607 94.4137 54.4236 94.3521 54.3825 94.2974C54.3071 94.2015 53.2655 93.9414 53.2038 94.003C53.1422 94.0646 53.3066 94.8244 53.4026 94.934C53.4574 94.9956 53.5602 95.1667 53.6356 95.3173C54.0124 96.0497 54.1084 96.214 54.2112 96.3098C54.2728 96.3646 54.5058 96.6452 54.7388 96.9259C55.198 97.5009 55.5269 97.8226 56.2258 98.3907C56.4931 98.6029 56.7535 98.8219 56.8152 98.8767C56.87 98.9315 57.103 99.0752 57.3291 99.1916C57.5484 99.3079 57.8088 99.4722 57.9047 99.5612C58.0007 99.6433 58.172 99.7392 58.2816 99.7597C58.3981 99.7871 58.5489 99.8692 58.6243 99.9308C58.6997 99.9993 58.8504 100.075 58.9601 100.102C59.0697 100.129 59.241 100.211 59.3301 100.287C59.426 100.355 59.5836 100.417 59.6864 100.417C59.7892 100.417 60.0085 100.492 60.173 100.581C60.3443 100.663 60.6184 100.759 60.7897 100.786C60.961 100.814 61.2077 100.889 61.3379 100.958C61.4681 101.026 61.7696 101.101 62.0163 101.129C62.2562 101.156 62.6399 101.245 62.8661 101.32C63.2567 101.457 63.428 101.464 65.5797 101.464C67.5944 101.464 67.9096 101.45 68.1494 101.348C68.3002 101.286 68.6223 101.19 68.869 101.136C69.1157 101.081 69.4377 100.978 69.5885 100.896C69.7324 100.821 69.9243 100.759 69.9997 100.759C70.0819 100.759 70.2463 100.684 70.3765 100.588C70.5067 100.492 70.6575 100.417 70.726 100.417C70.7877 100.417 70.9111 100.355 71.0001 100.287C71.0961 100.218 71.2742 100.109 71.4044 100.047C71.6374 99.9377 72.2747 99.5201 72.775 99.1505C73.2615 98.7877 73.7892 98.3086 74.6937 97.405C75.8312 96.2619 76.2287 95.8307 76.3658 95.5774C76.4274 95.4747 76.585 95.2488 76.7152 95.0777C76.8454 94.9066 76.9893 94.6944 77.0305 94.5985C77.0716 94.5027 77.147 94.3727 77.2086 94.3111C77.3251 94.181 77.4348 93.9893 77.8048 93.2501C78.2845 92.2712 78.449 91.8948 78.4901 91.662C78.5175 91.532 78.5792 91.3745 78.634 91.3061C78.6957 91.2445 78.771 91.0117 78.8053 90.7859C78.8464 90.5531 78.9286 90.2383 79.004 90.074C79.0725 89.9097 79.1548 89.5127 79.1753 89.191C79.2027 88.8692 79.2713 88.4106 79.3398 88.1642C79.4837 87.6097 79.5043 85.5905 79.3672 85.0429C79.2439 84.5705 79.237 84.5363 79.1822 83.7834C79.1548 83.4069 79.0794 83.0167 79.0109 82.8593C78.9423 82.7087 78.8533 82.3596 78.819 82.0789C78.7779 81.8051 78.6957 81.5245 78.6408 81.4629C78.5792 81.3944 78.4969 81.1617 78.4558 80.9358C78.4147 80.7168 78.3256 80.4498 78.2502 80.354C78.1817 80.2513 78.12 80.1144 78.12 80.0391C78.12 79.9707 78.0447 79.779 77.9556 79.6079C77.8665 79.4368 77.7568 79.1835 77.7157 79.0466C77.6678 78.9097 77.5924 78.7591 77.5376 78.718C77.4896 78.677 77.4211 78.5401 77.4005 78.4237C77.3731 78.3005 77.2977 78.143 77.2292 78.0677C77.1607 77.9925 77.0579 77.8213 76.9962 77.6913C76.9345 77.5612 76.7906 77.3148 76.681 77.1437C76.5713 76.9725 76.4274 76.7261 76.3658 76.5961C76.3041 76.466 76.215 76.3291 76.1602 76.288C76.1054 76.2538 75.9477 76.0279 75.797 75.7883C75.6531 75.5556 75.3927 75.1997 75.2214 75.0012C74.8924 74.6247 73.9399 73.4816 73.6795 73.1462C73.5562 72.9887 73.5288 72.8587 73.5288 72.4959C73.5288 72.0578 73.5425 72.0236 73.7755 71.7977C74.0016 71.5786 74.0359 71.5649 74.5155 71.5649H75.0089L75.797 72.2152C76.2287 72.578 76.7152 72.975 76.8797 73.1051C77.051 73.2351 77.2635 73.4063 77.3525 73.4884C77.7226 73.817 77.798 73.8717 77.9761 73.947C78.1543 74.0292 78.3804 74.1729 78.7231 74.4467C78.8259 74.5289 78.9835 74.6178 79.0794 74.6452C79.1753 74.6726 79.2987 74.7411 79.3604 74.7958C79.422 74.8506 79.703 75.008 79.9771 75.1518C80.2581 75.2955 80.5801 75.4598 80.6898 75.5214C81.1009 75.7404 81.8136 76.0485 81.9027 76.0485C81.9507 76.0485 82.0877 76.1032 82.1973 76.1717C82.3138 76.2401 82.5605 76.3359 82.7456 76.3839C82.9374 76.4318 83.1499 76.5071 83.2252 76.555C83.3006 76.6097 83.5062 76.6714 83.6707 76.6987C83.842 76.7261 84.1366 76.8083 84.3217 76.8767C84.5135 76.952 84.9453 77.041 85.2879 77.0752C85.6237 77.1094 86.028 77.1916 86.1787 77.26C86.4117 77.3695 86.6858 77.3832 88.5018 77.3832C90.2629 77.3832 90.5918 77.3627 90.8043 77.2669C90.9413 77.2053 91.3456 77.1231 91.6951 77.0752C92.0446 77.0273 92.442 76.9315 92.5722 76.863C92.7024 76.7946 92.9491 76.7193 93.1205 76.6919C93.2918 76.6645 93.5248 76.5892 93.6413 76.5208C93.7509 76.4455 93.8879 76.3907 93.9428 76.3907C94.1209 76.3907 96.3138 75.3092 96.4097 75.1791C96.4303 75.1449 96.6496 74.9943 96.8963 74.83C97.4034 74.5015 97.5747 74.3714 97.8488 74.1318C97.9516 74.036 98.3627 73.6801 98.7533 73.331C99.3838 72.7834 100.021 72.1262 100.816 71.2227C101.028 70.9831 101.412 70.4492 101.775 69.8948C101.844 69.7989 101.967 69.573 102.063 69.4019C102.152 69.2308 102.282 69.0528 102.337 69.0049C102.399 68.9501 102.447 68.8475 102.447 68.7653C102.447 68.6832 102.522 68.5121 102.611 68.3957C102.7 68.2725 102.79 68.0466 102.817 67.8892C102.844 67.7386 102.92 67.5401 102.988 67.4511C103.057 67.3621 103.139 67.1088 103.166 66.8966C103.194 66.6776 103.283 66.349 103.358 66.1574C103.502 65.8288 103.509 65.7193 103.509 63.6247C103.509 61.7286 103.495 61.4 103.393 61.181C103.331 61.0441 103.242 60.6266 103.194 60.2569C103.146 59.8668 103.057 59.504 102.988 59.3876C102.92 59.2712 102.844 59.0385 102.817 58.8674C102.796 58.6962 102.7 58.4088 102.611 58.2239C102.522 58.0323 102.447 57.7995 102.447 57.7037C102.447 57.601 102.385 57.4641 102.317 57.4025C102.248 57.3341 102.152 57.1493 102.111 56.9781C102.07 56.807 101.988 56.6564 101.933 56.6359C101.885 56.6154 101.816 56.499 101.796 56.3826C101.768 56.2594 101.693 56.102 101.625 56.0267C101.556 55.9514 101.453 55.7803 101.392 55.6502C101.33 55.5201 101.186 55.2874 101.076 55.1368C100.96 54.9862 100.809 54.7535 100.741 54.6234C100.562 54.288 98.4998 52.2277 98.3422 52.2277C98.3079 52.2277 98.0749 52.0839 97.8145 51.9128C97.5541 51.7348 97.2389 51.5637 97.1087 51.5295C96.9785 51.4884 96.7935 51.4063 96.6975 51.3378C96.6016 51.2694 96.348 51.1804 96.1425 51.1325C95.9369 51.0914 95.7245 51.0161 95.6628 50.9682C95.56 50.8792 94.491 50.7218 93.9633 50.7218C93.7509 50.7218 93.6824 50.756 93.6207 50.886C93.5659 51.0093 93.5727 51.0845 93.655 51.2009C93.7098 51.2831 93.7989 51.6322 93.8468 51.9812C93.8948 52.3372 93.9976 52.7274 94.0798 52.8848C94.1621 53.0285 94.2237 53.2476 94.2237 53.364C94.2237 53.4803 94.2991 53.7199 94.395 53.8979C94.491 54.0758 94.5664 54.2675 94.5664 54.3223C94.5664 54.3702 94.6417 54.5618 94.7308 54.7398C94.8268 54.9246 95.0186 55.3148 95.1625 55.616C95.2996 55.9172 95.5531 56.3826 95.7107 56.6564C95.8752 56.9234 96.0054 57.1698 96.0054 57.1903C96.0054 57.2177 96.0671 57.3204 96.1493 57.4162C96.2247 57.5189 96.4097 57.7859 96.5605 58.0117C96.7044 58.2376 96.9237 58.5457 97.0333 58.6962C97.1498 58.8468 97.3143 59.0796 97.4034 59.2096C97.4924 59.3397 97.7528 59.6546 97.9858 59.9078C98.3833 60.3391 98.5203 60.6471 98.3148 60.6471C98.0886 60.6471 97.1772 60.3733 96.9305 60.2295C96.6975 60.0995 96.3412 59.8257 95.697 59.2712C94.9021 58.5936 93.2644 56.8344 93.2644 56.6496C93.2644 56.6017 93.2164 56.5195 93.1547 56.4648C93.0177 56.3484 92.6065 55.7255 92.5517 55.5407C92.5243 55.4585 92.4489 55.3422 92.3735 55.2737C92.2981 55.2053 92.2365 55.0821 92.2365 54.9999C92.2365 54.9246 92.1611 54.7535 92.0651 54.6234C91.9692 54.4934 91.8938 54.3428 91.8938 54.2812C91.8938 54.2127 91.8185 54.0279 91.7294 53.8568C91.6403 53.6857 91.5443 53.4119 91.5169 53.2476C91.4895 53.0833 91.4073 52.8232 91.3319 52.6794C91.2565 52.522 91.1812 52.2071 91.1606 51.9265C91.1126 51.2283 91.0373 51.064 90.77 51.064C90.4411 51.0709 89.749 51.2351 89.5639 51.3515C89.468 51.4131 89.2898 51.4816 89.1665 51.5089C88.9403 51.5569 87.7 52.1661 87.5081 52.3303C87.4533 52.3783 87.2957 52.4672 87.1655 52.5357C86.8708 52.6863 86.8708 52.6863 86.0691 53.4735C85.3359 54.2059 85.2331 54.3223 85.0686 54.6371C85.0069 54.7603 84.8973 54.9383 84.8288 55.0273C84.7534 55.1163 84.6986 55.26 84.6986 55.3422C84.6986 55.4243 84.6369 55.5749 84.5615 55.6707C84.4724 55.7803 84.3696 56.1157 84.2874 56.5195C84.2189 56.8892 84.1229 57.2999 84.0818 57.4299C83.9722 57.8064 83.9927 60.3048 84.1092 60.6608C84.1641 60.8251 84.2463 61.2152 84.2943 61.5369C84.3354 61.8724 84.4245 62.1941 84.4998 62.3036C84.5684 62.4063 84.6574 62.6322 84.6986 62.817C84.7397 62.9949 84.8288 63.2071 84.8973 63.2824C84.9658 63.3577 85.1234 63.5905 85.2468 63.7958C85.377 64.0012 85.5757 64.2613 85.6922 64.3776C85.8978 64.5761 86.583 65.0279 86.6858 65.0279C86.7132 65.0279 86.816 65.0895 86.912 65.1648C87.0079 65.2401 87.3094 65.3428 87.5904 65.3976C87.8645 65.4523 88.1797 65.5276 88.2825 65.5687C88.584 65.685 89.1528 65.6577 89.5845 65.5071C89.7969 65.4318 90.0299 65.3702 90.1053 65.3702C90.4274 65.3702 91.3867 64.2544 91.5443 63.6931C91.5786 63.5494 91.6677 63.3783 91.7362 63.303C91.839 63.1866 91.8596 63.036 91.8596 62.2625C91.8596 61.4 91.8527 61.359 91.6745 61.1057C91.5718 60.962 91.469 60.7908 91.4484 60.7292C91.4278 60.6676 91.2908 60.5307 91.1469 60.428C90.8865 60.2432 90.7494 59.9968 90.8728 59.9284C90.907 59.9078 91.2086 59.8531 91.5512 59.812C92.257 59.7298 92.9217 59.812 93.1479 60.0105C93.607 60.4212 94.0044 61.1947 94.1689 61.9956C94.3128 62.6595 93.977 63.8095 93.4631 64.4324C93.0725 64.9047 92.49 65.4181 92.1679 65.5618C92.0377 65.6234 91.8527 65.7261 91.7568 65.7877C91.6608 65.8493 91.4758 65.9246 91.3456 65.952C91.2154 65.9794 91.0373 66.0478 90.955 66.1026C90.7906 66.2121 89.2076 66.4106 88.4332 66.4243C87.7822 66.4312 86.5625 66.2737 86.3089 66.1437C86.1993 66.0889 85.9594 65.9999 85.7881 65.9452C85.61 65.8904 85.4318 65.8014 85.3838 65.7467C85.3359 65.6919 85.2468 65.644 85.1782 65.644C85.0755 65.644 84.6026 65.3223 84.26 65.0142C84.1846 64.9458 84.1024 64.891 84.075 64.891C84.0407 64.891 83.8009 64.6241 83.5268 64.3023C82.9785 63.6452 82.3961 62.5979 82.3275 62.1462C82.3001 61.9819 82.2248 61.7491 82.1562 61.6328C81.8205 61.0783 81.8273 56.7865 82.1631 56.4032C82.2316 56.3279 82.3001 56.1157 82.3275 55.9377C82.3481 55.7529 82.444 55.5065 82.54 55.3764C82.6359 55.2463 82.7113 55.0889 82.7113 55.0136C82.7113 54.9383 82.7867 54.7946 82.8826 54.6782C82.9785 54.5687 83.0539 54.4386 83.0539 54.3907C83.0539 54.1032 85.0686 52.0702 85.4524 51.9744C85.5483 51.9539 85.6853 51.8854 85.7607 51.8238C85.9457 51.6664 86.6721 51.3036 86.9188 51.242C87.0285 51.2146 87.1998 51.1325 87.2889 51.0572C87.3848 50.9887 87.5355 50.9271 87.6383 50.9271C87.7343 50.9271 87.9056 50.8655 88.0221 50.7902C88.1317 50.7149 88.3647 50.6396 88.536 50.6122C88.7074 50.5849 88.9815 50.5096 89.1459 50.4343C89.3035 50.359 89.7078 50.2768 90.0299 50.2426C90.7906 50.1605 90.8454 50.1057 90.9345 49.3664C90.9687 49.0516 91.0167 48.7709 91.0373 48.7298C91.0647 48.6956 91.1058 48.3123 91.14 47.8811C91.1812 47.2924 91.2223 47.0528 91.3319 46.8748C91.4073 46.7516 91.4895 46.4847 91.5169 46.293C91.5443 46.0945 91.6197 45.8618 91.6883 45.7796C91.7499 45.6906 91.8322 45.5127 91.8596 45.3826C91.887 45.2526 91.9624 45.0677 92.0309 44.9719C92.0994 44.8761 92.1748 44.7255 92.2022 44.6297C92.2296 44.5338 92.305 44.3969 92.3735 44.3216C92.442 44.2463 92.5174 44.1026 92.5448 43.9999C92.5722 43.9041 92.6682 43.7535 92.7573 43.6645C92.8463 43.5824 92.9217 43.4797 92.9217 43.4455C92.9217 43.3565 93.3466 42.761 93.4905 42.6583C93.607 42.5693 93.655 42.2339 93.5453 42.2339C93.5111 42.2339 93.2849 41.9806 93.0382 41.6658C92.7915 41.3577 92.5106 41.0155 92.4215 40.8991C92.3324 40.7896 92.2296 40.6185 92.2022 40.5226C92.1748 40.4268 92.0926 40.2762 92.024 40.1872C91.9487 40.0982 91.8938 39.9613 91.8938 39.8792C91.8938 39.8039 91.8116 39.5643 91.7088 39.359C91.5238 38.9893 91.5238 38.962 91.5169 37.6135C91.5169 36.2582 91.5169 36.2376 91.7088 35.8612C91.8116 35.649 91.8938 35.4436 91.8938 35.4025C91.8938 35.2862 92.4832 34.5743 92.9354 34.1567C93.3397 33.7803 93.6892 33.5681 94.4704 33.2395C94.861 33.0752 94.9638 33.0615 95.9437 33.0615C96.7181 33.0684 97.0744 33.0957 97.2731 33.171C97.4239 33.2258 97.6569 33.3079 97.7871 33.3422C98.116 33.438 99.0822 33.9172 99.2947 34.0814C99.3906 34.1567 99.4386 34.2389 99.4112 34.2731C99.3769 34.3005 99.1234 34.321 98.8424 34.321C98.4244 34.3142 98.3079 34.2868 98.1777 34.1704C98.0955 34.0951 97.8762 33.9925 97.6843 33.9445C97.4993 33.9035 97.2594 33.8213 97.1567 33.7734C96.9168 33.6502 96.3275 33.6502 96.0876 33.7734C95.9849 33.8213 95.7519 33.9035 95.56 33.9445C95.375 33.9925 95.0597 34.1294 94.8747 34.2594C94.4773 34.5195 93.6275 35.3957 93.5179 35.6558C93.4768 35.7516 93.3946 35.9091 93.326 36.0049C93.2644 36.1007 93.1958 36.2924 93.1684 36.4361C93.141 36.5799 93.0588 36.84 92.9834 37.018C92.8669 37.2849 92.8463 37.456 92.8669 38.0926C92.9012 39.181 93.2301 40.1941 93.8263 41.0565C94.1278 41.4878 94.2511 41.5289 94.5458 41.2961C95.1625 40.8101 95.2585 40.7485 95.9643 40.3378C96.0397 40.2899 96.163 40.2488 96.2316 40.2488C96.3001 40.2488 96.4851 40.1804 96.6427 40.0982C96.91 39.9545 97.0127 39.9408 98.164 39.9408C99.2878 39.9408 99.4249 39.9545 99.6716 40.0845C99.8223 40.1667 100.035 40.2488 100.144 40.2762C100.384 40.3378 100.987 40.7759 101.248 41.0839C101.535 41.4262 101.645 41.7411 101.652 42.2681C101.659 42.98 101.419 43.3291 100.631 43.7261C99.7675 44.1642 98.0269 44.3696 97.3417 44.1094C97.1909 44.0547 96.8894 43.9794 96.677 43.9452C96.4577 43.9109 96.1973 43.8219 96.1013 43.7467C95.9986 43.6645 95.8478 43.6029 95.7656 43.6029C95.6833 43.6029 95.5326 43.5413 95.4366 43.466C95.3407 43.3907 95.2105 43.3291 95.1351 43.3291C95.0049 43.3291 94.6349 43.7398 94.6349 43.8904C94.6349 43.9452 94.5458 44.1642 94.4293 44.3901C94.3197 44.616 94.2237 44.8487 94.2237 44.9103C94.2237 44.9719 94.1483 45.1567 94.0661 45.321C93.977 45.4853 93.8811 45.8139 93.8537 46.0466C93.8263 46.2862 93.7509 46.6079 93.6755 46.7653C93.5796 46.9981 93.5385 47.3198 93.5042 48.3328C93.4425 49.9893 93.374 49.9004 94.6897 49.9004C95.608 49.9004 95.7861 49.9277 96.4166 50.1262C96.5879 50.181 96.8826 50.2563 97.0676 50.2974C97.5267 50.3932 98.2668 50.6602 98.4929 50.8107C98.5889 50.8724 98.7328 50.9271 98.8013 50.9271C98.8767 50.9271 99.0069 50.9819 99.096 51.0503C99.185 51.1188 99.4591 51.2899 99.7058 51.4405C100.823 52.1113 102.351 53.5693 103.16 54.7398C103.297 54.9383 103.406 55.1231 103.406 55.1574C103.406 55.1916 103.468 55.2737 103.543 55.3422C103.619 55.4106 103.715 55.5886 103.763 55.7392C103.804 55.8829 103.879 56.0198 103.927 56.0404C103.975 56.0609 104.05 56.1841 104.098 56.321C104.146 56.4648 104.235 56.6427 104.304 56.7317C104.372 56.8207 104.441 56.9713 104.468 57.074C104.489 57.1835 104.585 57.4162 104.674 57.601C104.77 57.779 104.845 57.9912 104.845 58.0597C104.845 58.1281 104.907 58.3061 104.976 58.443C105.051 58.5867 105.126 58.8537 105.154 59.0385C105.181 59.2302 105.263 59.5108 105.339 59.6751C105.414 59.8462 105.496 60.2501 105.531 60.6676C105.565 61.0509 105.64 61.5849 105.702 61.845C105.812 62.3789 105.832 63.8985 105.736 64.4461C105.695 64.6378 105.62 65.1443 105.565 65.5755C105.51 66.0068 105.414 66.4654 105.359 66.5817C105.304 66.705 105.215 67.0061 105.154 67.2594C105.099 67.5058 105.003 67.7728 104.948 67.8549C104.893 67.9371 104.845 68.0671 104.845 68.1424C104.838 68.2177 104.749 68.4504 104.64 68.6558C104.523 68.8611 104.434 69.0802 104.434 69.1418C104.434 69.2034 104.386 69.2992 104.318 69.3471C104.256 69.4019 104.167 69.5457 104.112 69.6689C103.954 70.0385 103.345 70.9694 102.913 71.4828C102.817 71.606 102.55 71.9209 102.33 72.181C101.933 72.667 101.131 73.4336 100.672 73.7759C100.535 73.8786 100.172 74.1592 99.8703 74.4056C99.5619 74.6521 99.2124 74.9122 99.0822 74.9875C98.8355 75.1312 98.7533 75.1928 98.4518 75.3913C98.2051 75.5556 97.8899 75.7336 97.5815 75.8773C97.4513 75.9458 97.2937 76.0348 97.2389 76.0827C97.1155 76.1854 95.4641 76.9383 95.3613 76.9383C95.3201 76.9383 95.1694 76.9999 95.0255 77.0752C94.8816 77.1505 94.6075 77.2463 94.4156 77.2874C94.2237 77.3285 93.9428 77.4243 93.7852 77.4928C93.6275 77.5612 93.4014 77.6228 93.2781 77.6228C93.1547 77.6228 92.8806 77.6844 92.6613 77.7597C92.442 77.8419 91.9212 77.9308 91.4553 77.9719C91.003 78.0061 90.5302 78.0883 90.3931 78.1499C90.0162 78.3142 86.7955 78.3142 86.3226 78.1499C86.1376 78.0814 85.6237 77.9993 85.1714 77.9651C84.7191 77.9308 84.2394 77.8487 84.1024 77.7939C83.9722 77.7392 83.6844 77.6707 83.4719 77.6502C83.2595 77.6228 82.91 77.5338 82.6976 77.4448C82.4783 77.3559 82.2179 77.2806 82.1151 77.2806C82.0123 77.2806 81.7725 77.1984 81.5806 77.1094C81.3956 77.0136 81.1763 76.9383 81.0941 76.9383C81.0118 76.9383 80.8131 76.863 80.6418 76.774C80.4705 76.685 80.2375 76.5892 80.121 76.5687C80.0045 76.5413 79.8743 76.4728 79.8332 76.4249C79.7852 76.3702 79.6482 76.3086 79.5248 76.2812C79.3946 76.2607 79.1959 76.1648 79.0725 76.0758C78.9492 75.9869 78.7916 75.9116 78.7299 75.9116C78.6614 75.9116 78.5175 75.8363 78.4078 75.7404C78.2913 75.6446 78.1543 75.5693 78.0995 75.5693C78.0447 75.5693 77.9213 75.5009 77.8185 75.4256C77.5855 75.2407 77.1332 75.1244 77.1881 75.2613C77.2086 75.316 77.2566 75.4803 77.2977 75.6378C77.3388 75.7952 77.4142 75.9321 77.4622 75.9526C77.565 75.9937 78.1954 77.219 78.3667 77.705C78.4215 77.8624 78.5106 78.0404 78.5586 78.102C78.6066 78.1567 78.6682 78.3142 78.6957 78.4442C78.7162 78.5743 78.8121 78.8344 78.9081 79.0192C79.004 79.204 79.0794 79.4231 79.0794 79.5052C79.0794 79.5873 79.1411 79.7722 79.2096 79.9228C79.285 80.0665 79.3741 80.3745 79.4152 80.5936C79.4563 80.8126 79.5248 81.0385 79.5659 81.0864C79.6002 81.1343 79.6824 81.4629 79.7304 81.812C79.7852 82.1679 79.8812 82.5923 79.9428 82.7566C80.2306 83.5369 80.2306 89.0335 79.9428 89.807C79.8812 89.9781 79.7921 90.3615 79.751 90.6626C79.7167 90.9638 79.6276 91.3335 79.5659 91.4841C79.4974 91.6415 79.422 91.8879 79.3946 92.0317C79.3672 92.1822 79.285 92.4355 79.2096 92.5929C79.1411 92.7504 79.0794 92.9215 79.0794 92.9763C79.0794 93.031 79.004 93.2158 78.9081 93.3938C78.8121 93.5718 78.7368 93.7566 78.7368 93.8114C78.7368 93.8593 78.5312 94.2974 78.2845 94.7834C78.0309 95.2625 77.7637 95.7827 77.6883 95.9333C77.6061 96.0839 77.517 96.2208 77.4827 96.2345C77.4485 96.2482 77.3662 96.3851 77.2909 96.5425C77.2223 96.6931 77.051 96.9601 76.9208 97.1312C76.7906 97.3023 76.6399 97.5145 76.5987 97.6104C76.5508 97.7062 76.448 97.8499 76.3726 97.9321C76.1944 98.1306 76.0916 98.247 75.3858 99.0752C74.7828 99.7734 74.1318 100.403 73.8097 100.609C73.7069 100.67 73.4602 100.862 73.2547 101.033C72.8229 101.389 72.3501 101.717 72.261 101.717C72.2268 101.717 72.1377 101.779 72.0623 101.847C71.8773 102.012 70.4588 102.744 70.3149 102.744C70.2532 102.744 70.1024 102.806 69.9791 102.881C69.8626 102.956 69.6296 103.038 69.4651 103.059C69.3075 103.086 69.0608 103.169 68.9101 103.237C68.7662 103.312 68.4098 103.394 68.122 103.429C67.8342 103.456 67.5121 103.518 67.3956 103.559C67.1832 103.648 65.7236 103.771 65.1 103.757C64.8944 103.757 64.3873 103.73 63.9693 103.696ZM41.8696 100.513C42.2876 100.348 42.3561 100.294 42.5617 99.9445L42.7947 99.5681L42.7878 98.6303C42.7878 97.8226 42.7673 97.6651 42.6439 97.4598C42.5685 97.3297 42.4863 97.1175 42.4589 96.9806C42.4383 96.8506 42.2876 96.4809 42.1231 96.1661C41.8696 95.6732 41.8079 95.5911 41.6708 95.6116C41.4653 95.6322 41.1363 95.9128 40.8417 96.3372C40.7115 96.5152 40.5196 96.7616 40.4237 96.8848C40.3209 97.0012 40.2181 97.1928 40.1975 97.3092C40.1701 97.4324 40.0879 97.583 40.0125 97.6514C39.944 97.7131 39.8823 97.8226 39.8823 97.891C39.8823 97.9595 39.8069 98.2538 39.711 98.5413C39.4917 99.219 39.4917 99.5201 39.7315 99.9924C39.9166 100.355 40.1427 100.54 40.6361 100.697C40.8965 100.78 41.3488 100.711 41.8696 100.513ZM99.6921 43.1032C99.9114 42.891 99.9799 42.7541 100.076 42.3366C100.247 41.6178 100.151 41.1798 99.7607 40.8375C99.4317 40.5432 99.2741 40.4953 98.7944 40.5363C98.2805 40.5774 97.3211 40.9676 96.4851 41.4672C95.978 41.7753 95.5943 42.1997 95.5943 42.4666C95.5943 42.583 96.163 42.9868 96.3343 42.9868C96.396 42.9868 96.5879 43.0553 96.7592 43.1374C97.232 43.3565 97.4719 43.3907 98.4861 43.377L99.4249 43.3633L99.6921 43.1032Z" fill="#E59D47"/>
<path d="M100.323 103.545C100.302 103.525 99.98 103.477 99.6031 103.442C98.7671 103.353 97.9379 103.073 97.8899 102.854C97.8146 102.539 97.5816 100.335 97.5405 99.5955C97.513 99.0479 97.4582 98.7262 97.3691 98.5346C97.3006 98.384 97.2115 98.0486 97.1773 97.7885C97.143 97.5352 97.0676 97.2751 97.0128 97.2066C96.958 97.145 96.862 96.9465 96.7935 96.7549C96.7318 96.57 96.5879 96.2757 96.4783 96.1046C96.3687 95.9334 96.2316 95.687 96.1631 95.557C96.1014 95.4269 95.9849 95.2489 95.9095 95.16C95.7999 95.0367 95.7656 94.9067 95.7656 94.5576C95.7656 93.9689 95.8958 93.8457 96.5126 93.8457C96.9511 93.8457 97.376 93.9347 97.4377 94.0442C97.5199 94.1743 99.0069 94.9409 99.1851 94.9409C99.2399 94.9409 99.4318 95.0025 99.61 95.0778C99.7881 95.1531 100.165 95.2489 100.453 95.29C100.741 95.3242 101.083 95.3995 101.213 95.4474C101.467 95.5433 102.002 95.598 103.372 95.6596C104.345 95.7076 104.523 95.7349 104.859 95.9061C105.065 96.0087 105.126 96.0909 105.188 96.3305C105.229 96.4879 105.318 96.7275 105.38 96.8575C105.476 97.0629 105.496 97.3298 105.496 98.5688C105.496 99.9652 105.49 100.054 105.346 100.328C105.257 100.485 105.188 100.657 105.188 100.711C105.188 100.759 105.065 100.985 104.921 101.218C104.66 101.608 104.626 101.635 104.249 101.724L103.852 101.82L103.77 102.19C103.708 102.477 103.639 102.601 103.434 102.765C103.016 103.114 102.399 103.374 101.83 103.436C100.85 103.545 100.357 103.579 100.323 103.545Z" fill="#E59D47"/>
<path d="M92.0173 103.442C91.7294 103.319 91.4827 102.696 91.6815 102.573C91.7157 102.552 91.7843 102.422 91.8322 102.279C91.8802 102.135 92.1337 101.786 92.4216 101.478C92.6957 101.177 92.9218 100.896 92.9218 100.862C92.9218 100.821 92.9972 100.684 93.0863 100.567C93.1753 100.444 93.2644 100.218 93.2918 100.068C93.3124 99.9171 93.3946 99.6843 93.47 99.5406C93.5934 99.3215 93.6071 99.1573 93.6071 98.1784C93.6071 97.227 93.5865 97.0148 93.47 96.7067C93.3946 96.5082 93.3124 96.1728 93.285 95.9675C93.2644 95.7621 93.1685 95.4404 93.0794 95.2487C92.9972 95.0639 92.9218 94.838 92.9218 94.7627C92.9218 94.6806 92.8601 94.5437 92.7916 94.4479C92.7162 94.3589 92.6271 94.1467 92.5792 93.9824C92.5312 93.8113 92.4558 93.6265 92.401 93.5648C92.353 93.5101 92.2708 93.3527 92.2297 93.2226C92.1817 93.0925 92.1132 92.9419 92.0652 92.8872C92.0173 92.8324 91.8459 92.5449 91.6815 92.2506C90.9619 90.9774 90.7769 90.7173 89.7559 89.4784C89.2214 88.8349 89.0843 88.6227 89.0432 88.39C88.9747 87.9382 89.0706 87.5617 89.3242 87.2811C89.5503 87.0415 89.5572 87.0347 90.0917 87.0347H90.633L91.0784 87.3975C91.3183 87.596 91.5787 87.815 91.6541 87.8766C91.7294 87.9382 91.9282 88.0957 92.0995 88.2257C92.2708 88.3489 92.4558 88.4995 92.5106 88.5474C92.8601 88.8691 95.3613 90.3477 95.7314 90.4572C95.8273 90.4846 95.9986 90.5599 96.1083 90.6283C96.2248 90.6968 96.4235 90.7721 96.5537 90.7994C96.6839 90.8268 96.8895 90.9021 96.9991 90.9706C97.1156 91.039 97.3897 91.128 97.6159 91.1759C97.842 91.217 98.123 91.2991 98.2326 91.3471C98.3491 91.4018 98.8425 91.4771 99.3359 91.5182C100.487 91.614 101.549 91.5182 102.07 91.2718C102.269 91.1828 102.454 91.1075 102.481 91.1075C102.584 91.1075 103.242 90.6352 103.708 90.2245C104.304 89.6974 104.729 89.5673 105.25 89.7453C105.496 89.8343 105.565 90.0123 105.517 90.4435C105.476 90.7858 105.188 91.2238 104.681 91.7304C104.201 92.2027 103.968 92.3738 103.715 92.4354C103.605 92.4628 103.461 92.5312 103.406 92.5792C103.352 92.6271 103.194 92.7024 103.064 92.7434C102.934 92.7777 102.639 92.8803 102.413 92.9625C102.036 93.0925 101.899 93.1062 100.837 93.0788C99.6374 93.0446 99.2262 92.9762 97.9242 92.5792C97.6433 92.4902 97.3006 92.4012 97.1704 92.3738C97.0402 92.3464 96.8552 92.2643 96.7661 92.1958C96.677 92.1205 96.54 92.0658 96.4578 92.0658C96.3824 92.0658 96.1631 91.9905 95.9712 91.8947C95.7862 91.8057 95.5875 91.7235 95.5327 91.7235C95.4778 91.7235 95.3065 91.6482 95.1558 91.5592C94.9981 91.4703 94.7857 91.3813 94.6692 91.3539C94.5596 91.3265 94.4294 91.2718 94.3814 91.2307C94.306 91.1759 93.5728 90.7789 92.819 90.3956C92.6683 90.3203 92.5038 90.2176 92.4558 90.1697C92.3736 90.0876 92.0995 90.0396 92.0995 90.1081C92.0995 90.2039 92.5929 91.1691 92.682 91.2444C92.7368 91.2923 92.7847 91.3676 92.7847 91.4155C92.7847 91.4566 92.9355 91.7851 93.1137 92.1411C93.2987 92.497 93.4906 92.9077 93.5385 93.0583C93.5865 93.2089 93.6687 93.38 93.7167 93.4416C93.7715 93.4964 93.8332 93.6538 93.8538 93.7839C93.8812 93.9139 93.9771 94.1535 94.0593 94.3246C94.1484 94.4958 94.2238 94.6874 94.2238 94.7559C94.2238 94.8243 94.2992 95.0502 94.3883 95.2693C94.4773 95.4815 94.5733 95.7826 94.6007 95.9332C94.6281 96.077 94.6898 96.2823 94.7377 96.385C94.7926 96.4808 94.8679 96.8368 94.9022 97.1722C94.9433 97.5076 95.0119 98.0347 95.0598 98.3495C95.1215 98.7876 95.1146 99.0683 95.053 99.6159C94.9365 100.519 94.8542 100.903 94.7377 101.033C94.6898 101.088 94.6144 101.266 94.5733 101.423C94.5253 101.58 94.4636 101.731 94.4294 101.752C94.3883 101.779 94.3129 101.909 94.2581 102.039C94.1484 102.292 93.6208 102.854 93.1959 103.162C92.7985 103.456 92.3256 103.565 92.0173 103.442Z" fill="#E59D47"/>
<path d="M8.70278 103.381C8.54517 103.326 8.29163 103.073 8.29163 102.977C8.29163 102.833 8.58629 102.819 11.6837 102.785C13.3078 102.765 15.2608 102.717 16.0351 102.683C17.3988 102.614 18.5911 102.587 23.1276 102.498C24.6283 102.47 25.4506 102.429 25.7316 102.361C25.9577 102.313 26.6019 102.224 27.1569 102.169C27.7189 102.114 28.2191 102.032 28.2671 101.991C28.315 101.95 28.6577 101.875 29.0346 101.827C29.4046 101.779 29.8089 101.69 29.9254 101.628C30.0488 101.56 30.2954 101.491 30.4736 101.471C30.6586 101.444 30.9533 101.355 31.1383 101.266C31.3302 101.177 31.5289 101.101 31.5975 101.101C31.6591 101.101 31.7482 101.06 31.7893 101.005C31.8304 100.958 32.036 100.862 32.2416 100.793C32.4472 100.732 32.6939 100.615 32.7898 100.54C33.0434 100.341 33.2695 100.424 33.4477 100.773C33.5299 100.93 33.6395 101.101 33.6875 101.156C33.7423 101.211 33.8383 101.348 33.8931 101.464C33.9548 101.58 34.1055 101.82 34.2357 101.998C34.3591 102.176 34.5098 102.429 34.5715 102.552C34.6263 102.676 34.7565 102.888 34.8525 103.018C35.0101 103.237 35.0169 103.257 34.9073 103.34C34.8113 103.408 32.221 103.429 21.7982 103.422C14.6509 103.422 8.75761 103.401 8.70278 103.381Z" fill="#E59D47"/>
<path d="M82.4304 102.854C82.4098 102.833 82.17 102.785 81.8959 102.744C81.6218 102.71 81.2655 102.614 81.101 102.539C80.9365 102.463 80.7721 102.402 80.7309 102.402C80.5939 102.402 79.936 101.567 79.8264 101.252C79.7579 101.074 79.6551 100.793 79.5934 100.622C79.4221 100.164 79.4701 98.8698 79.6756 98.6166C79.751 98.5139 79.8401 98.3291 79.8607 98.199C79.9086 97.9594 80.4294 97.405 80.6076 97.405C80.6624 97.405 80.7995 97.5966 80.916 97.8225C81.1078 98.1922 81.1353 98.3154 81.1353 98.7945V99.3353L80.8611 99.5886C80.7104 99.7255 80.587 99.8829 80.587 99.9445C80.587 100.15 80.9502 100.396 81.3066 100.444C81.4984 100.465 81.7725 100.533 81.9233 100.588C82.3276 100.732 83.0951 100.718 83.6022 100.554C83.8352 100.478 84.1299 100.417 84.2464 100.417C84.3628 100.417 84.5684 100.362 84.6986 100.287C84.8288 100.218 85.0138 100.136 85.1098 100.109C85.3907 100.027 85.9458 99.6296 86.2816 99.2737C86.8641 98.6508 87.2135 98.1922 87.2615 97.98C87.2889 97.8568 87.3712 97.7062 87.4397 97.6446C87.5151 97.5761 87.5836 97.3845 87.611 97.1791C87.6384 96.9806 87.7206 96.7342 87.796 96.6315C87.8988 96.4946 87.9468 96.255 87.9947 95.7211C88.029 95.3241 88.1044 94.708 88.1592 94.3521C88.2551 93.7634 88.2551 93.6334 88.1661 93.0926C88.1044 92.7572 88.0359 92.2164 88.0153 91.881C87.9879 91.4703 87.9194 91.1623 87.8097 90.909C87.7206 90.7105 87.6453 90.4778 87.6453 90.3957C87.6453 90.3204 87.5699 90.0945 87.4808 89.9028C87.3917 89.7111 87.2958 89.451 87.2684 89.321C87.241 89.1909 87.1793 89.0403 87.1245 88.9856C87.0765 88.924 86.9874 88.7392 86.9257 88.5749C86.8641 88.4106 86.775 88.2258 86.727 88.1642C86.679 88.1094 86.5968 87.9451 86.5557 87.8082C86.5077 87.6645 86.4392 87.5344 86.4118 87.5139C86.3775 87.4934 86.2816 87.3428 86.2062 87.1853C85.9252 86.624 85.7608 86.3365 85.658 86.227C85.6032 86.1723 85.4661 85.9669 85.3496 85.7684C85.24 85.5767 85.007 85.2413 84.8357 85.0223C84.6644 84.8032 84.4725 84.5363 84.4108 84.4268C84.2806 84.2146 83.4377 83.1057 83.1773 82.8182C83.0883 82.7223 82.8964 82.5033 82.7456 82.339C82.588 82.1747 82.2522 81.7777 81.9918 81.456C81.7314 81.1343 81.4642 80.8263 81.4025 80.7715C81.3408 80.7167 81.1353 80.484 80.9365 80.2513L80.587 79.8337V79.2451C80.587 78.5606 80.6282 78.5126 81.1832 78.5195C81.6972 78.5195 82.033 78.7043 82.6908 79.3272C83.0197 79.6421 83.4035 79.9775 83.5337 80.0802C83.7393 80.2308 84.0545 80.4909 84.7329 81.059C84.8083 81.1275 85.007 81.3054 85.1783 81.456C85.3496 81.6135 85.658 81.853 85.8636 81.9899C86.0692 82.1268 86.3364 82.3116 86.4529 82.4075C86.9463 82.8045 87.5082 83.1878 88.3305 83.6807C88.5841 83.8312 88.8719 84.0229 88.9815 84.1119C89.0843 84.194 89.2214 84.2625 89.2899 84.2625C89.3584 84.2625 89.4886 84.3241 89.5846 84.3994C89.6805 84.4815 89.8655 84.5774 89.9889 84.6184C90.1122 84.6595 90.263 84.7348 90.3178 84.7827C90.3795 84.8306 90.5576 84.9196 90.7152 84.9744C90.8797 85.036 91.0784 85.125 91.1607 85.1866C91.2429 85.2413 91.3662 85.2892 91.4279 85.2892C91.4964 85.2892 91.702 85.3645 91.8802 85.4535C92.0584 85.5425 92.3393 85.6383 92.5106 85.6657C92.6819 85.6931 92.9149 85.7616 93.0246 85.8232C93.2644 85.9464 94.9365 86.1723 95.6286 86.1723C96.3961 86.1723 98.308 85.9395 98.4861 85.8232C98.5752 85.7616 98.7876 85.6931 98.9521 85.6657C99.1234 85.6383 99.4935 85.4878 99.7744 85.3372C100.055 85.1866 100.371 85.0223 100.473 84.9675C100.837 84.7827 102.104 83.4342 102.104 83.2426C102.104 83.1947 102.18 83.0167 102.276 82.8387C102.372 82.6607 102.447 82.4417 102.447 82.3459C102.447 82.25 102.495 82.0036 102.55 81.7983C102.817 80.8194 102.824 80.7715 102.625 79.9022C102.522 79.4573 102.42 79.026 102.406 78.9439C102.392 78.8549 102.282 78.7385 102.166 78.6838C101.94 78.5674 101.919 78.5742 101.59 78.896C101.399 79.0876 100.898 79.1424 100.261 79.0397C99.843 78.9713 99.7333 78.9233 99.6168 78.7728C99.5003 78.6153 99.4935 78.5606 99.562 78.3894C99.7676 77.9034 100.946 77.4448 101.837 77.4996C102.289 77.5338 103.16 77.7255 103.338 77.835C103.393 77.8692 103.564 77.9582 103.715 78.0403C104.085 78.2388 104.359 78.5879 104.606 79.1629C104.804 79.6352 104.804 79.6626 104.811 80.9426C104.811 82.1337 104.797 82.2637 104.667 82.517C104.585 82.6676 104.503 82.8866 104.475 82.9962C104.407 83.2836 103.756 84.2283 103.283 84.7211C102.913 85.1044 102.282 85.5973 101.83 85.8437C101.721 85.9053 101.563 86.0011 101.474 86.0559C101.255 86.1996 100.268 86.5898 100.124 86.5898C100.062 86.5898 99.9457 86.6377 99.8704 86.6856C99.7881 86.7404 99.514 86.8225 99.2536 86.8636C98.9932 86.9115 98.5478 86.9937 98.2668 87.0484C97.4514 87.2127 96.0877 87.2401 95.3202 87.1032C94.9639 87.0416 94.3951 86.9594 94.0593 86.9252C93.7235 86.891 93.3192 86.802 93.1685 86.7336C93.0109 86.6651 92.7505 86.5898 92.5792 86.5624C92.4147 86.535 92.1406 86.4529 91.9761 86.3845C91.8048 86.3092 91.6266 86.2476 91.565 86.2476C91.5101 86.2476 91.2909 86.1723 91.0784 86.0764C90.866 85.9874 90.5645 85.8779 90.4069 85.8368C90.2424 85.7958 90.1122 85.7342 90.1122 85.6999C90.1122 85.6657 89.982 85.6041 89.8244 85.5562C89.6599 85.5151 89.4818 85.4398 89.4201 85.3851C89.3653 85.3372 89.2077 85.255 89.0775 85.2139C88.9473 85.166 88.7965 85.0907 88.7417 85.0428C88.68 84.9949 88.5018 84.9059 88.3442 84.8512C88.1866 84.7964 88.0222 84.7143 87.9742 84.6732C87.9262 84.6321 87.659 84.4678 87.3849 84.3104C86.1994 83.6327 85.9321 83.4685 85.8499 83.3316C85.7813 83.2289 84.8974 82.8113 84.8494 82.8593C84.8083 82.9003 85.0687 83.4069 85.24 83.6122C85.377 83.7696 85.6237 84.153 85.9047 84.639C86.0143 84.8306 86.1445 85.0428 86.1856 85.1181C86.2336 85.1934 86.4118 85.5151 86.5831 85.8368C86.7544 86.1586 86.9257 86.4666 86.9668 86.5214C87.0011 86.5761 87.0765 86.7336 87.1382 86.8636C87.2547 87.1237 87.3986 87.4523 87.6658 88.0273C87.7618 88.2326 87.8645 88.4996 87.892 88.6091C87.9194 88.7255 87.9947 88.924 88.0633 89.054C88.2072 89.3415 88.3716 89.8207 88.5155 90.3888C88.5704 90.6147 88.6732 90.9843 88.7417 91.2102C88.8171 91.4361 88.9061 91.8947 88.9473 92.2301C88.9884 92.5655 89.0638 93.0242 89.1186 93.2569C89.2488 93.8113 89.2488 95.2214 89.1186 95.7416C89.0638 95.9607 88.9884 96.3919 88.9541 96.7068C88.8787 97.2955 88.6183 98.2195 88.399 98.6371C88.3374 98.7672 88.2551 98.9725 88.2346 99.0957C88.2072 99.2121 88.1386 99.349 88.0838 99.3969C88.0222 99.4448 87.9262 99.6023 87.8714 99.746C87.8166 99.8897 87.748 100.006 87.7206 100.006C87.6864 100.006 87.6316 100.088 87.5836 100.184C87.3712 100.656 86.2405 101.82 85.8156 102.005C85.7128 102.053 85.5278 102.162 85.4113 102.244C85.2948 102.333 85.1783 102.402 85.1509 102.402C85.1235 102.402 84.9659 102.463 84.7946 102.539C84.3766 102.73 82.5538 102.977 82.4304 102.854Z" fill="#E59D47"/>
<path d="M8.38076 101.06C8.29167 100.999 8.22314 100.923 8.22314 100.889C8.22314 100.745 8.58633 100.608 9.05917 100.581C9.33327 100.561 9.95686 100.519 10.4434 100.478C10.9368 100.444 11.5878 100.417 11.8962 100.417C12.2593 100.417 12.5951 100.369 12.8761 100.28C13.1022 100.211 13.5339 100.129 13.8218 100.102C14.1164 100.075 14.4796 99.9993 14.6304 99.9308C14.7811 99.8692 15.11 99.7871 15.3499 99.7597C15.5966 99.7323 15.9392 99.6433 16.1174 99.5543C16.2956 99.4654 16.5422 99.3901 16.6656 99.3901C16.7889 99.3901 17.0493 99.3079 17.2344 99.2189C17.4262 99.1231 17.6524 99.0478 17.7415 99.0478C17.8374 99.0478 17.9607 98.9999 18.0224 98.9451C18.0772 98.8904 18.3034 98.8014 18.5227 98.7466C18.7419 98.6919 18.9955 98.5823 19.0983 98.5002C19.1942 98.4249 19.345 98.3633 19.4341 98.3633C19.5231 98.3633 19.7082 98.288 19.8452 98.1922C19.9823 98.0964 20.1467 98.0211 20.2084 98.0211C20.2769 98.0211 20.4277 97.9458 20.5579 97.8499C20.6881 97.7541 20.8457 97.6788 20.9142 97.6788C20.9828 97.6788 21.1061 97.6035 21.1883 97.5077C21.2706 97.4118 21.3871 97.3366 21.4419 97.3366C21.5036 97.3366 21.7845 97.186 22.0655 96.9943C22.3464 96.8095 22.6205 96.652 22.6685 96.652C22.7096 96.652 22.8056 96.5973 22.8741 96.5357C22.9906 96.4125 23.1619 96.2893 23.6416 95.9675C24.1966 95.5911 24.3063 95.5089 24.6352 95.2146C25.3684 94.5575 27.0473 92.8325 27.342 92.4423C27.6298 92.059 28.1712 91.3814 28.4521 91.0733C28.5138 90.998 28.7674 90.7037 29.0003 90.423C29.9529 89.2799 31.2891 88.1847 32.2416 87.7603C32.8652 87.4797 33.2421 87.3428 33.3655 87.3428C33.4477 87.3428 33.7081 87.2743 33.9411 87.1922C34.3111 87.069 34.5236 87.0484 35.6474 87.0416C36.3464 87.0347 36.9494 87.0621 36.9837 87.0895C37.0111 87.1237 37.0385 87.4523 37.0385 87.8219C37.0385 88.7392 37.0385 88.7323 35.9969 88.746C34.9621 88.7597 33.4888 88.9856 33.1667 89.1841C33.0365 89.2594 32.8789 89.3278 32.8173 89.3278C32.7008 89.3278 31.8785 89.7249 31.7277 89.8618C31.6729 89.9097 31.4741 90.0466 31.2823 90.1629C30.4942 90.6626 28.8701 92.2301 28.041 93.2911C27.4928 93.9962 25.6357 95.9333 24.9162 96.5494C24.6969 96.741 24.4296 96.9669 24.3268 97.0627C23.9774 97.3708 22.5657 98.2949 22.4355 98.2949C22.3944 98.2949 22.3122 98.3428 22.2642 98.4044C22.2094 98.466 22.0449 98.5755 21.8942 98.644C21.7434 98.7124 21.5721 98.8014 21.5173 98.8356C21.3185 98.9588 20.4962 99.3216 20.414 99.3216C20.3729 99.3216 20.2358 99.3832 20.1193 99.4517C20.0028 99.5201 19.7973 99.6023 19.6671 99.6296C19.5369 99.657 19.3313 99.7323 19.2148 99.8008C19.0983 99.8692 18.8653 99.9445 18.7008 99.9719C18.5364 99.9993 18.2554 100.075 18.0841 100.143C17.9128 100.211 17.625 100.287 17.4331 100.314C17.2481 100.342 16.9054 100.417 16.6724 100.485C16.4395 100.561 15.9803 100.636 15.6446 100.663C15.3156 100.684 14.8702 100.766 14.6646 100.834C14.3631 100.93 13.8766 100.971 12.4033 101.033C8.8947 101.183 8.55207 101.183 8.38076 101.06Z" fill="#E59D47"/>
<path d="M64.8328 79.4367C64.4764 79.3409 64.079 79.1972 63.9419 79.1082C63.4691 78.7933 62.8592 78.1293 62.6331 77.6844C62.5166 77.4448 62.3795 77.1779 62.3247 77.0889C62.126 76.733 62.1466 74.1934 62.3521 74.0702C62.3932 74.0428 62.4686 73.9128 62.5234 73.7759C62.5851 73.639 62.7085 73.4063 62.8044 73.2625C63.01 72.9613 63.7227 72.2837 63.8392 72.2837C63.8803 72.2837 64.0653 72.2015 64.2503 72.0989C64.5655 71.9209 64.6341 71.9072 65.4769 71.9072C66.265 71.9072 66.3952 71.9209 66.6076 72.0509C66.7378 72.1331 66.9434 72.2221 67.053 72.2426C67.1695 72.27 67.4025 72.4479 67.6081 72.6601C68.0604 73.1325 68.1426 73.4199 68.1015 74.3509C68.0741 74.9738 68.0398 75.1038 67.8479 75.4803C67.5807 76.0005 67.0393 76.5413 66.5597 76.774C66.2444 76.9315 66.1348 76.952 65.6345 76.9246C64.9013 76.8972 64.497 76.7056 64.2092 76.2538C63.9556 75.8568 63.9214 75.2955 64.1338 75.1107C64.3805 74.8985 64.9835 74.6794 65.2028 74.7205C65.6414 74.8026 66.1142 75.0833 66.313 75.3776C66.4226 75.5419 66.5528 75.672 66.6008 75.672C66.6487 75.672 66.7858 75.5351 66.9091 75.3776C67.1832 74.9943 67.2107 74.4809 66.9708 74.1729C66.8817 74.0634 66.8132 73.9196 66.8132 73.8512C66.8132 73.7348 66.6899 73.5979 66.0937 73.0435C65.8812 72.8518 65.3056 72.7423 64.8259 72.8039C63.9145 72.9271 62.9072 74.1866 62.9072 75.1997C62.9072 75.5145 63.1333 76.2333 63.3458 76.5824C63.6815 77.1437 64.8876 78.102 65.2508 78.102C65.3056 78.102 65.4701 78.1704 65.614 78.2526C65.8607 78.3895 65.984 78.4031 66.9571 78.41C67.8548 78.41 68.0535 78.3895 68.1563 78.3005C68.2317 78.2389 68.3962 78.1499 68.5264 78.1088C68.8347 78.013 69.4652 77.4106 69.7187 76.9794C69.8284 76.7946 69.9517 76.4865 69.9997 76.2949C70.0545 76.1032 70.1367 75.8226 70.1984 75.672C70.3423 75.2886 70.3355 74.8848 70.171 74.5015C70.0888 74.3235 70.0065 74.036 69.986 73.8649C69.9654 73.6937 69.8763 73.4268 69.7872 73.2694C69.6982 73.1188 69.6228 72.9271 69.6228 72.845C69.6228 72.7628 69.5611 72.6328 69.4789 72.5506C69.4035 72.4753 69.3076 72.311 69.2664 72.1947C69.2253 72.0715 69.1294 71.9072 69.054 71.825C68.8964 71.6471 68.7868 71.4691 68.6017 71.0721C68.5264 70.9078 68.4304 70.7778 68.3893 70.7778C68.3482 70.7778 68.2591 70.6409 68.1837 70.4697C68.1083 70.2986 68.0193 70.1617 67.985 70.1617C67.9507 70.1617 67.8959 70.0933 67.8685 70.0111C67.8411 69.9221 67.752 69.7647 67.6629 69.662C67.5738 69.5525 67.4985 69.4224 67.4985 69.3745C67.4985 69.3266 67.4368 69.2102 67.3614 69.1213C67.0325 68.7379 66.8132 68.4231 66.8132 68.3409C66.8132 68.293 66.7241 68.1493 66.6145 68.026C66.5117 67.9028 66.3198 67.6222 66.1965 67.41C66.08 67.1909 65.9566 67.013 65.9292 67.013C65.8812 67.013 65.4564 66.3969 65.381 66.2258C65.3673 66.1916 65.2234 66.0068 65.0658 65.8151C64.9013 65.6303 64.7231 65.3565 64.6683 65.2196C64.6066 65.0758 64.5313 64.9595 64.4902 64.9595C64.3805 64.9595 64.0036 64.2339 64.0036 64.0217C64.0036 63.7684 64.1544 63.6315 64.36 63.6863C64.6478 63.7547 65.8059 64.9458 66.5048 65.8767C66.7036 66.1437 67.0256 66.5338 67.2175 66.7392C67.4162 66.9445 67.6218 67.2115 67.6835 67.321C67.7383 67.4374 67.937 67.7043 68.1221 67.9165C68.3071 68.1287 68.4578 68.3204 68.4578 68.3478C68.4578 68.3683 68.5332 68.4915 68.6291 68.6147C68.7251 68.7379 68.8005 68.868 68.8005 68.9091C68.8005 68.9433 68.8758 69.046 68.9718 69.1349C69.0677 69.2239 69.1431 69.3334 69.1431 69.3745C69.1431 69.4224 69.2116 69.5456 69.2939 69.6483C69.472 69.8811 69.5748 70.059 69.9654 70.8462C70.4862 71.8867 70.5822 72.1057 70.5822 72.2289C70.5822 72.3042 70.6438 72.4822 70.7261 72.6396C70.9179 73.0092 71.0139 74.0155 70.959 75.0217C70.9179 75.672 70.8837 75.8636 70.7466 76.1101C70.6575 76.2743 70.5822 76.4455 70.5822 76.4934C70.5822 76.6577 70.1162 77.2669 69.5817 77.7939C68.9307 78.4374 68.7868 78.5469 68.1495 78.8891C67.8822 79.026 67.6424 79.1629 67.6013 79.1972C67.5396 79.2451 67.3203 79.2998 66.1622 79.5463C65.751 79.6284 65.5386 79.6147 64.8328 79.4367Z" fill="#E59D47"/>
<path d="M76.03 68.8544C75.9204 68.8201 75.5778 68.7585 75.2762 68.7175C74.9405 68.6695 74.6664 68.5874 74.5636 68.5121C74.4745 68.4368 74.3374 68.3821 74.2621 68.3821C74.0907 68.3821 72.4804 67.6017 72.3707 67.4648C72.3228 67.4101 72.1994 67.3416 72.0898 67.3211C71.987 67.3005 71.8431 67.2184 71.7746 67.1431C71.7129 67.0746 71.6306 67.013 71.5895 67.013C71.5553 67.013 71.4388 66.9377 71.3223 66.8419C71.2126 66.7461 71.0756 66.6708 71.0276 66.6708C70.9796 66.6708 70.7535 66.527 70.5342 66.3422C70.3149 66.1643 69.986 65.911 69.7941 65.7878C69.4789 65.5687 68.8622 65.069 68.4784 64.7199C68.2523 64.5214 68.1221 64.4119 67.6698 64.0697C66.4295 63.1251 65.7031 62.331 65.8128 62.0367C65.8676 61.8929 66.5734 61.9203 66.7242 62.0709C66.7927 62.1394 66.9229 62.2283 67.0188 62.2694C67.1696 62.331 67.8343 62.8239 68.1838 63.1251C68.2386 63.173 68.3619 63.2483 68.4579 63.2893C68.5538 63.3304 68.8142 63.5084 69.0266 63.6863C69.2391 63.8575 69.4378 64.0012 69.4584 64.0012C69.5337 64.0012 70.2053 64.4598 70.3012 64.5762C70.3561 64.6378 70.4177 64.6857 70.452 64.6857C70.5274 64.6857 71.2263 65.117 71.2538 65.1854C71.2675 65.2128 71.3977 65.2949 71.5416 65.3702C71.6855 65.4455 71.9459 65.603 72.124 65.7262C72.3022 65.8494 72.4804 65.9726 72.5283 66C72.5695 66.0274 72.7956 66.1574 73.0354 66.3012C73.2684 66.4381 73.4603 66.575 73.4603 66.6023C73.4603 66.6297 73.5768 66.6982 73.7207 66.7598C73.8578 66.8214 74.0976 66.9514 74.2484 67.0473C74.4882 67.1979 74.6869 67.2937 75.4818 67.6565C75.5983 67.7112 75.941 67.8344 76.2425 67.9303C77.0374 68.1835 77.5993 68.1699 78.4353 67.8892C79.0178 67.6975 79.1343 67.6223 79.5934 67.1979C79.9703 66.8488 80.1622 66.6092 80.3266 66.2738C80.5528 65.8152 80.5528 65.8152 80.5528 64.7542C80.5528 63.7343 80.5459 63.6795 80.3678 63.3236C80.2581 63.1182 80.1759 62.8923 80.1759 62.8307C80.1759 62.7623 80.1416 62.687 80.1074 62.6664C80.0662 62.6391 79.9497 62.4953 79.8538 62.3379C79.5454 61.845 78.9013 61.2837 78.3394 61.0168C77.8528 60.784 77.7843 60.7704 77.2567 60.7977C76.8661 60.8114 76.6605 60.8525 76.5714 60.9278C76.496 60.9894 76.3316 61.0784 76.2014 61.1195C75.8382 61.2358 75.2557 61.8587 75.0638 62.331C74.8994 62.7349 74.8445 63.2072 74.961 63.2756C74.9953 63.2962 75.0433 63.4194 75.0638 63.5494C75.1392 63.9328 75.5915 64.4325 76.1123 64.7063C76.3727 64.8363 76.681 64.9664 76.7975 64.9938C77.1059 65.0554 77.4622 64.9253 77.6815 64.6652L77.8597 64.453L77.7089 64.3435C77.5102 64.2066 77.2361 63.9328 77.1128 63.748C76.9757 63.5494 76.962 62.5364 77.0853 62.2352C77.2018 61.9545 77.5719 61.8313 78.031 61.9203C78.2983 61.9751 78.4011 62.0435 78.6957 62.3858L79.0452 62.7828V63.5152C79.0452 64.2408 79.0452 64.2476 78.7917 64.6241C78.5175 65.0417 77.983 65.514 77.5034 65.7809C77.2224 65.9315 77.1196 65.9452 76.3384 65.9521C75.5229 65.9521 75.4613 65.9452 75.2557 65.7809C74.7623 65.4045 74.5567 65.2128 74.5567 65.1443C74.5567 65.1033 74.495 65.0006 74.4128 64.9185C74.3306 64.8295 74.2552 64.6241 74.2209 64.4051C74.1935 64.1997 74.1182 63.9396 74.0565 63.8164C73.9126 63.5426 73.9057 63.1319 74.0496 62.8444C74.1113 62.7212 74.173 62.4953 74.1935 62.3379C74.2141 62.1804 74.31 61.9135 74.4128 61.7424C74.6458 61.3385 75.3996 60.6061 75.6394 60.5445C75.7422 60.5239 75.8861 60.4418 75.9615 60.3733C76.0369 60.3117 76.2219 60.2296 76.3727 60.2022C76.5166 60.1748 76.7359 60.1064 76.8524 60.0448C77.1128 59.9079 78.4559 59.8873 78.6203 60.0174C78.6752 60.0653 78.9013 60.1475 79.1137 60.2022C79.5454 60.3186 79.8401 60.4623 80.1074 60.6882C80.2033 60.7704 80.3609 60.8799 80.4568 60.9278C80.6419 61.0305 81.1353 61.5507 81.1353 61.6465C81.1353 61.6739 81.2175 61.8176 81.3134 61.9545C81.4094 62.0914 81.5122 62.3721 81.5464 62.5774C81.5807 62.776 81.6424 63.0908 81.6835 63.2688C81.7451 63.5221 81.7451 63.7 81.6835 64.0218C81.6355 64.2545 81.5738 64.6104 81.5396 64.8158C81.5053 65.0143 81.3957 65.3223 81.3066 65.4934C81.2106 65.6714 81.1353 65.8425 81.1353 65.8836C81.1284 66.1026 80.0525 67.4853 79.6414 67.7865C79.5043 67.8892 79.2713 68.0672 79.1206 68.1767C78.9767 68.2931 78.8191 68.3821 78.7711 68.3821C78.7231 68.3821 78.6066 68.4437 78.5175 68.519C78.4216 68.5874 78.2092 68.6695 78.0447 68.6969C77.8803 68.7175 77.5924 68.7791 77.4074 68.8338C77.0237 68.9433 76.3453 68.9502 76.03 68.8544Z" fill="#E59D47"/>
<path d="M89.2761 35.0809C89.1733 35.0193 89.0637 34.8961 89.0431 34.7934C89.0157 34.6976 89.0157 34.0815 89.0363 33.4244C89.0637 32.4387 89.0979 32.1923 89.2076 31.9801C89.2761 31.8432 89.3583 31.5831 89.3789 31.3982C89.4063 31.2203 89.5022 30.9259 89.5982 30.748C89.6941 30.57 89.7695 30.3852 89.7695 30.3304C89.7695 30.2757 89.8449 30.1182 89.9271 29.9882C90.0162 29.8513 90.1875 29.5912 90.3109 29.3995C90.7357 28.7287 91.654 27.7361 92.5448 26.9763C92.8806 26.6889 93.278 26.3398 93.4219 26.2029C93.5659 26.066 93.9702 25.7374 94.3128 25.4704C95.4846 24.5874 96.4234 23.6702 97.3417 22.5202C97.8008 21.9452 97.8899 21.8357 98.0064 21.6988C98.068 21.6304 98.1708 21.4729 98.2394 21.3497C98.3558 21.1101 98.3696 21.1033 98.6642 20.7405C98.7739 20.6104 98.8904 20.4256 98.9178 20.3298C98.9452 20.234 99.0206 20.1039 99.0822 20.0286C99.1919 19.9054 99.37 19.5905 99.6236 19.0566C99.699 18.8992 99.7949 18.7486 99.8292 18.7281C99.8703 18.7075 99.9388 18.5706 99.9868 18.4269C100.035 18.29 100.124 18.0983 100.192 18.0025C100.254 17.9066 100.329 17.7218 100.35 17.5849C100.377 17.448 100.453 17.2837 100.528 17.2153C100.604 17.1468 100.665 17.0236 100.665 16.9415C100.665 16.8594 100.741 16.6403 100.837 16.4555C100.932 16.2707 101.028 16.0106 101.049 15.8805C101.076 15.7505 101.152 15.5314 101.213 15.4014C101.282 15.2713 101.371 14.9975 101.412 14.799C101.453 14.6005 101.535 14.3404 101.597 14.2172C101.659 14.1008 101.734 13.7859 101.768 13.519C101.796 13.2589 101.878 12.9029 101.953 12.7318C102.029 12.5607 102.104 12.1842 102.132 11.8967C102.152 11.6092 102.221 11.2396 102.276 11.0753C102.358 10.8631 102.419 10.1854 102.502 8.67952C102.611 6.74921 102.632 6.5644 102.755 6.44118C103.132 6.05786 103.187 6.57809 103.07 9.71996C103.022 11.0274 102.961 11.9104 102.892 12.2184C102.831 12.4854 102.755 13.0467 102.714 13.4779C102.673 13.9091 102.584 14.4362 102.509 14.6416C102.44 14.8469 102.378 15.1412 102.378 15.285C102.378 15.4287 102.303 15.7368 102.214 15.9695C102.125 16.2022 102.015 16.5582 101.974 16.7567C101.933 16.9552 101.858 17.1879 101.803 17.2701C101.748 17.3522 101.686 17.5302 101.659 17.6602C101.631 17.7903 101.535 18.0367 101.446 18.2078C101.357 18.379 101.282 18.5569 101.282 18.6048C101.282 18.6801 101.097 19.084 100.823 19.6111C100.398 20.4256 100.151 20.8637 100.055 20.9801C99.9868 21.0554 99.8977 21.1923 99.8566 21.2881C99.7675 21.4661 99.7195 21.5345 99.0548 22.4175C98.4381 23.2321 96.6495 24.9913 94.9775 26.4219C93.7714 27.4555 93.2232 28.0236 92.2639 29.2215C92.1885 29.3174 92.0514 29.5227 91.9555 29.6733C91.8664 29.8239 91.7499 30.0087 91.7088 30.084C91.6608 30.1593 91.558 30.3578 91.4827 30.5289C91.4073 30.7001 91.2839 30.9602 91.2154 31.1108C91.1469 31.2613 91.0098 31.7268 90.907 32.1375C90.7494 32.7809 90.7289 33.0411 90.7289 33.9035V34.9166L90.4753 35.0261C90.1053 35.1836 89.5022 35.2109 89.2761 35.0809Z" fill="#E59D47"/>
<path d="M105.119 32.9454C105.065 32.9249 104.928 32.8291 104.825 32.7469C104.715 32.658 104.592 32.5827 104.551 32.5758C104.503 32.5758 104.297 32.4526 104.092 32.3089C103.886 32.1583 103.605 31.9871 103.475 31.9255C103.345 31.8639 103.18 31.7681 103.119 31.7133C103.057 31.6586 102.906 31.5559 102.776 31.4943C102.44 31.3095 102.378 31.0767 102.605 30.755C102.7 30.6113 102.803 30.4059 102.831 30.2896C102.851 30.18 102.927 30.0226 102.995 29.9473C103.064 29.872 103.132 29.7009 103.16 29.5708C103.18 29.4408 103.262 29.208 103.331 29.0575C103.406 28.9069 103.495 28.6125 103.537 28.4072C103.578 28.2018 103.66 27.9417 103.722 27.8322C103.776 27.7227 103.845 27.3804 103.879 27.0792C103.907 26.7712 103.989 26.4221 104.05 26.2921C104.14 26.1209 104.188 25.7787 104.235 24.9504C104.277 24.2385 104.338 23.7252 104.407 23.5403C104.544 23.1776 104.599 20.6791 104.674 12.3213C104.722 7.5503 104.743 6.84526 104.839 6.61937C104.962 6.32503 105.099 6.29765 105.277 6.53723C105.387 6.69467 105.4 7.38602 105.407 19.8303C105.421 33.8353 105.435 33.0687 105.119 32.9454Z" fill="#E59D47"/>
</svg>
