<svg width="200" height="77" viewBox="0 0 200 77" fill="none" xmlns="http://www.w3.org/2000/svg">
<path d="M71.356 18.514C69.7175 18.8537 69.7175 19.3633 71.469 21.4015C73.3334 23.6662 76.7232 25.2515 81.8079 26.3272C85.8192 27.1765 90 28.875 90.678 30.0074C91.1865 30.8 90.9605 30.7434 88.4181 29.4412C84.7458 27.5728 79.2656 28.3089 78.3051 30.8567C77.2882 33.5177 78.7571 36.2353 81.1865 36.2353C82.8249 36.2353 84.3503 34.3103 83.8983 32.8949C83.5594 31.8758 83.7853 31.7059 85.4238 31.7059C88.1356 31.7059 92.1469 33.914 93.3899 36.0655C94.4068 37.8772 94.4068 37.9339 93.1639 39.689C91.6949 41.7272 88.0791 43.539 85.4238 43.5956C83.7853 43.5956 83.6159 43.4824 83.9548 42.2368C84.2938 40.7647 82.9944 39.0662 81.469 39.0662C80.904 39.0662 79.887 39.4625 79.2091 39.9721C77.6836 41.0478 75.8757 40.5949 75.4238 38.953C75.1978 38.3302 73.8983 37.3111 72.5424 36.7449C71.1865 36.1221 70.0565 35.3861 70.0565 35.103C70.0565 34.7633 69.8305 34.5368 69.4916 34.5368C69.2091 34.5368 68.9266 35.0464 68.9266 35.6692C68.9266 37.1978 68.1356 37.0846 67.4012 35.4993C67.0622 34.8199 65.7062 33.6309 64.4068 32.8949L61.9774 31.5361L62.4294 32.8949C62.6554 33.6309 62.9944 35.3294 63.1074 36.6317C63.3899 38.8397 63.2769 39.0662 62.2034 39.0662C60.2825 39.0662 60.791 40.7081 63.3899 43.0861C65.8757 45.3508 65.6497 46.1434 63.1074 44.1618C60.8475 42.4067 59.4351 39.6324 58.5311 35.3861C57.6836 31.253 56.5537 29.7243 54.0678 29.1015C52.7684 28.8184 52.4294 28.9317 52.1469 29.8942C51.8644 31.0265 51.8644 31.0265 49.887 29.6677C47.2882 27.9125 45.8757 27.9692 45.0848 29.7243C44.6328 30.8 44.6328 31.4794 45.0848 32.5552C45.6497 33.8574 45.5932 34.0839 44.4633 34.5368C43.7853 34.8199 42.2034 36.0655 40.9605 37.3677C38.9266 39.5192 38.7006 39.9721 38.7006 42.7464C38.7006 44.8978 38.9831 46.0868 39.774 46.9361C40.9605 48.2383 42.9379 48.4647 43.9548 47.4456C44.8023 46.5964 44.8588 44.0486 44.0113 43.1993C43.1074 42.2934 45.1413 41.3309 46.6102 41.8971C49.4351 42.9728 50.9605 46.8794 49.774 49.9934C49.2656 51.3522 49.0396 51.4655 48.0226 50.8427C47.1752 50.2765 46.7797 50.2765 46.2147 50.8427C45.7062 51.3522 45.7062 51.5221 46.2147 51.5221C47.1752 51.5221 47.0622 53.0508 46.0452 53.4471C45.0283 53.8434 44.9153 56.3912 45.9322 56.7875C46.2712 56.9574 45.0848 57.75 43.2204 58.5993C35.9322 61.8831 27.0057 60.9206 24.3503 56.5611C22.9944 54.353 23.2769 53.7302 25.3673 54.1265C26.2712 54.2964 27.5706 54.1831 28.2486 53.7868C29.548 53.1074 29.548 52.8809 28.4746 47.7853L28.1356 45.9736L30.8475 46.0868C33.7853 46.1434 34.9718 47.389 32.3729 47.6721C30.6215 47.8419 30.2825 49.0875 31.7514 49.9934C33.1074 50.8993 34.4633 49.5405 34.4633 47.1625C34.4633 45.6339 33.8983 44.6714 31.8644 42.4633C25.8757 36.0089 16.6667 34.4236 12.7684 39.1228C11.243 40.878 10.8475 42.4633 11.8644 42.4633C12.2034 42.4633 12.4294 42.1236 12.4294 41.6706C12.4294 39.689 17.4012 37.5375 18.3616 39.0662C18.5876 39.4059 17.9661 39.6324 17.0057 39.6324C14.9153 39.6324 14.6893 40.7647 16.3842 42.4633C17.7966 43.8787 20.339 43.9353 22.0904 42.5765C22.8249 41.9537 24.0678 41.3875 24.8588 41.1611C26.1582 40.878 26.1582 40.9346 25.1978 41.5008C21.8079 43.539 19.9435 47.7853 20.452 52.3714C20.8475 55.6552 22.9379 58.3728 26.3842 60.0714C30.1695 61.9397 37.7401 61.9397 42.6554 60.0714C44.5198 59.3919 46.7797 58.6559 47.6836 58.4861C49.3221 58.1464 58.8136 49.314 60.5085 46.4831L61.356 45.1243L64.0113 46.1434C67.2317 47.3324 72.7119 47.1059 75.8757 45.5772C77.0057 45.0677 78.2486 44.7846 78.6441 44.9544C79.0396 45.1809 80 45.6905 80.791 46.1434C82.7119 47.2758 85.1413 47.1625 88.0791 45.8603C90.904 44.5581 90.9605 44.5581 90.9605 45.2375C90.9605 46.1434 86.3277 48.0684 81.0735 49.2574C78.1356 49.9368 75.0848 51.0692 73.8983 51.8618C71.6385 53.4471 69.7175 55.9383 70.339 56.5044C70.904 57.0706 77.3447 56.7309 79.4916 55.9949C80.565 55.6552 82.9944 54.0133 84.9153 52.3147C88.1356 49.4839 89.8305 48.578 89.8305 49.7103C89.8305 49.9934 89.1526 50.7861 88.3616 51.5787C86.7232 53.164 84.4633 56.5611 84.9153 56.9574C85.5368 57.5802 93.6159 53.2772 95.2543 51.4089C97.1187 49.314 99.0396 44.8978 99.774 40.9912L100.226 38.7831L100.621 41.5008C101.243 45.464 104.068 51.1258 106.271 52.8243C107.853 54.0133 114.237 57.1839 115.028 57.1839C115.876 57.1839 114.859 55.0324 112.712 52.3714C109.605 48.6346 110.565 48.2949 114.689 51.6353C116.328 52.9942 118.192 54.5228 118.814 55.0324C120.339 56.2214 126.836 57.2971 129.04 56.7309L130.621 56.278L129.096 54.4662C126.61 51.5221 124.576 50.3897 119.548 49.314C114.689 48.2383 109.605 46.2 109.605 45.2942C109.605 45.0111 110.791 45.2942 112.203 45.9736C115.254 47.3324 119.153 47.1625 120.904 45.5772C121.921 44.6714 122.147 44.6714 125.141 45.8037C128.927 47.2192 132.768 47.3324 136.441 46.0302C138.475 45.3508 139.266 45.2942 139.435 45.8037C139.944 47.2758 144.294 52.2015 147.062 54.4096C148.644 55.7118 150.339 57.2405 150.734 57.8067C151.13 58.4294 151.751 58.7692 152.034 58.5993C152.316 58.4294 154.35 58.939 156.61 59.7883C162.203 61.8831 170.226 62.053 173.785 60.1846C176.61 58.6559 178.757 56.2214 179.661 53.5037C180.847 49.9368 178.418 43.0861 175.537 41.8971C174.633 41.5574 174.52 41.3875 175.254 41.3875C175.819 41.3309 177.062 41.8405 178.079 42.4633C179.096 43.0861 180.452 43.5956 181.073 43.5956C182.712 43.5956 184.746 42.0103 184.746 40.7081C184.746 39.8589 184.35 39.6324 182.994 39.6324C182.034 39.6324 181.412 39.4059 181.638 39.0662C182.09 38.3302 184.52 38.3302 185.932 39.1228C186.554 39.4059 187.345 40.3684 187.684 41.2177C188.192 42.4067 188.362 42.5199 188.531 41.7839C189.266 38.7831 184.237 35.839 179.435 36.5184C173.107 37.3111 166.102 42.8596 166.102 47.0493C166.102 49.2574 167.232 50.7294 168.644 50.1633C169.096 49.9934 169.492 49.314 169.492 48.6912C169.492 47.8419 169.096 47.5589 168.023 47.5589C165.593 47.5589 166.78 46.1434 169.379 45.9736C171.695 45.8037 171.751 45.8603 171.751 47.5022C171.751 48.4081 171.525 49.3706 171.186 49.5405C170.226 50.1067 170.565 52.428 171.751 53.5037C172.542 54.2397 173.333 54.4096 174.859 54.1265C176.384 53.8434 176.836 53.9 176.836 54.5794C176.836 56.1081 173.446 59.3919 171.299 60.0147C166.836 61.2603 159.04 60.2412 155.537 57.9765C154.407 57.2971 154.35 57.014 154.915 56.0515C155.48 55.1456 155.424 54.7493 154.35 53.6169C152.825 52.0317 152.768 51.5221 154.124 51.5221C155.028 51.4655 155.028 51.4655 154.124 50.9559C153.616 50.6162 152.599 50.4464 151.864 50.503C150.678 50.6728 150.565 50.4464 150.396 47.7853C150.283 45.4074 150.452 44.728 151.638 43.4258C152.599 42.4067 153.616 41.8971 154.802 41.8971C156.61 41.8971 156.893 42.4067 155.876 44.0486C154.972 45.5206 156.158 48.125 157.74 48.125C158.475 48.125 159.322 47.8986 159.661 47.6721C161.469 46.4831 162.203 41.8405 160.96 39.4625C159.887 37.5375 156.723 34.5368 155.706 34.5368C154.972 34.5368 154.859 34.1405 155.141 32.2721C155.763 28.2522 153.333 27.2897 149.774 30.064L148.362 31.1964L147.91 30.064C147.401 28.6486 146.836 28.5919 144.633 29.7243C143.503 30.2905 142.825 31.253 142.429 32.725C142.09 33.8574 141.469 36.2353 140.96 37.9905C140.339 40.425 139.548 41.6706 137.853 43.2559C134.633 46.1434 134.124 45.8037 137.119 42.7464C139.661 40.2552 139.887 39.0662 137.797 39.0662C136.836 39.0662 136.723 38.7831 137.062 36.6317C137.288 35.3294 137.684 33.8008 137.91 33.2912C138.701 31.8192 138.531 31.7059 136.723 32.3853C135.763 32.6684 134.237 33.8574 133.333 34.9897C131.864 36.8015 131.638 36.9147 131.638 35.839C131.638 34.3669 130.734 33.6309 130.283 34.8199C130.113 35.2728 129.153 36.0089 128.079 36.4618C127.006 36.8581 125.593 38.0471 124.915 39.0096C123.559 40.9346 122.034 41.2743 120.904 39.9155C120 38.8397 117.853 38.8397 116.949 39.9155C116.554 40.3684 116.384 41.3875 116.497 42.1802C116.78 43.3692 116.61 43.5956 115.367 43.5956C111.356 43.5956 106.215 40.3684 106.215 37.9339C106.215 35.1596 111.299 31.7059 115.367 31.7059C116.61 31.7059 116.78 31.9324 116.497 33.1214C115.932 36.2353 119.379 37.3677 121.412 34.7633C122.994 32.725 122.881 31.9324 120.96 29.9508C118.927 27.9125 115.706 27.7427 111.921 29.4412C110.565 30.064 109.322 30.4603 109.209 30.3471C108.531 29.6677 114.52 27.1199 119.492 26.0442C124.915 24.7986 125.254 24.6287 127.966 21.9111L130.791 19.0802L129.04 18.6839C126.384 18.1177 120.339 19.0236 118.927 20.2125C118.192 20.7787 116.328 22.3074 114.689 23.6096C110.904 26.7236 109.322 26.8368 112.034 23.8361C114.633 20.9486 116.158 18.1177 115.085 18.1177C114.689 18.1177 114.124 18.3442 113.785 18.5706C113.503 18.8537 112.147 19.5331 110.791 20.0427C105.367 22.1375 102.994 25.1949 101.186 32.3287L100.17 36.4618L99.4916 33.4044C98.6441 29.3846 96.8927 25.5912 95.0283 23.553C93.5594 22.0243 85.4238 17.778 84.9153 18.3442C84.4633 18.7971 86.3842 21.9111 88.1356 23.553C89.0396 24.4589 89.8305 25.3647 89.8305 25.5912C89.8305 26.7236 88.0226 25.7611 84.7458 22.9302C82.8249 21.2317 80.3955 19.5897 79.4351 19.3067C77.2317 18.6272 72.9944 18.2309 71.356 18.514ZM53.8983 39.6324C55.1978 40.2552 56.9492 41.4442 57.8531 42.2368L59.4916 43.6522L58.4746 45.8603C57.9661 47.0493 56.4407 49.2574 55.0848 50.7294C52.8249 53.3905 52.6554 53.4471 51.6949 52.4846C50.9605 51.7486 50.678 50.4464 50.6215 47.8986C50.5085 43.8787 48.9266 40.9912 46.4972 40.425C45.0848 40.0287 45.0848 39.9721 46.0452 39.2927C47.5706 38.1603 51.2995 38.3302 53.8983 39.6324ZM153.785 39.1228C154.859 39.689 154.859 39.8022 153.22 40.7647C150.452 42.4633 149.605 44.2184 149.661 48.2383C149.661 51.2956 149.492 51.975 148.531 52.5412C147.458 53.2206 147.175 53.0508 145.48 51.1258C144.407 49.9368 142.938 47.7853 142.09 46.3133L140.678 43.7089L142.768 41.9537C146.723 38.6699 150.904 37.5942 153.785 39.1228Z" fill="#E59D47"/>
</svg>
